Dhyana-Bold.ufo
<glyph name="exclam" format="1">
  <advance width="768"/>
  <unicode hex="0021"/>
  <outline>
    <contour>
      <point x="560" y="161" type="curve" smooth="yes"/>
      <point x="560" y="54"/>
      <point x="517" y="-7"/>
      <point x="409" y="-7" type="curve" smooth="yes"/>
      <point x="358" y="-7"/>
      <point x="314" y="4"/>
      <point x="276" y="26" type="curve" smooth="no"/>
      <point x="254" y="65"/>
      <point x="243" y="110"/>
      <point x="243" y="161" type="curve" smooth="yes"/>
      <point x="243" y="267"/>
      <point x="302" y="313"/>
      <point x="409" y="313" type="curve" smooth="yes"/>
      <point x="511" y="313"/>
      <point x="560" y="264"/>
    </contour>
    <contour>
      <point x="491" y="464" type="line" smooth="no"/>
      <point x="297" y="464" type="line" smooth="no"/>
      <point x="228" y="1607" type="line" smooth="no"/>
      <point x="557" y="1607" type="line" smooth="no"/>
    </contour>
  </outline>
</glyph>
<glyph name="numbersign" format="1">
  <advance width="1278"/>
  <unicode hex="0023"/>
  <outline>
    <contour>
      <point x="749" y="633" type="line" smooth="no"/>
      <point x="778" y="874" type="line" smooth="no"/>
      <point x="584" y="874" type="line" smooth="no"/>
      <point x="553" y="633" type="line" smooth="no"/>
    </contour>
    <contour>
      <point x="537" y="490" type="line" smooth="no"/>
      <point x="484" y="118" type="line" smooth="no"/>
      <point x="287" y="118" type="line" smooth="no"/>
      <point x="340" y="490" type="line" smooth="no"/>
      <point x="174" y="490" type="line" smooth="no"/>
      <point x="174" y="633" type="line" smooth="no"/>
      <point x="354" y="633" type="line" smooth="no"/>
      <point x="384" y="874" type="line" smooth="no"/>
      <point x="185" y="874" type="line" smooth="no"/>
      <point x="185" y="1019" type="line" smooth="no"/>
      <point x="403" y="1019" type="line" smooth="no"/>
      <point x="452" y="1395" type="line" smooth="no"/>
      <point x="646" y="1395" type="line" smooth="no"/>
      <point x="599" y="1019" type="line" smooth="no"/>
      <point x="801" y="1019" type="line" smooth="no"/>
      <point x="845" y="1395" type="line" smooth="no"/>
      <point x="1043" y="1395" type="line" smooth="no"/>
      <point x="996" y="1019" type="line" smooth="no"/>
      <point x="1155" y="1019" type="line" smooth="no"/>
      <point x="1155" y="874" type="line" smooth="no"/>
      <point x="979" y="874" type="line" smooth="no"/>
      <point x="948" y="633" type="line" smooth="no"/>
      <point x="1146" y="633" type="line" smooth="no"/>
      <point x="1146" y="490" type="line" smooth="no"/>
      <point x="931" y="490" type="line" smooth="no"/>
      <point x="881" y="118" type="line" smooth="no"/>
      <point x="684" y="118" type="line" smooth="no"/>
      <point x="736" y="490" type="line" smooth="no"/>
    </contour>
  </outline>
</glyph>
<glyph name="dollar" format="1">
  <advance width="1306"/>
  <unicode hex="0024"/>
  <outline>
    <contour>
      <point x="713" y="209" type="line" smooth="no"/>
      <point x="820" y="222"/>
      <point x="908" y="286"/>
      <point x="908" y="402" type="curve" smooth="yes"/>
      <point x="908" y="535"/>
      <point x="810" y="570"/>
      <point x="713" y="609" type="curve" smooth="no"/>
    </contour>
    <contour>
      <point x="604" y="1256" type="line" smooth="no"/>
      <point x="468" y="1254"/>
      <point x="372" y="1222"/>
      <point x="372" y="1096" type="curve" smooth="yes"/>
      <point x="372" y="983"/>
      <point x="510" y="953"/>
      <point x="604" y="921" type="curve" smooth="no"/>
    </contour>
    <contour>
      <point x="100" y="1093" type="curve" smooth="yes"/>
      <point x="100" y="1391"/>
      <point x="315" y="1476"/>
      <point x="604" y="1484" type="curve" smooth="no"/>
      <point x="604" y="1614" type="line" smooth="no"/>
      <point x="713" y="1614" type="line" smooth="no"/>
      <point x="713" y="1479" type="line" smooth="no"/>
      <point x="861" y="1470"/>
      <point x="1016" y="1440"/>
      <point x="1118" y="1384" type="curve" smooth="no"/>
      <point x="1050" y="1175" type="line" smooth="no"/>
      <point x="1011" y="1189"/>
      <point x="971" y="1202"/>
      <point x="932" y="1214" type="curve" smooth="no"/>
      <point x="871" y="1231"/>
      <point x="786" y="1253"/>
      <point x="713" y="1253" type="curve" smooth="no"/>
      <point x="713" y="884" type="line" smooth="no"/>
      <point x="932" y="803"/>
      <point x="1183" y="715"/>
      <point x="1183" y="436" type="curve" smooth="yes"/>
      <point x="1183" y="133"/>
      <point x="995" y="-7"/>
      <point x="713" y="-28" type="curve" smooth="no"/>
      <point x="713" y="-162" type="line" smooth="no"/>
      <point x="604" y="-162" type="line" smooth="no"/>
      <point x="604" y="-30" type="line" smooth="no"/>
      <point x="424" y="-30"/>
      <point x="280" y="31"/>
      <point x="147" y="86" type="curve" smooth="no"/>
      <point x="207" y="307" type="line" smooth="no"/>
      <point x="317" y="258"/>
      <point x="453" y="200"/>
      <point x="604" y="200" type="curve" smooth="no"/>
      <point x="604" y="648" type="line" smooth="no"/>
      <point x="378" y="731"/>
      <point x="100" y="797"/>
    </contour>
  </outline>
</glyph>
<glyph name="ampersand" format="1">
  <advance width="1740"/>
  <unicode hex="0026"/>
  <outline>
    <contour>
      <point x="675" y="728" type="line" smooth="no"/>
      <point x="534" y="694"/>
      <point x="416" y="624"/>
      <point x="416" y="451" type="curve" smooth="yes"/>
      <point x="416" y="251"/>
      <point x="560" y="180"/>
      <point x="780" y="180" type="curve" smooth="yes"/>
      <point x="942" y="180"/>
      <point x="1128" y="204"/>
      <point x="1186" y="302" type="curve" smooth="no"/>
    </contour>
    <contour>
      <point x="1364" y="159" type="line" smooth="no"/>
      <point x="1260" y="12"/>
      <point x="1049" y="-40"/>
      <point x="780" y="-40" type="curve" smooth="yes"/>
      <point x="429" y="-40"/>
      <point x="150" y="79"/>
      <point x="150" y="427" type="curve" smooth="yes"/>
      <point x="150" y="695"/>
      <point x="312" y="809"/>
      <point x="507" y="883" type="curve" smooth="no"/>
      <point x="410" y="943"/>
      <point x="295" y="1073"/>
      <point x="295" y="1229" type="curve" smooth="yes"/>
      <point x="295" y="1467"/>
      <point x="507" y="1574"/>
      <point x="749" y="1574" type="curve" smooth="yes"/>
      <point x="988" y="1574"/>
      <point x="1192" y="1467"/>
      <point x="1192" y="1233" type="curve" smooth="yes"/>
      <point x="1192" y="1006"/>
      <point x="1057" y="886"/>
      <point x="873" y="823" type="curve" smooth="no"/>
      <point x="1270" y="495" type="line" smooth="no"/>
      <point x="1275" y="573"/>
      <point x="1276" y="670"/>
      <point x="1276" y="753" type="curve" smooth="yes"/>
      <point x="1276" y="794"/>
      <point x="1275" y="840"/>
      <point x="1275" y="875" type="curve" smooth="no"/>
      <point x="1518" y="875" type="line" smooth="no"/>
      <point x="1518" y="714"/>
      <point x="1504" y="543"/>
      <point x="1480" y="400" type="curve" smooth="no"/>
      <point x="1467" y="332" type="line" smooth="no"/>
      <point x="1721" y="118" type="line" smooth="no"/>
      <point x="1596" y="-36" type="line" smooth="no"/>
    </contour>
    <contour>
      <point x="710" y="982" type="curve" smooth="no"/>
      <point x="822" y="1013"/>
      <point x="966" y="1069"/>
      <point x="966" y="1211" type="curve" smooth="yes"/>
      <point x="966" y="1331"/>
      <point x="879" y="1381"/>
      <point x="755" y="1381" type="curve" smooth="yes"/>
      <point x="616" y="1381"/>
      <point x="546" y="1325"/>
      <point x="546" y="1214" type="curve" smooth="yes"/>
      <point x="546" y="1105"/>
      <point x="637" y="1022"/>
    </contour>
  </outline>
</glyph>
<glyph name="quotesingle" format="1">
  <advance width="625"/>
  <unicode hex="0027"/>
  <outline>
    <contour>
      <point x="489" y="1607" type="line" smooth="no"/>
      <point x="463" y="1372"/>
      <point x="423" y="1150"/>
      <point x="391" y="920" type="curve" smooth="no"/>
      <point x="212" y="920" type="line" smooth="no"/>
      <point x="144" y="1498" type="line" smooth="no"/>
      <point x="136" y="1607" type="line" smooth="no"/>
    </contour>
  </outline>
</glyph>
<glyph name="zero" format="1">
  <advance width="1443"/>
  <unicode hex="0030"/>
  <outline>
    <contour>
      <point x="409" y="603" type="curve" smooth="yes"/>
      <point x="409" y="369"/>
      <point x="484" y="189"/>
      <point x="719" y="189" type="curve" smooth="yes"/>
      <point x="955" y="189"/>
      <point x="1035" y="372"/>
      <point x="1035" y="609" type="curve" smooth="yes"/>
      <point x="1035" y="837"/>
      <point x="949" y="1012"/>
      <point x="719" y="1012" type="curve" smooth="yes"/>
      <point x="489" y="1012"/>
      <point x="409" y="833"/>
    </contour>
    <contour>
      <point x="131" y="602" type="curve" smooth="yes"/>
      <point x="131" y="986"/>
      <point x="332" y="1229"/>
      <point x="718" y="1229" type="curve" smooth="yes"/>
      <point x="1104" y="1229"/>
      <point x="1310" y="984"/>
      <point x="1310" y="602" type="curve" smooth="yes"/>
      <point x="1310" y="217"/>
      <point x="1104" y="-29"/>
      <point x="717" y="-29" type="curve" smooth="yes"/>
      <point x="335" y="-29"/>
      <point x="131" y="219"/>
    </contour>
  </outline>
</glyph>
<glyph name="three" format="1">
  <advance width="1183"/>
  <unicode hex="0033"/>
  <outline>
    <contour>
      <point x="438" y="660" type="line" smooth="no"/>
      <point x="587" y="660"/>
      <point x="733" y="702"/>
      <point x="733" y="850" type="curve" smooth="yes"/>
      <point x="733" y="969"/>
      <point x="641" y="1006"/>
      <point x="515" y="1006" type="curve" smooth="yes"/>
      <point x="401" y="1006"/>
      <point x="305" y="955"/>
      <point x="220" y="934" type="curve" smooth="no"/>
      <point x="132" y="1130" type="line" smooth="no"/>
      <point x="227" y="1177"/>
      <point x="356" y="1225"/>
      <point x="502" y="1225" type="curve" smooth="yes"/>
      <point x="777" y="1225"/>
      <point x="990" y="1128"/>
      <point x="990" y="852" type="curve" smooth="yes"/>
      <point x="990" y="693"/>
      <point x="886" y="578"/>
      <point x="751" y="556" type="curve" smooth="no"/>
      <point x="901" y="519"/>
      <point x="1028" y="403"/>
      <point x="1028" y="214" type="curve" smooth="yes"/>
      <point x="1028" y="-67"/>
      <point x="803" y="-188"/>
      <point x="521" y="-188" type="curve" smooth="yes"/>
      <point x="369" y="-188"/>
      <point x="228" y="-157"/>
      <point x="128" y="-107" type="curve" smooth="no"/>
      <point x="201" y="101" type="line" smooth="no"/>
      <point x="279" y="62"/>
      <point x="398" y="27"/>
      <point x="516" y="27" type="curve" smooth="yes"/>
      <point x="666" y="27"/>
      <point x="756" y="77"/>
      <point x="756" y="221" type="curve" smooth="yes"/>
      <point x="756" y="386"/>
      <point x="597" y="442"/>
      <point x="438" y="451" type="curve" smooth="no"/>
    </contour>
  </outline>
</glyph>
<glyph name="five" format="1">
  <advance width="1168"/>
  <unicode hex="0035"/>
  <outline>
    <contour>
      <point x="1053" y="269" type="curve" smooth="yes"/>
      <point x="1053" y="-28"/>
      <point x="845" y="-196"/>
      <point x="547" y="-196" type="curve" smooth="yes"/>
      <point x="387" y="-196"/>
      <point x="248" y="-154"/>
      <point x="136" y="-102" type="curve" smooth="no"/>
      <point x="182" y="112" type="line" smooth="no"/>
      <point x="275" y="67"/>
      <point x="398" y="31"/>
      <point x="534" y="31" type="curve" smooth="yes"/>
      <point x="704" y="31"/>
      <point x="800" y="103"/>
      <point x="800" y="270" type="curve" smooth="yes"/>
      <point x="800" y="438"/>
      <point x="722" y="532"/>
      <point x="557" y="532" type="curve" smooth="yes"/>
      <point x="454" y="532"/>
      <point x="370" y="491"/>
      <point x="295" y="446" type="curve" smooth="no"/>
      <point x="169" y="554" type="line" smooth="no"/>
      <point x="169" y="1190" type="line" smooth="no"/>
      <point x="966" y="1190" type="line" smooth="no"/>
      <point x="966" y="978" type="line" smooth="no"/>
      <point x="401" y="978" type="line" smooth="no"/>
      <point x="401" y="681" type="line" smooth="no"/>
      <point x="445" y="713"/>
      <point x="505" y="737"/>
      <point x="585" y="737" type="curve" smooth="yes"/>
      <point x="878" y="737"/>
      <point x="1053" y="562"/>
    </contour>
  </outline>
</glyph>
<glyph name="six" format="1">
  <advance width="1258"/>
  <unicode hex="0036"/>
  <outline>
    <contour>
      <point x="677" y="857" type="curve" smooth="yes"/>
      <point x="968" y="857"/>
      <point x="1166" y="662"/>
      <point x="1166" y="373" type="curve" smooth="yes"/>
      <point x="1166" y="65"/>
      <point x="966" y="-124"/>
      <point x="656" y="-124" type="curve" smooth="yes"/>
      <point x="308" y="-124"/>
      <point x="113" y="105"/>
      <point x="113" y="452" type="curve" smooth="yes"/>
      <point x="113" y="984"/>
      <point x="454" y="1259"/>
      <point x="877" y="1367" type="curve" smooth="no"/>
      <point x="944" y="1146" type="line" smooth="no"/>
      <point x="722" y="1100"/>
      <point x="538" y="992"/>
      <point x="457" y="804" type="curve" smooth="no"/>
      <point x="520" y="833"/>
      <point x="588" y="857"/>
    </contour>
    <contour>
      <point x="901" y="402" type="curve" smooth="yes"/>
      <point x="901" y="555"/>
      <point x="825" y="647"/>
      <point x="673" y="647" type="curve" smooth="yes"/>
      <point x="551" y="647"/>
      <point x="450" y="596"/>
      <point x="388" y="534" type="curve" smooth="no"/>
      <point x="386" y="505"/>
      <point x="386" y="476"/>
      <point x="386" y="443" type="curve" smooth="yes"/>
      <point x="389" y="244"/>
      <point x="452" y="93"/>
      <point x="655" y="93" type="curve" smooth="yes"/>
      <point x="832" y="93"/>
      <point x="901" y="227"/>
    </contour>
  </outline>
</glyph>
<glyph name="seven" format="1">
  <advance width="1149"/>
  <unicode hex="0037"/>
  <outline>
    <contour>
      <point x="1089" y="1054" type="line" smooth="no"/>
      <point x="497" y="-216" type="line" smooth="no"/>
      <point x="246" y="-104" type="line" smooth="no"/>
      <point x="758" y="992" type="line" smooth="no"/>
      <point x="138" y="992" type="line" smooth="no"/>
      <point x="138" y="1214" type="line" smooth="no"/>
      <point x="1015" y="1214" type="line" smooth="no"/>
    </contour>
  </outline>
</glyph>
<glyph name="eight" format="1">
  <advance width="1312"/>
  <unicode hex="0038"/>
  <outline>
    <contour>
      <point x="659" y="743" type="curve" smooth="yes"/>
      <point x="795" y="743"/>
      <point x="882" y="820"/>
      <point x="882" y="956" type="curve" smooth="yes"/>
      <point x="882" y="1089"/>
      <point x="792" y="1140"/>
      <point x="659" y="1140" type="curve" smooth="yes"/>
      <point x="525" y="1140"/>
      <point x="430" y="1090"/>
      <point x="430" y="956" type="curve" smooth="yes"/>
      <point x="430" y="818"/>
      <point x="521" y="743"/>
    </contour>
    <contour>
      <point x="659" y="81" type="curve" smooth="yes"/>
      <point x="812" y="81"/>
      <point x="892" y="133"/>
      <point x="892" y="285" type="curve" smooth="yes"/>
      <point x="892" y="437"/>
      <point x="810" y="545"/>
      <point x="659" y="545" type="curve" smooth="yes"/>
      <point x="506" y="545"/>
      <point x="419" y="439"/>
      <point x="419" y="286" type="curve" smooth="yes"/>
      <point x="419" y="134"/>
      <point x="500" y="81"/>
    </contour>
    <contour>
      <point x="659" y="1351" type="curve" smooth="yes"/>
      <point x="927" y="1351"/>
      <point x="1146" y="1230"/>
      <point x="1146" y="965" type="curve" smooth="yes"/>
      <point x="1146" y="782"/>
      <point x="1028" y="667"/>
      <point x="879" y="632" type="curve" smooth="no"/>
      <point x="1045" y="596"/>
      <point x="1163" y="464"/>
      <point x="1163" y="262" type="curve" smooth="yes"/>
      <point x="1163" y="-18"/>
      <point x="939" y="-138"/>
      <point x="659" y="-138" type="curve" smooth="yes"/>
      <point x="377" y="-138"/>
      <point x="149" y="-18"/>
      <point x="149" y="264" type="curve" smooth="yes"/>
      <point x="149" y="463"/>
      <point x="267" y="599"/>
      <point x="433" y="632" type="curve" smooth="no"/>
      <point x="285" y="668"/>
      <point x="166" y="782"/>
      <point x="166" y="966" type="curve" smooth="yes"/>
      <point x="166" y="1232"/>
      <point x="391" y="1351"/>
    </contour>
  </outline>
</glyph>
<glyph name="nine" format="1">
  <advance width="1285"/>
  <unicode hex="0039"/>
  <outline>
    <contour>
      <point x="829" y="355" type="curve" smooth="no"/>
      <point x="774" y="321"/>
      <point x="696" y="297"/>
      <point x="607" y="297" type="curve" smooth="yes"/>
      <point x="309" y="297"/>
      <point x="118" y="468"/>
      <point x="118" y="765" type="curve" smooth="yes"/>
      <point x="118" y="1065"/>
      <point x="317" y="1260"/>
      <point x="620" y="1260" type="curve" smooth="yes"/>
      <point x="978" y="1260"/>
      <point x="1172" y="1043"/>
      <point x="1172" y="684" type="curve" smooth="yes"/>
      <point x="1172" y="170"/>
      <point x="823" y="-137"/>
      <point x="406" y="-231" type="curve" smooth="no"/>
      <point x="341" y="-9" type="line" smooth="no"/>
      <point x="565" y="37"/>
      <point x="756" y="158"/>
    </contour>
    <contour>
      <point x="634" y="1042" type="curve" smooth="yes"/>
      <point x="454" y="1042"/>
      <point x="384" y="930"/>
      <point x="384" y="752" type="curve" smooth="yes"/>
      <point x="384" y="607"/>
      <point x="461" y="505"/>
      <point x="605" y="505" type="curve" smooth="yes"/>
      <point x="699" y="505"/>
      <point x="834" y="527"/>
      <point x="891" y="569" type="curve" smooth="no"/>
      <point x="895" y="612"/>
      <point x="900" y="656"/>
      <point x="902" y="703" type="curve" smooth="no"/>
      <point x="899" y="896"/>
      <point x="832" y="1042"/>
    </contour>
  </outline>
</glyph>
<glyph name="colon" format="1">
  <advance width="701"/>
  <unicode hex="003a"/>
  <outline>
    <contour>
      <point x="190" y="379" type="line" smooth="no"/>
      <point x="556" y="379" type="line" smooth="no"/>
      <point x="556" y="0" type="line" smooth="no"/>
      <point x="190" y="0" type="line" smooth="no"/>
    </contour>
    <contour>
      <point x="190" y="1067" type="line" smooth="no"/>
      <point x="556" y="1067" type="line" smooth="no"/>
      <point x="556" y="688" type="line" smooth="no"/>
      <point x="190" y="688" type="line" smooth="no"/>
    </contour>
  </outline>
</glyph>
<glyph name="semicolon" format="1">
  <advance width="692"/>
  <unicode hex="003b"/>
  <outline>
    <contour>
      <point x="186" y="1067" type="line" smooth="no"/>
      <point x="549" y="1067" type="line" smooth="no"/>
      <point x="549" y="688" type="line" smooth="no"/>
      <point x="186" y="688" type="line" smooth="no"/>
    </contour>
    <contour>
      <point x="188" y="373" type="line" smooth="no"/>
      <point x="550" y="373" type="line" smooth="no"/>
      <point x="550" y="51" type="line" smooth="yes"/>
      <point x="550" y="-161"/>
      <point x="404" y="-243"/>
      <point x="240" y="-291" type="curve" smooth="no"/>
      <point x="189" y="-183" type="line" smooth="no"/>
      <point x="278" y="-151"/>
      <point x="350" y="-117"/>
      <point x="350" y="0" type="curve" smooth="no"/>
      <point x="188" y="0" type="line" smooth="no"/>
    </contour>
  </outline>
</glyph>
<glyph name="less" format="1">
  <advance width="1238"/>
  <unicode hex="003c"/>
  <outline>
    <contour>
      <point x="216" y="739" type="line" smooth="no"/>
      <point x="960" y="1264" type="line" smooth="no"/>
      <point x="1001" y="1015" type="line" smooth="no"/>
      <point x="444" y="632" type="line" smooth="no"/>
      <point x="1001" y="250" type="line" smooth="no"/>
      <point x="960" y="1" type="line" smooth="no"/>
      <point x="179" y="559" type="line" smooth="no"/>
    </contour>
  </outline>
</glyph>
<glyph name="equal" format="1">
  <advance width="1112"/>
  <unicode hex="003d"/>
  <outline>
    <contour>
      <point x="162" y="278" type="line" smooth="no"/>
      <point x="162" y="475" type="line" smooth="no"/>
      <point x="951" y="475" type="line" smooth="no"/>
      <point x="951" y="278" type="line" smooth="no"/>
    </contour>
    <contour>
      <point x="162" y="601" type="line" smooth="no"/>
      <point x="162" y="797" type="line" smooth="no"/>
      <point x="951" y="797" type="line" smooth="no"/>
      <point x="951" y="601" type="line" smooth="no"/>
    </contour>
  </outline>
</glyph>
<glyph name="greater" format="1">
  <advance width="1217"/>
  <unicode hex="003e"/>
  <outline>
    <contour>
      <point x="289" y="1" type="line" smooth="no"/>
      <point x="248" y="256" type="line" smooth="no"/>
      <point x="800" y="632" type="line" smooth="no"/>
      <point x="247" y="1009" type="line" smooth="no"/>
      <point x="288" y="1264" type="line" smooth="no"/>
      <point x="1026" y="745" type="line" smooth="no"/>
      <point x="1070" y="559" type="line" smooth="no"/>
    </contour>
  </outline>
</glyph>
<glyph name="question" format="1">
  <advance width="1148"/>
  <unicode hex="003f"/>
  <outline>
    <contour>
      <point x="369" y="-43" type="curve" smooth="no"/>
      <point x="299" y="-13"/>
      <point x="252" y="66"/>
      <point x="252" y="165" type="curve" smooth="no"/>
      <point x="280" y="234"/>
      <point x="353" y="285"/>
      <point x="449" y="285" type="curve" smooth="no"/>
      <point x="518" y="255"/>
      <point x="566" y="176"/>
      <point x="566" y="77" type="curve" smooth="no"/>
      <point x="539" y="8"/>
      <point x="465" y="-43"/>
    </contour>
    <contour>
      <point x="264" y="823" type="line" smooth="no"/>
      <point x="445" y="883"/>
      <point x="758" y="952"/>
      <point x="758" y="1178" type="curve" smooth="yes"/>
      <point x="758" y="1330"/>
      <point x="638" y="1359"/>
      <point x="486" y="1359" type="curve" smooth="yes"/>
      <point x="428" y="1359"/>
      <point x="140" y="1313"/>
      <point x="140" y="1280" type="curve" smooth="no"/>
      <point x="65" y="1495" type="line" smooth="no"/>
      <point x="180" y="1553"/>
      <point x="330" y="1593"/>
      <point x="505" y="1593" type="curve" smooth="yes"/>
      <point x="799" y="1593"/>
      <point x="1043" y="1492"/>
      <point x="1043" y="1199" type="curve" smooth="yes"/>
      <point x="1043" y="899"/>
      <point x="779" y="760"/>
      <point x="534" y="686" type="curve" smooth="no"/>
      <point x="534" y="378" type="line" smooth="no"/>
      <point x="264" y="378" type="line" smooth="no"/>
    </contour>
  </outline>
</glyph>
<glyph name="A" format="1">
  <advance width="1513"/>
  <unicode hex="0041"/>
  <outline>
    <contour>
      <point x="937" y="1607" type="line" smooth="no"/>
      <point x="1469" y="0" type="line" smooth="no"/>
      <point x="1162" y="0" type="line" smooth="no"/>
      <point x="1044" y="369" type="line" smooth="no"/>
      <point x="468" y="369" type="line" smooth="no"/>
      <point x="351" y="0" type="line" smooth="no"/>
      <point x="43" y="0" type="line" smooth="no"/>
      <point x="571" y="1607" type="line" smooth="no"/>
    </contour>
    <contour>
      <point x="509" y="516" type="line" smooth="no"/>
      <point x="1004" y="516" type="line" smooth="no"/>
      <point x="760" y="1285" type="line" smooth="no"/>
    </contour>
  </outline>
</glyph>
<glyph name="B" format="1">
  <advance width="1441"/>
  <unicode hex="0042"/>
  <outline>
    <contour>
      <point x="1358" y="453" type="curve" smooth="yes"/>
      <point x="1358" y="68"/>
      <point x="1044" y="0"/>
      <point x="656" y="0" type="curve" smooth="yes"/>
      <point x="156" y="0" type="line" smooth="no"/>
      <point x="156" y="1607" type="line" smooth="no"/>
      <point x="558" y="1607" type="line" smooth="yes"/>
      <point x="917" y="1607"/>
      <point x="1291" y="1557"/>
      <point x="1291" y="1205" type="curve" smooth="yes"/>
      <point x="1291" y="981"/>
      <point x="1149" y="883"/>
      <point x="949" y="859" type="curve" smooth="no"/>
      <point x="1192" y="827"/>
      <point x="1358" y="729"/>
    </contour>
    <contour>
      <point x="1060" y="470" type="curve" smooth="yes"/>
      <point x="1060" y="710"/>
      <point x="894" y="749"/>
      <point x="651" y="749" type="curve" smooth="yes"/>
      <point x="462" y="749" type="line" smooth="no"/>
      <point x="462" y="202" type="line" smooth="no"/>
      <point x="625" y="202" type="line" smooth="yes"/>
      <point x="878" y="202"/>
      <point x="1060" y="220"/>
    </contour>
    <contour>
      <point x="1023" y="1186" type="curve" smooth="yes"/>
      <point x="1023" y="1387"/>
      <point x="826" y="1405"/>
      <point x="617" y="1405" type="curve" smooth="yes"/>
      <point x="462" y="1405" type="line" smooth="no"/>
      <point x="462" y="940" type="line" smooth="no"/>
      <point x="651" y="940" type="line" smooth="yes"/>
      <point x="862" y="940"/>
      <point x="1023" y="980"/>
    </contour>
  </outline>
</glyph>
<glyph name="C" format="1">
  <advance width="1319"/>
  <unicode hex="0043"/>
  <outline>
    <contour>
      <point x="823" y="1411" type="curve" smooth="yes"/>
      <point x="494" y="1411"/>
      <point x="412" y="1126"/>
      <point x="412" y="790" type="curve" smooth="yes"/>
      <point x="412" y="451"/>
      <point x="509" y="191"/>
      <point x="823" y="191" type="curve" smooth="yes"/>
      <point x="970" y="191"/>
      <point x="1099" y="241"/>
      <point x="1186" y="302" type="curve" smooth="no"/>
      <point x="1270" y="86" type="line" smooth="no"/>
      <point x="1174" y="7"/>
      <point x="978" y="-34"/>
      <point x="801" y="-34" type="curve" smooth="yes"/>
      <point x="315" y="-34"/>
      <point x="105" y="305"/>
      <point x="105" y="796" type="curve" smooth="yes"/>
      <point x="105" y="1279"/>
      <point x="321" y="1636"/>
      <point x="804" y="1636" type="curve" smooth="yes"/>
      <point x="978" y="1636"/>
      <point x="1155" y="1603"/>
      <point x="1259" y="1531" type="curve" smooth="no"/>
      <point x="1179" y="1312" type="line" smooth="no"/>
      <point x="1090" y="1370"/>
      <point x="970" y="1411"/>
    </contour>
  </outline>
</glyph>
<glyph name="D" format="1">
  <advance width="1557"/>
  <unicode hex="0044"/>
  <outline>
    <contour>
      <point x="661" y="202" type="line" smooth="yes"/>
      <point x="1021" y="202"/>
      <point x="1142" y="439"/>
      <point x="1142" y="801" type="curve" smooth="yes"/>
      <point x="1142" y="1173"/>
      <point x="1042" y="1405"/>
      <point x="671" y="1405" type="curve" smooth="yes"/>
      <point x="462" y="1405" type="line" smooth="no"/>
      <point x="462" y="202" type="line" smooth="no"/>
    </contour>
    <contour>
      <point x="676" y="1607" type="line" smooth="yes"/>
      <point x="1204" y="1607"/>
      <point x="1452" y="1337"/>
      <point x="1452" y="801" type="curve" smooth="yes"/>
      <point x="1452" y="281"/>
      <point x="1207" y="0"/>
      <point x="683" y="0" type="curve" smooth="yes"/>
      <point x="157" y="0" type="line" smooth="no"/>
      <point x="157" y="1607" type="line" smooth="no"/>
    </contour>
  </outline>
</glyph>
<glyph name="E" format="1">
  <advance width="1281"/>
  <unicode hex="0045"/>
  <outline>
    <contour>
      <point x="156" y="0" type="line" smooth="no"/>
      <point x="156" y="1607" type="line" smooth="no"/>
      <point x="1205" y="1607" type="line" smooth="no"/>
      <point x="1205" y="1405" type="line" smooth="no"/>
      <point x="461" y="1405" type="line" smooth="no"/>
      <point x="461" y="931" type="line" smooth="no"/>
      <point x="1110" y="931" type="line" smooth="no"/>
      <point x="1110" y="745" type="line" smooth="no"/>
      <point x="461" y="745" type="line" smooth="no"/>
      <point x="461" y="199" type="line" smooth="no"/>
      <point x="1216" y="199" type="line" smooth="no"/>
      <point x="1216" y="0" type="line" smooth="no"/>
    </contour>
  </outline>
</glyph>
<glyph name="G" format="1">
  <advance width="1561"/>
  <unicode hex="0047"/>
  <outline>
    <contour>
      <point x="804" y="191" type="curve" smooth="yes"/>
      <point x="967" y="191"/>
      <point x="1101" y="233"/>
      <point x="1150" y="347" type="curve" smooth="no"/>
      <point x="1150" y="679" type="line" smooth="no"/>
      <point x="764" y="679" type="line" smooth="no"/>
      <point x="764" y="867" type="line" smooth="no"/>
      <point x="1420" y="867" type="line" smooth="no"/>
      <point x="1420" y="0" type="line" smooth="no"/>
      <point x="1238" y="0" type="line" smooth="no"/>
      <point x="1187" y="163" type="line" smooth="no"/>
      <point x="1134" y="25"/>
      <point x="970" y="-34"/>
      <point x="777" y="-34" type="curve" smooth="yes"/>
      <point x="307" y="-34"/>
      <point x="105" y="314"/>
      <point x="105" y="790" type="curve" smooth="yes"/>
      <point x="105" y="1302"/>
      <point x="342" y="1636"/>
      <point x="850" y="1636" type="curve" smooth="yes"/>
      <point x="1051" y="1636"/>
      <point x="1209" y="1587"/>
      <point x="1325" y="1504" type="curve" smooth="no"/>
      <point x="1233" y="1298" type="line" smooth="no"/>
      <point x="1131" y="1357"/>
      <point x="1008" y="1411"/>
      <point x="850" y="1411" type="curve" smooth="yes"/>
      <point x="527" y="1411"/>
      <point x="413" y="1145"/>
      <point x="413" y="791" type="curve" smooth="yes"/>
      <point x="413" y="475"/>
      <point x="493" y="191"/>
    </contour>
  </outline>
</glyph>
<glyph name="H" format="1">
  <advance width="1601"/>
  <unicode hex="0048"/>
  <outline>
    <contour>
      <point x="1139" y="741" type="line" smooth="no"/>
      <point x="462" y="741" type="line" smooth="no"/>
      <point x="462" y="0" type="line" smooth="no"/>
      <point x="156" y="0" type="line" smooth="no"/>
      <point x="156" y="1607" type="line" smooth="no"/>
      <point x="462" y="1607" type="line" smooth="no"/>
      <point x="462" y="926" type="line" smooth="no"/>
      <point x="1139" y="926" type="line" smooth="no"/>
      <point x="1139" y="1607" type="line" smooth="no"/>
      <point x="1444" y="1607" type="line" smooth="no"/>
      <point x="1444" y="0" type="line" smooth="no"/>
      <point x="1139" y="0" type="line" smooth="no"/>
    </contour>
  </outline>
</glyph>
<glyph name="I" format="1">
  <advance width="846"/>
  <unicode hex="0049"/>
  <outline>
    <contour>
      <point x="273" y="150" type="line" smooth="no"/>
      <point x="273" y="1454" type="line" smooth="no"/>
      <point x="87" y="1454" type="line" smooth="no"/>
      <point x="87" y="1607" type="line" smooth="no"/>
      <point x="763" y="1607" type="line" smooth="no"/>
      <point x="763" y="1454" type="line" smooth="no"/>
      <point x="574" y="1454" type="line" smooth="no"/>
      <point x="574" y="150" type="line" smooth="no"/>
      <point x="763" y="150" type="line" smooth="no"/>
      <point x="763" y="0" type="line" smooth="no"/>
      <point x="87" y="0" type="line" smooth="no"/>
      <point x="87" y="150" type="line" smooth="no"/>
    </contour>
  </outline>
</glyph>
<glyph name="J" format="1">
  <advance width="826"/>
  <unicode hex="004a"/>
  <outline>
    <contour>
      <point x="39" y="109" type="line" smooth="no"/>
      <point x="278" y="147"/>
      <point x="365" y="228"/>
      <point x="365" y="504" type="curve" smooth="yes"/>
      <point x="365" y="1607" type="line" smooth="no"/>
      <point x="670" y="1607" type="line" smooth="no"/>
      <point x="670" y="519" type="line" smooth="yes"/>
      <point x="670" y="113"/>
      <point x="506" y="-69"/>
      <point x="117" y="-89" type="curve" smooth="no"/>
    </contour>
  </outline>
</glyph>
<glyph name="M" format="1">
  <advance width="1987"/>
  <unicode hex="004d"/>
  <outline>
    <contour>
      <point x="423" y="1254" type="line" smooth="no"/>
      <point x="423" y="0" type="line" smooth="no"/>
      <point x="156" y="0" type="line" smooth="no"/>
      <point x="156" y="1607" type="line" smooth="no"/>
      <point x="557" y="1607" type="line" smooth="no"/>
      <point x="989" y="335" type="line" smooth="no"/>
      <point x="1430" y="1607" type="line" smooth="no"/>
      <point x="1831" y="1607" type="line" smooth="no"/>
      <point x="1831" y="0" type="line" smooth="no"/>
      <point x="1564" y="0" type="line" smooth="no"/>
      <point x="1564" y="1254" type="line" smooth="no"/>
      <point x="1140" y="0" type="line" smooth="no"/>
      <point x="849" y="0" type="line" smooth="no"/>
    </contour>
  </outline>
</glyph>
<glyph name="N" format="1">
  <advance width="1651"/>
  <unicode hex="004e"/>
  <outline>
    <contour>
      <point x="1160" y="0" type="line" smooth="no"/>
      <point x="436" y="1225" type="line" smooth="no"/>
      <point x="436" y="0" type="line" smooth="no"/>
      <point x="156" y="0" type="line" smooth="no"/>
      <point x="156" y="1607" type="line" smooth="no"/>
      <point x="504" y="1607" type="line" smooth="no"/>
      <point x="1215" y="395" type="line" smooth="no"/>
      <point x="1215" y="1607" type="line" smooth="no"/>
      <point x="1495" y="1607" type="line" smooth="no"/>
      <point x="1495" y="0" type="line" smooth="no"/>
    </contour>
  </outline>
</glyph>
<glyph name="P" format="1">
  <advance width="1391"/>
  <unicode hex="0050"/>
  <outline>
    <contour>
      <point x="598" y="1607" type="line" smooth="yes"/>
      <point x="1013" y="1607"/>
      <point x="1333" y="1506"/>
      <point x="1337" y="1095" type="curve" smooth="no"/>
      <point x="1337" y="677"/>
      <point x="993" y="597"/>
      <point x="568" y="597" type="curve" smooth="yes"/>
      <point x="462" y="597" type="line" smooth="no"/>
      <point x="462" y="0" type="line" smooth="no"/>
      <point x="156" y="0" type="line" smooth="no"/>
      <point x="156" y="1607" type="line" smooth="no"/>
    </contour>
    <contour>
      <point x="1030" y="1083" type="curve" smooth="yes"/>
      <point x="1030" y="1349"/>
      <point x="861" y="1405"/>
      <point x="596" y="1405" type="curve" smooth="yes"/>
      <point x="462" y="1405" type="line" smooth="no"/>
      <point x="462" y="791" type="line" smooth="no"/>
      <point x="559" y="791" type="line" smooth="yes"/>
      <point x="812" y="791"/>
      <point x="1030" y="834"/>
    </contour>
  </outline>
</glyph>
<glyph name="Q" format="1">
  <advance width="1618"/>
  <unicode hex="0051"/>
  <outline>
    <contour>
      <point x="803" y="1636" type="curve" smooth="yes"/>
      <point x="1305" y="1636"/>
      <point x="1513" y="1303"/>
      <point x="1513" y="797" type="curve" smooth="yes"/>
      <point x="1513" y="358"/>
      <point x="1350" y="49"/>
      <point x="979" y="-18" type="curve" smooth="no"/>
      <point x="1309" y="-262" type="line" smooth="no"/>
      <point x="1154" y="-429" type="line" smooth="no"/>
      <point x="675" y="-24" type="line" smooth="no"/>
      <point x="274" y="29"/>
      <point x="105" y="354"/>
      <point x="105" y="805" type="curve" smooth="yes"/>
      <point x="105" y="1294"/>
      <point x="315" y="1636"/>
    </contour>
    <contour>
      <point x="1205" y="801" type="curve" smooth="yes"/>
      <point x="1205" y="1122"/>
      <point x="1129" y="1411"/>
      <point x="809" y="1411" type="curve" smooth="yes"/>
      <point x="488" y="1411"/>
      <point x="413" y="1125"/>
      <point x="413" y="801" type="curve" smooth="yes"/>
      <point x="413" y="476"/>
      <point x="487" y="191"/>
      <point x="809" y="191" type="curve" smooth="yes"/>
      <point x="1130" y="191"/>
      <point x="1205" y="480"/>
    </contour>
  </outline>
</glyph>
<glyph name="S" format="1">
  <advance width="1325"/>
  <unicode hex="0053"/>
  <outline>
    <contour>
      <point x="686" y="1411" type="curve" smooth="yes"/>
      <point x="522" y="1411"/>
      <point x="372" y="1381"/>
      <point x="372" y="1218" type="curve" smooth="yes"/>
      <point x="372" y="1117"/>
      <point x="445" y="1075"/>
      <point x="524" y="1047" type="curve" smooth="no"/>
      <point x="869" y="915" type="line" smooth="yes"/>
      <point x="1067" y="839"/>
      <point x="1246" y="714"/>
      <point x="1246" y="443" type="curve" smooth="yes"/>
      <point x="1246" y="106"/>
      <point x="1003" y="-34"/>
      <point x="658" y="-34" type="curve" smooth="yes"/>
      <point x="443" y="-34"/>
      <point x="268" y="28"/>
      <point x="127" y="104" type="curve" smooth="no"/>
      <point x="182" y="323" type="line" smooth="no"/>
      <point x="273.593" y="279.764"/>
      <point x="511.151" y="191.216"/>
      <point x="698.952" y="191.216" type="curve" smooth="yes"/>
      <point x="841.262" y="191.216"/>
      <point x="955" y="242.062"/>
      <point x="955" y="402" type="curve" smooth="yes"/>
      <point x="955" y="535"/>
      <point x="875" y="597"/>
      <point x="767" y="637" type="curve" smooth="no"/>
      <point x="413" y="778" type="line" smooth="no"/>
      <point x="242" y="845"/>
      <point x="85" y="962"/>
      <point x="85" y="1196" type="curve" smooth="yes"/>
      <point x="85" y="1504"/>
      <point x="342" y="1636"/>
      <point x="650" y="1636" type="curve" smooth="yes"/>
      <point x="861" y="1636"/>
      <point x="1045" y="1580"/>
      <point x="1175" y="1503" type="curve" smooth="no"/>
      <point x="1111" y="1295" type="line" smooth="no"/>
      <point x="1009" y="1356"/>
      <point x="848" y="1411"/>
    </contour>
  </outline>
</glyph>
<glyph name="T" format="1">
  <advance width="1214"/>
  <unicode hex="0054"/>
  <outline>
    <contour>
      <point x="761" y="1405" type="line" smooth="no"/>
      <point x="761" y="0" type="line" smooth="no"/>
      <point x="455" y="0" type="line" smooth="no"/>
      <point x="455" y="1405" type="line" smooth="no"/>
      <point x="19" y="1405" type="line" smooth="no"/>
      <point x="19" y="1607" type="line" smooth="no"/>
      <point x="1191" y="1607" type="line" smooth="no"/>
      <point x="1191" y="1405" type="line" smooth="no"/>
    </contour>
  </outline>
</glyph>
<glyph name="U" format="1">
  <advance width="1589"/>
  <unicode hex="0055"/>
  <outline>
    <contour>
      <point x="446" y="729" type="line" smooth="yes"/>
      <point x="446" y="417"/>
      <point x="483" y="191"/>
      <point x="793" y="191" type="curve" smooth="yes"/>
      <point x="1109" y="191"/>
      <point x="1140" y="412"/>
      <point x="1140" y="729" type="curve" smooth="yes"/>
      <point x="1140" y="1607" type="line" smooth="no"/>
      <point x="1446" y="1607" type="line" smooth="no"/>
      <point x="1446" y="733" type="line" smooth="yes"/>
      <point x="1446" y="253"/>
      <point x="1275" y="-34"/>
      <point x="797" y="-34" type="curve" smooth="yes"/>
      <point x="312" y="-34"/>
      <point x="140" y="248"/>
      <point x="140" y="733" type="curve" smooth="yes"/>
      <point x="140" y="1607" type="line" smooth="no"/>
      <point x="446" y="1607" type="line" smooth="no"/>
    </contour>
  </outline>
</glyph>
<glyph name="V" format="1">
  <advance width="1413"/>
  <unicode hex="0056"/>
  <outline>
    <contour>
      <point x="709" y="383" type="line" smooth="no"/>
      <point x="1082" y="1607" type="line" smooth="no"/>
      <point x="1370" y="1607" type="line" smooth="no"/>
      <point x="868" y="0" type="line" smooth="no"/>
      <point x="545" y="0" type="line" smooth="no"/>
      <point x="43" y="1607" type="line" smooth="no"/>
      <point x="329" y="1607" type="line" smooth="no"/>
    </contour>
  </outline>
</glyph>
<glyph name="X" format="1">
  <advance width="1374"/>
  <unicode hex="0058"/>
  <outline>
    <contour>
      <point x="1040" y="1607" type="line" smooth="no"/>
      <point x="1354" y="1607" type="line" smooth="no"/>
      <point x="858" y="805" type="line" smooth="no"/>
      <point x="1355" y="0" type="line" smooth="no"/>
      <point x="1026" y="0" type="line" smooth="no"/>
      <point x="687" y="556" type="line" smooth="no"/>
      <point x="348" y="0" type="line" smooth="no"/>
      <point x="19" y="0" type="line" smooth="no"/>
      <point x="516" y="805" type="line" smooth="no"/>
      <point x="20" y="1607" type="line" smooth="no"/>
      <point x="335" y="1607" type="line" smooth="no"/>
      <point x="687" y="1029" type="line" smooth="no"/>
    </contour>
  </outline>
</glyph>
<glyph name="Z" format="1">
  <advance width="1250"/>
  <unicode hex="005a"/>
  <outline>
    <contour>
      <point x="1174" y="1405" type="line" smooth="no"/>
      <point x="412" y="202" type="line" smooth="no"/>
      <point x="1176" y="202" type="line" smooth="no"/>
      <point x="1176" y="0" type="line" smooth="no"/>
      <point x="78" y="0" type="line" smooth="no"/>
      <point x="78" y="214" type="line" smooth="no"/>
      <point x="843" y="1405" type="line" smooth="no"/>
      <point x="78" y="1405" type="line" smooth="no"/>
      <point x="78" y="1607" type="line" smooth="no"/>
      <point x="1174" y="1607" type="line" smooth="no"/>
    </contour>
  </outline>
</glyph>
<glyph name="bracketleft" format="1">
  <advance width="1137"/>
  <unicode hex="005b"/>
  <outline>
    <contour>
      <point x="978" y="1607" type="line" smooth="no"/>
      <point x="978" y="1405" type="line" smooth="no"/>
      <point x="532" y="1405" type="line" smooth="no"/>
      <point x="532" y="202" type="line" smooth="no"/>
      <point x="978" y="202" type="line" smooth="no"/>
      <point x="978" y="0" type="line" smooth="no"/>
      <point x="249" y="0" type="line" smooth="no"/>
      <point x="249" y="1607" type="line" smooth="no"/>
    </contour>
  </outline>
</glyph>
<glyph name="backslash" format="1">
  <advance width="1142"/>
  <unicode hex="005c"/>
  <outline>
    <contour>
      <point x="1013" y="-70" type="line" smooth="no"/>
      <point x="751" y="-159" type="line" smooth="no"/>
      <point x="149" y="1647" type="line" smooth="no"/>
      <point x="411" y="1733" type="line" smooth="no"/>
    </contour>
  </outline>
</glyph>
<glyph name="bracketright" format="1">
  <advance width="1161"/>
  <unicode hex="005d"/>
  <outline>
    <contour>
      <point x="935" y="1607" type="line" smooth="no"/>
      <point x="935" y="0" type="line" smooth="no"/>
      <point x="206" y="0" type="line" smooth="no"/>
      <point x="206" y="202" type="line" smooth="no"/>
      <point x="651" y="202" type="line" smooth="no"/>
      <point x="651" y="1405" type="line" smooth="no"/>
      <point x="206" y="1405" type="line" smooth="no"/>
      <point x="206" y="1607" type="line" smooth="no"/>
    </contour>
  </outline>
</glyph>
<glyph name="e" format="1">
  <advance width="1203"/>
  <unicode hex="0065"/>
  <outline>
    <contour>
      <point x="693" y="177" type="curve" smooth="yes"/>
      <point x="829" y="177"/>
      <point x="914" y="218"/>
      <point x="997" y="281" type="curve" smooth="no"/>
      <point x="1063" y="84" type="line" smooth="no"/>
      <point x="961" y="23"/>
      <point x="826" y="-24"/>
      <point x="670" y="-24" type="curve" smooth="yes"/>
      <point x="299" y="-24"/>
      <point x="85" y="198"/>
      <point x="85" y="568" type="curve" smooth="yes"/>
      <point x="85" y="944"/>
      <point x="264" y="1215"/>
      <point x="638" y="1215" type="curve" smooth="yes"/>
      <point x="957" y="1215"/>
      <point x="1120" y="1005"/>
      <point x="1120" y="685" type="curve" smooth="yes"/>
      <point x="1120" y="634"/>
      <point x="1119" y="585"/>
      <point x="1117" y="537" type="curve" smooth="no"/>
      <point x="384" y="537" type="line" smooth="no"/>
      <point x="386" y="316"/>
      <point x="482" y="177"/>
    </contour>
    <contour>
      <point x="877" y="704" type="line" smooth="yes"/>
      <point x="877" y="887"/>
      <point x="812" y="1013"/>
      <point x="645" y="1016" type="curve" smooth="no"/>
      <point x="466" y="1010"/>
      <point x="391" y="867"/>
      <point x="383" y="690" type="curve" smooth="no"/>
      <point x="877" y="690" type="line" smooth="no"/>
    </contour>
  </outline>
</glyph>
<glyph name="f" format="1">
  <advance width="854"/>
  <unicode hex="0066"/>
  <outline>
    <contour>
      <point x="820" y="1453" type="line" smooth="no"/>
      <point x="774" y="1470"/>
      <point x="716" y="1494"/>
      <point x="656" y="1494" type="curve" smooth="yes"/>
      <point x="512.973" y="1494"/>
      <point x="512" y="1338.32"/>
      <point x="512" y="1191.09" type="curve" smooth="yes"/>
      <point x="512" y="1185" type="line" smooth="no"/>
      <point x="824" y="1185" type="line" smooth="no"/>
      <point x="824" y="1053" type="line" smooth="no"/>
      <point x="512" y="1053" type="line" smooth="no"/>
      <point x="512" y="0" type="line" smooth="no"/>
      <point x="219" y="0" type="line" smooth="no"/>
      <point x="219" y="1053" type="line" smooth="no"/>
      <point x="24" y="1053" type="line" smooth="no"/>
      <point x="24" y="1185" type="line" smooth="no"/>
      <point x="219" y="1185" type="line" smooth="no"/>
      <point x="219" y="1501"/>
      <point x="304" y="1711"/>
      <point x="597" y="1711" type="curve" smooth="yes"/>
      <point x="697" y="1711"/>
      <point x="777" y="1691"/>
      <point x="845" y="1661" type="curve" smooth="no"/>
    </contour>
  </outline>
</glyph>
<glyph name="h" format="1">
  <advance width="1350"/>
  <unicode hex="0068"/>
  <outline>
    <contour>
      <point x="729" y="1016" type="curve" smooth="yes"/>
      <point x="596" y="1016"/>
      <point x="511" y="967"/>
      <point x="446" y="902" type="curve" smooth="no"/>
      <point x="446" y="0" type="line" smooth="no"/>
      <point x="154" y="0" type="line" smooth="no"/>
      <point x="154" y="1662" type="line" smooth="no"/>
      <point x="446" y="1714" type="line" smooth="no"/>
      <point x="446" y="1049" type="line" smooth="no"/>
      <point x="532" y="1150"/>
      <point x="628" y="1215"/>
      <point x="796" y="1215" type="curve" smooth="yes"/>
      <point x="1108" y="1215"/>
      <point x="1214" y="1008"/>
      <point x="1214" y="696" type="curve" smooth="yes"/>
      <point x="1214" y="0" type="line" smooth="no"/>
      <point x="922" y="0" type="line" smooth="no"/>
      <point x="922" y="711" type="line" smooth="yes"/>
      <point x="922" y="882"/>
      <point x="883" y="1016"/>
    </contour>
  </outline>
</glyph>
<glyph name="j" format="1">
  <advance width="656"/>
  <unicode hex="006a"/>
  <outline>
    <contour>
      <point x="352" y="1410" type="curve" smooth="yes"/>
      <point x="256" y="1410"/>
      <point x="191" y="1480"/>
      <point x="191" y="1576" type="curve" smooth="yes"/>
      <point x="191" y="1672"/>
      <point x="257" y="1742"/>
      <point x="352" y="1742" type="curve" smooth="yes"/>
      <point x="446" y="1742"/>
      <point x="513" y="1670"/>
      <point x="513" y="1576" type="curve" smooth="yes"/>
      <point x="513" y="1481"/>
      <point x="447" y="1410"/>
    </contour>
    <contour>
      <point x="2" y="-173" type="line" smooth="no"/>
      <point x="149" y="-83"/>
      <point x="206" y="36"/>
      <point x="206" y="274" type="curve" smooth="yes"/>
      <point x="206" y="1185" type="line" smooth="no"/>
      <point x="500" y="1185" type="line" smooth="no"/>
      <point x="500" y="187" type="line" smooth="yes"/>
      <point x="500" y="-107"/>
      <point x="328" y="-310"/>
      <point x="89" y="-364" type="curve" smooth="no"/>
    </contour>
  </outline>
</glyph>
<glyph name="k" format="1">
  <advance width="1322"/>
  <unicode hex="006b"/>
  <outline>
    <contour>
      <point x="446" y="0" type="line" smooth="no"/>
      <point x="154" y="0" type="line" smooth="no"/>
      <point x="154" y="1668" type="line" smooth="no"/>
      <point x="446" y="1713" type="line" smooth="no"/>
      <point x="446" y="706" type="line" smooth="no"/>
      <point x="942" y="1185" type="line" smooth="no"/>
      <point x="1267" y="1185" type="line" smooth="no"/>
      <point x="729" y="660" type="line" smooth="no"/>
      <point x="1287" y="0" type="line" smooth="no"/>
      <point x="954" y="0" type="line" smooth="no"/>
      <point x="550" y="529" type="line" smooth="no"/>
      <point x="446" y="436" type="line" smooth="no"/>
    </contour>
  </outline>
</glyph>
<glyph name="n" format="1">
  <advance width="1332"/>
  <unicode hex="006e"/>
  <outline>
    <contour>
      <point x="715" y="1016" type="curve" smooth="yes"/>
      <point x="601" y="1016"/>
      <point x="495" y="948"/>
      <point x="446" y="881" type="curve" smooth="no"/>
      <point x="446" y="0" type="line" smooth="no"/>
      <point x="154" y="0" type="line" smooth="no"/>
      <point x="154" y="1185" type="line" smooth="no"/>
      <point x="374" y="1185" type="line" smooth="no"/>
      <point x="425" y="1017" type="line" smooth="no"/>
      <point x="491" y="1126"/>
      <point x="617" y="1215"/>
      <point x="788" y="1215" type="curve" smooth="yes"/>
      <point x="1087" y="1215"/>
      <point x="1196" y="1037"/>
      <point x="1196" y="737" type="curve" smooth="yes"/>
      <point x="1196" y="0" type="line" smooth="no"/>
      <point x="903" y="0" type="line" smooth="no"/>
      <point x="903" y="752" type="line" smooth="yes"/>
      <point x="903" y="914"/>
      <point x="865" y="1016"/>
    </contour>
  </outline>
</glyph>
<glyph name="o" format="1">
  <advance width="1299"/>
  <unicode hex="006f"/>
  <outline>
    <contour>
      <point x="372" y="588" type="curve" smooth="yes"/>
      <point x="372" y="368"/>
      <point x="426" y="168"/>
      <point x="647" y="168" type="curve" smooth="yes"/>
      <point x="868" y="168"/>
      <point x="922" y="365"/>
      <point x="922" y="588" type="curve" smooth="yes"/>
      <point x="922" y="811"/>
      <point x="868" y="1010"/>
      <point x="647" y="1010" type="curve" smooth="yes"/>
      <point x="427" y="1010"/>
      <point x="372" y="810"/>
    </contour>
    <contour>
      <point x="646" y="1210" type="curve" smooth="yes"/>
      <point x="1026" y="1210"/>
      <point x="1209" y="965"/>
      <point x="1209" y="587" type="curve" smooth="yes"/>
      <point x="1209" y="210"/>
      <point x="1025" y="-31"/>
      <point x="646" y="-31" type="curve" smooth="yes"/>
      <point x="267" y="-31"/>
      <point x="82" y="211"/>
      <point x="82" y="587" type="curve" smooth="yes"/>
      <point x="82" y="965"/>
      <point x="266" y="1210"/>
    </contour>
  </outline>
</glyph>
<glyph name="p" format="1">
  <advance width="1332"/>
  <unicode hex="0070"/>
  <outline>
    <contour>
      <point x="956" y="577" type="curve" smooth="yes"/>
      <point x="956" y="782"/>
      <point x="933" y="1016"/>
      <point x="736" y="1016" type="curve" smooth="yes"/>
      <point x="615" y="1016"/>
      <point x="511" y="953"/>
      <point x="446" y="886" type="curve" smooth="no"/>
      <point x="446" y="314" type="line" smooth="no"/>
      <point x="514" y="250"/>
      <point x="616" y="177"/>
      <point x="730" y="177" type="curve" smooth="yes"/>
      <point x="917" y="177"/>
      <point x="956" y="389"/>
    </contour>
    <contour>
      <point x="1247" y="586" type="curve" smooth="yes"/>
      <point x="1247" y="246"/>
      <point x="1093" y="-24"/>
      <point x="756" y="-24" type="curve" smooth="yes"/>
      <point x="615" y="-24"/>
      <point x="511" y="53"/>
      <point x="446" y="140" type="curve" smooth="no"/>
      <point x="446" y="-437" type="line" smooth="no"/>
      <point x="154" y="-446" type="line" smooth="no"/>
      <point x="154" y="1185" type="line" smooth="no"/>
      <point x="375" y="1185" type="line" smooth="no"/>
      <point x="429" y="1012" type="line" smooth="no"/>
      <point x="487" y="1128"/>
      <point x="599" y="1215"/>
      <point x="768" y="1215" type="curve" smooth="yes"/>
      <point x="1116" y="1215"/>
      <point x="1247" y="955"/>
    </contour>
  </outline>
</glyph>
<glyph name="r" format="1">
  <advance width="852"/>
  <unicode hex="0072"/>
  <outline>
    <contour>
      <point x="708" y="956" type="curve" smooth="yes"/>
      <point x="598" y="956"/>
      <point x="512" y="896"/>
      <point x="446" y="840" type="curve" smooth="no"/>
      <point x="446" y="0" type="line" smooth="no"/>
      <point x="154" y="0" type="line" smooth="no"/>
      <point x="154" y="1185" type="line" smooth="no"/>
      <point x="397" y="1185" type="line" smooth="no"/>
      <point x="433" y="994" type="line" smooth="no"/>
      <point x="498" y="1101"/>
      <point x="584" y="1190"/>
      <point x="748" y="1190" type="curve" smooth="yes"/>
      <point x="771" y="1190"/>
      <point x="795" y="1189"/>
      <point x="819" y="1188" type="curve" smooth="no"/>
      <point x="819" y="944" type="line" smooth="no"/>
      <point x="793" y="955"/>
      <point x="747" y="956"/>
    </contour>
  </outline>
</glyph>
<glyph name="v" format="1">
  <advance width="1178"/>
  <unicode hex="0076"/>
  <outline>
    <contour>
      <point x="421" y="0" type="line" smooth="no"/>
      <point x="20" y="1185" type="line" smooth="no"/>
      <point x="323" y="1185" type="line" smooth="no"/>
      <point x="591" y="266" type="line" smooth="no"/>
      <point x="854" y="1185" type="line" smooth="no"/>
      <point x="1160" y="1185" type="line" smooth="no"/>
      <point x="757" y="0" type="line" smooth="no"/>
    </contour>
  </outline>
</glyph>
<glyph name="w" format="1">
  <advance width="1634"/>
  <unicode hex="0077"/>
  <outline>
    <contour>
      <point x="816" y="838" type="line" smooth="no"/>
      <point x="619" y="0" type="line" smooth="no"/>
      <point x="333" y="0" type="line" smooth="no"/>
      <point x="20" y="1185" type="line" smooth="no"/>
      <point x="295" y="1185" type="line" smooth="no"/>
      <point x="482" y="274" type="line" smooth="no"/>
      <point x="683" y="1185" type="line" smooth="no"/>
      <point x="954" y="1185" type="line" smooth="no"/>
      <point x="1151" y="274" type="line" smooth="no"/>
      <point x="1345" y="1185" type="line" smooth="no"/>
      <point x="1616" y="1185" type="line" smooth="no"/>
      <point x="1303" y="0" type="line" smooth="no"/>
      <point x="1015" y="0" type="line" smooth="no"/>
    </contour>
  </outline>
</glyph>
<glyph name="x" format="1">
  <advance width="1179"/>
  <unicode hex="0078"/>
  <outline>
    <contour>
      <point x="362" y="0" type="line" smooth="no"/>
      <point x="39" y="0" type="line" smooth="no"/>
      <point x="446" y="595" type="line" smooth="no"/>
      <point x="32" y="1185" type="line" smooth="no"/>
      <point x="362" y="1185" type="line" smooth="no"/>
      <point x="593" y="796" type="line" smooth="no"/>
      <point x="824" y="1185" type="line" smooth="no"/>
      <point x="1148" y="1185" type="line" smooth="no"/>
      <point x="741" y="595" type="line" smooth="no"/>
      <point x="1141" y="0" type="line" smooth="no"/>
      <point x="823" y="0" type="line" smooth="no"/>
      <point x="593" y="404" type="line" smooth="no"/>
    </contour>
  </outline>
</glyph>
<glyph name="y" format="1">
  <advance width="1181"/>
  <unicode hex="0079"/>
  <outline>
    <contour>
      <point x="20" y="1185" type="line" smooth="no"/>
      <point x="315" y="1185" type="line" smooth="no"/>
      <point x="627" y="331" type="line" smooth="no"/>
      <point x="866" y="1185" type="line" smooth="no"/>
      <point x="1163" y="1185" type="line" smooth="no"/>
      <point x="744" y="-35" type="line" smooth="yes"/>
      <point x="664" y="-267"/>
      <point x="522" y="-473"/>
      <point x="226" y="-473" type="curve" smooth="no"/>
      <point x="145" y="-276" type="line" smooth="no"/>
      <point x="364" y="-249"/>
      <point x="445" y="-157"/>
      <point x="499" y="36" type="curve" smooth="no"/>
    </contour>
  </outline>
</glyph>
<glyph name="braceleft" format="1">
  <advance width="856"/>
  <unicode hex="007b"/>
  <outline>
    <contour>
      <point x="725" y="1357" type="line" smooth="no"/>
      <point x="566" y="1357"/>
      <point x="562" y="1215"/>
      <point x="562" y="1045" type="curve" smooth="no"/>
      <point x="560" y="841"/>
      <point x="507" y="709"/>
      <point x="353" y="664" type="curve" smooth="no"/>
      <point x="506" y="614"/>
      <point x="561" y="485"/>
      <point x="563" y="283" type="curve" smooth="no"/>
      <point x="563" y="114"/>
      <point x="566" y="-29"/>
      <point x="725" y="-29" type="curve" smooth="no"/>
      <point x="725" y="-213" type="line" smooth="no"/>
      <point x="376" y="-213"/>
      <point x="317" y="0"/>
      <point x="283" y="324" type="curve" smooth="no"/>
      <point x="274" y="449"/>
      <point x="255" y="568"/>
      <point x="127" y="568" type="curve" smooth="no"/>
      <point x="127" y="760" type="line" smooth="no"/>
      <point x="341" y="760"/>
      <point x="271" y="1187"/>
      <point x="347" y="1338" type="curve" smooth="yes"/>
      <point x="413" y="1471"/>
      <point x="531" y="1542"/>
      <point x="725" y="1542" type="curve" smooth="no"/>
    </contour>
  </outline>
</glyph>
<glyph name="bar" format="1">
  <advance width="752"/>
  <unicode hex="007c"/>
  <outline>
    <contour>
      <point x="246" y="1709" type="line" smooth="no"/>
      <point x="507" y="1709" type="line" smooth="no"/>
      <point x="507" y="-135" type="line" smooth="no"/>
      <point x="246" y="-135" type="line" smooth="no"/>
    </contour>
  </outline>
</glyph>
<glyph name="braceright" format="1">
  <advance width="858"/>
  <unicode hex="007d"/>
  <outline>
    <contour>
      <point x="521" y="665" type="curve" smooth="no"/>
      <point x="365" y="711"/>
      <point x="313" y="841"/>
      <point x="311" y="1046" type="curve" smooth="no"/>
      <point x="311" y="1208"/>
      <point x="309" y="1358"/>
      <point x="149" y="1358" type="curve" smooth="no"/>
      <point x="149" y="1543" type="line" smooth="no"/>
      <point x="497" y="1543"/>
      <point x="557" y="1329"/>
      <point x="591" y="1006" type="curve" smooth="no"/>
      <point x="600" y="882"/>
      <point x="618" y="761"/>
      <point x="746" y="761" type="curve" smooth="no"/>
      <point x="746" y="569" type="line" smooth="no"/>
      <point x="532" y="569"/>
      <point x="601" y="143"/>
      <point x="526" y="-8" type="curve" smooth="yes"/>
      <point x="460" y="-141"/>
      <point x="343" y="-213"/>
      <point x="149" y="-213" type="curve" smooth="no"/>
      <point x="149" y="-29" type="line" smooth="no"/>
      <point x="385" y="-29"/>
      <point x="280" y="387"/>
      <point x="362" y="538" type="curve" smooth="yes"/>
      <point x="395" y="599"/>
      <point x="448" y="642"/>
    </contour>
  </outline>
</glyph>
<glyph name="exclamdown" format="1">
  <advance width="806"/>
  <unicode hex="00a1"/>
  <outline>
    <contour>
      <point x="578" y="-1" type="line" smooth="no"/>
      <point x="249" y="-1" type="line" smooth="no"/>
      <point x="318" y="1130" type="line" smooth="no"/>
      <point x="512" y="1130" type="line" smooth="no"/>
    </contour>
    <contour>
      <point x="427" y="1264" type="curve" smooth="yes"/>
      <point x="317" y="1264"/>
      <point x="260" y="1304"/>
      <point x="260" y="1415" type="curve" smooth="yes"/>
      <point x="260" y="1535"/>
      <point x="310" y="1584"/>
      <point x="427" y="1584" type="curve" smooth="yes"/>
      <point x="535" y="1584"/>
      <point x="578" y="1522"/>
      <point x="578" y="1415" type="curve" smooth="yes"/>
      <point x="578" y="1313"/>
      <point x="528" y="1264"/>
    </contour>
  </outline>
</glyph>
<glyph name="yen" format="1">
  <advance width="1300"/>
  <unicode hex="00a5"/>
  <outline>
    <contour>
      <point x="1008" y="1606" type="line" smooth="no"/>
      <point x="1324" y="1606" type="line" smooth="no"/>
      <point x="891" y="752" type="line" smooth="no"/>
      <point x="1121" y="752" type="line" smooth="no"/>
      <point x="1121" y="636" type="line" smooth="no"/>
      <point x="842" y="636" type="line" smooth="no"/>
      <point x="804" y="518" type="line" smooth="no"/>
      <point x="1121" y="518" type="line" smooth="no"/>
      <point x="1121" y="404" type="line" smooth="no"/>
      <point x="802" y="404" type="line" smooth="no"/>
      <point x="802" y="0" type="line" smooth="no"/>
      <point x="512" y="0" type="line" smooth="no"/>
      <point x="512" y="404" type="line" smooth="no"/>
      <point x="190" y="404" type="line" smooth="no"/>
      <point x="190" y="518" type="line" smooth="no"/>
      <point x="510" y="518" type="line" smooth="no"/>
      <point x="473" y="636" type="line" smooth="no"/>
      <point x="190" y="636" type="line" smooth="no"/>
      <point x="190" y="752" type="line" smooth="no"/>
      <point x="421" y="752" type="line" smooth="no"/>
      <point x="-9" y="1606" type="line" smooth="no"/>
      <point x="302" y="1606" type="line" smooth="no"/>
      <point x="655" y="816" type="line" smooth="no"/>
    </contour>
  </outline>
</glyph>
<glyph name="brokenbar" format="1">
  <advance width="722"/>
  <unicode hex="00a6"/>
  <outline>
    <contour>
      <point x="239" y="1662" type="line" smooth="no"/>
      <point x="505" y="1662" type="line" smooth="no"/>
      <point x="505" y="925" type="line" smooth="no"/>
      <point x="239" y="925" type="line" smooth="no"/>
    </contour>
    <contour>
      <point x="239" y="646" type="line" smooth="no"/>
      <point x="505" y="646" type="line" smooth="no"/>
      <point x="505" y="-91" type="line" smooth="no"/>
      <point x="239" y="-91" type="line" smooth="no"/>
    </contour>
  </outline>
</glyph>
<glyph name="section" format="1">
  <advance width="1171"/>
  <unicode hex="00a7"/>
  <outline>
    <contour>
      <point x="376" y="764" type="curve" smooth="yes"/>
      <point x="376" y="662"/>
      <point x="467" y="640"/>
      <point x="584" y="640" type="curve" smooth="yes"/>
      <point x="690" y="640"/>
      <point x="796" y="658"/>
      <point x="796" y="762" type="curve" smooth="yes"/>
      <point x="796" y="868"/>
      <point x="704" y="889"/>
      <point x="584" y="889" type="curve" smooth="yes"/>
      <point x="473" y="889"/>
      <point x="376" y="870"/>
    </contour>
    <contour>
      <point x="157" y="1306" type="curve" smooth="yes"/>
      <point x="157" y="1514"/>
      <point x="359" y="1603"/>
      <point x="574" y="1603" type="curve" smooth="yes"/>
      <point x="725" y="1603"/>
      <point x="899" y="1539"/>
      <point x="978" y="1460" type="curve" smooth="no"/>
      <point x="898" y="1281" type="line" smooth="no"/>
      <point x="827" y="1336"/>
      <point x="706" y="1397"/>
      <point x="582" y="1397" type="curve" smooth="yes"/>
      <point x="473" y="1397"/>
      <point x="378" y="1384"/>
      <point x="378" y="1282" type="curve" smooth="yes"/>
      <point x="378" y="1223"/>
      <point x="439" y="1199"/>
      <point x="486" y="1181" type="curve" smooth="no"/>
      <point x="546" y="1156"/>
      <point x="608" y="1136"/>
      <point x="674" y="1112" type="curve" smooth="yes"/>
      <point x="849" y="1050"/>
      <point x="1021" y="986"/>
      <point x="1021" y="761" type="curve" smooth="yes"/>
      <point x="1021" y="619"/>
      <point x="924" y="547"/>
      <point x="808" y="521" type="curve" smooth="no"/>
      <point x="935" y="472"/>
      <point x="1023" y="387"/>
      <point x="1023" y="216" type="curve" smooth="yes"/>
      <point x="1023" y="-21"/>
      <point x="815" y="-107"/>
      <point x="578" y="-107" type="curve" smooth="yes"/>
      <point x="417" y="-107"/>
      <point x="248" y="-40"/>
      <point x="159" y="34" type="curve" smooth="no"/>
      <point x="243" y="223" type="line" smooth="no"/>
      <point x="301" y="165"/>
      <point x="442" y="99"/>
      <point x="554" y="99" type="curve" smooth="yes"/>
      <point x="684" y="99"/>
      <point x="789" y="126"/>
      <point x="789" y="243" type="curve" smooth="yes"/>
      <point x="789" y="349"/>
      <point x="706" y="370"/>
      <point x="625" y="398" type="curve" smooth="yes"/>
      <point x="463" y="454" type="line" smooth="no"/>
      <point x="300" y="509"/>
      <point x="157" y="564"/>
      <point x="157" y="775" type="curve" smooth="yes"/>
      <point x="157" y="917"/>
      <point x="252" y="995"/>
      <point x="376" y="1019" type="curve" smooth="no"/>
      <point x="247" y="1064"/>
      <point x="157" y="1135"/>
    </contour>
  </outline>
</glyph>
<glyph name="dieresis" format="1">
  <advance width="1151"/>
  <unicode hex="00a8"/>
  <outline>
    <contour>
      <point x="273" y="248" type="curve" smooth="yes"/>
      <point x="176" y="248"/>
      <point x="109" y="317"/>
      <point x="109" y="414" type="curve" smooth="yes"/>
      <point x="109" y="510"/>
      <point x="177" y="580"/>
      <point x="273" y="580" type="curve" smooth="yes"/>
      <point x="369" y="580"/>
      <point x="439" y="510"/>
      <point x="439" y="414" type="curve" smooth="yes"/>
      <point x="439" y="318"/>
      <point x="369" y="248"/>
    </contour>
    <contour>
      <point x="883" y="248" type="curve" smooth="yes"/>
      <point x="785" y="248"/>
      <point x="719" y="317"/>
      <point x="719" y="414" type="curve" smooth="yes"/>
      <point x="719" y="510"/>
      <point x="787" y="580"/>
      <point x="883" y="580" type="curve" smooth="yes"/>
      <point x="978" y="580"/>
      <point x="1049" y="509"/>
      <point x="1049" y="414" type="curve" smooth="yes"/>
      <point x="1049" y="319"/>
      <point x="978" y="248"/>
    </contour>
  </outline>
</glyph>
<glyph name="copyright" format="1">
  <advance width="2126"/>
  <unicode hex="00a9"/>
  <outline>
    <contour>
      <point x="367" y="815" type="curve" smooth="yes"/>
      <point x="367" y="394"/>
      <point x="633" y="103"/>
      <point x="1056" y="103" type="curve" smooth="yes"/>
      <point x="1480" y="103"/>
      <point x="1769" y="394"/>
      <point x="1769" y="815" type="curve" smooth="yes"/>
      <point x="1769" y="1229"/>
      <point x="1475" y="1532"/>
      <point x="1068" y="1532" type="curve" smooth="yes"/>
      <point x="657" y="1532"/>
      <point x="367" y="1224"/>
    </contour>
    <contour>
      <point x="1087" y="1152" type="curve" smooth="yes"/>
      <point x="880" y="1152"/>
      <point x="808" y="1024"/>
      <point x="808" y="817" type="curve" smooth="yes"/>
      <point x="808" y="600"/>
      <point x="879" y="481"/>
      <point x="1092" y="481" type="curve" smooth="yes"/>
      <point x="1216" y="481"/>
      <point x="1304" y="525"/>
      <point x="1393" y="570" type="curve" smooth="no"/>
      <point x="1393" y="385" type="line" smooth="no"/>
      <point x="1301" y="339"/>
      <point x="1219" y="301"/>
      <point x="1105" y="301" type="curve" smooth="yes"/>
      <point x="769" y="301"/>
      <point x="597" y="491"/>
      <point x="597" y="823" type="curve" smooth="yes"/>
      <point x="597" y="1143"/>
      <point x="772" y="1333"/>
      <point x="1095" y="1333" type="curve" smooth="yes"/>
      <point x="1210" y="1333"/>
      <point x="1310" y="1293"/>
      <point x="1388" y="1252" type="curve" smooth="no"/>
      <point x="1388" y="1071" type="line" smooth="no"/>
      <point x="1298" y="1117"/>
      <point x="1205" y="1152"/>
    </contour>
    <contour>
      <point x="1061" y="-91" type="curve" smooth="yes"/>
      <point x="522" y="-91"/>
      <point x="149" y="284"/>
      <point x="149" y="818" type="curve" smooth="yes"/>
      <point x="149" y="1356"/>
      <point x="538" y="1727"/>
      <point x="1068" y="1727" type="curve" smooth="yes"/>
      <point x="1599" y="1727"/>
      <point x="1986" y="1345"/>
      <point x="1986" y="818" type="curve" smooth="yes"/>
      <point x="1986" y="276"/>
      <point x="1596" y="-91"/>
    </contour>
  </outline>
</glyph>
<glyph name="guillemotleft" format="1">
  <advance width="1754"/>
  <unicode hex="00ab"/>
  <outline>
    <contour>
      <point x="1135" y="588" type="line" smooth="no"/>
      <point x="1602" y="299" type="line" smooth="no"/>
      <point x="1602" y="8" type="line" smooth="no"/>
      <point x="861" y="473" type="line" smooth="no"/>
      <point x="861" y="697" type="line" smooth="no"/>
      <point x="1602" y="1161" type="line" smooth="no"/>
      <point x="1602" y="870" type="line" smooth="no"/>
    </contour>
    <contour>
      <point x="396" y="588" type="line" smooth="no"/>
      <point x="862" y="299" type="line" smooth="no"/>
      <point x="862" y="8" type="line" smooth="no"/>
      <point x="121" y="473" type="line" smooth="no"/>
      <point x="121" y="697" type="line" smooth="no"/>
      <point x="862" y="1161" type="line" smooth="no"/>
      <point x="862" y="870" type="line" smooth="no"/>
    </contour>
  </outline>
</glyph>
<glyph name="logicalnot" format="1">
  <advance width="1388"/>
  <unicode hex="00ac"/>
  <outline>
    <contour>
      <point x="77" y="768" type="line" smooth="no"/>
      <point x="77" y="990" type="line" smooth="no"/>
      <point x="1234" y="990" type="line" smooth="no"/>
      <point x="1234" y="277" type="line" smooth="no"/>
      <point x="1045" y="277" type="line" smooth="no"/>
      <point x="1045" y="768" type="line" smooth="no"/>
    </contour>
  </outline>
</glyph>
<glyph name="uni00AD" format="1">
  <advance width="1038"/>
  <unicode hex="00ad"/>
  <outline>
    <contour>
      <point x="158" y="558" type="line" smooth="no"/>
      <point x="158" y="772" type="line" smooth="no"/>
      <point x="836" y="772" type="line" smooth="no"/>
      <point x="836" y="558" type="line" smooth="no"/>
    </contour>
  </outline>
</glyph>
<glyph name="registered" format="1">
  <advance width="1378"/>
  <unicode hex="00ae"/>
  <outline>
    <contour>
      <point x="702" y="573" type="curve" smooth="yes"/>
      <point x="329" y="573"/>
      <point x="50" y="825"/>
      <point x="50" y="1197" type="curve" smooth="yes"/>
      <point x="50" y="1564"/>
      <point x="331" y="1822"/>
      <point x="702" y="1822" type="curve" smooth="yes"/>
      <point x="1071" y="1822"/>
      <point x="1355" y="1565"/>
      <point x="1355" y="1197" type="curve" smooth="yes"/>
      <point x="1355" y="829"/>
      <point x="1072" y="573"/>
    </contour>
    <contour>
      <point x="195" y="1194" type="curve" smooth="yes"/>
      <point x="195" y="896"/>
      <point x="402" y="696"/>
      <point x="701" y="696" type="curve" smooth="yes"/>
      <point x="998" y="696"/>
      <point x="1209" y="900"/>
      <point x="1209" y="1195" type="curve" smooth="yes"/>
      <point x="1209" y="1492"/>
      <point x="999" y="1696"/>
      <point x="701" y="1696" type="curve" smooth="yes"/>
      <point x="402" y="1696"/>
      <point x="195" y="1491"/>
    </contour>
    <contour>
      <point x="821.184" y="1354.44" type="curve" smooth="yes"/>
      <point x="821.184" y="1424.28"/>
      <point x="724.692" y="1426.02"/>
      <point x="647.673" y="1426.02" type="curve" smooth="yes"/>
      <point x="640.72" y="1426.02"/>
      <point x="633.811" y="1426"/>
      <point x="627" y="1426" type="curve" smooth="no"/>
      <point x="627" y="1247" type="line" smooth="no"/>
      <point x="691" y="1247" type="line" smooth="yes"/>
      <point x="722" y="1247"/>
      <point x="737" y="1254"/>
      <point x="737" y="1285" type="curve" smooth="no"/>
      <point x="787.83" y="1290.75"/>
      <point x="821.184" y="1304.79"/>
    </contour>
    <contour>
      <point x="949" y="1347" type="curve" smooth="yes"/>
      <point x="949" y="1227"/>
      <point x="884" y="1187"/>
      <point x="780" y="1168" type="curve" smooth="no"/>
      <point x="958" y="912" type="line" smooth="no"/>
      <point x="841" y="853" type="line" smooth="no"/>
      <point x="662" y="1145" type="line" smooth="no"/>
      <point x="624" y="1145" type="line" smooth="no"/>
      <point x="624" y="873" type="line" smooth="no"/>
      <point x="500" y="873" type="line" smooth="no"/>
      <point x="500" y="1527" type="line" smooth="no"/>
      <point x="639" y="1527" type="line" smooth="yes"/>
      <point x="795" y="1527"/>
      <point x="949" y="1501"/>
    </contour>
  </outline>
</glyph>
<glyph name="degree" format="1">
  <advance width="819"/>
  <unicode hex="00b0"/>
  <outline>
    <contour>
      <point x="407" y="1195" type="curve" smooth="yes"/>
      <point x="287" y="1195"/>
      <point x="199" y="1110"/>
      <point x="199" y="990" type="curve" smooth="yes"/>
      <point x="199" y="870"/>
      <point x="286" y="785"/>
      <point x="407" y="785" type="curve" smooth="yes"/>
      <point x="528" y="785"/>
      <point x="613" y="869"/>
      <point x="613" y="990" type="curve" smooth="yes"/>
      <point x="613" y="1110"/>
      <point x="527" y="1195"/>
    </contour>
    <contour>
      <point x="123" y="993" type="curve" smooth="yes"/>
      <point x="123" y="1150"/>
      <point x="250" y="1259"/>
      <point x="407" y="1259" type="curve" smooth="yes"/>
      <point x="567" y="1259"/>
      <point x="689" y="1148"/>
      <point x="689" y="987" type="curve" smooth="yes"/>
      <point x="689" y="826"/>
      <point x="561" y="720"/>
      <point x="401" y="720" type="curve" smooth="yes"/>
      <point x="244" y="720"/>
      <point x="123" y="836"/>
    </contour>
  </outline>
</glyph>
<glyph name="plusminus" format="1">
  <advance width="1158"/>
  <unicode hex="00b1"/>
  <outline>
    <contour>
      <point x="222" y="-22" type="line" smooth="no"/>
      <point x="222" y="175" type="line" smooth="no"/>
      <point x="993" y="175" type="line" smooth="no"/>
      <point x="993" y="-22" type="line" smooth="no"/>
    </contour>
    <contour>
      <point x="724" y="707" type="line" smooth="no"/>
      <point x="724" y="351" type="line" smooth="no"/>
      <point x="490" y="351" type="line" smooth="no"/>
      <point x="490" y="707" type="line" smooth="no"/>
      <point x="193" y="707" type="line" smooth="no"/>
      <point x="193" y="926" type="line" smooth="no"/>
      <point x="490" y="926" type="line" smooth="no"/>
      <point x="490" y="1280" type="line" smooth="no"/>
      <point x="724" y="1280" type="line" smooth="no"/>
      <point x="724" y="926" type="line" smooth="no"/>
      <point x="1022" y="926" type="line" smooth="no"/>
      <point x="1022" y="707" type="line" smooth="no"/>
    </contour>
  </outline>
</glyph>
<glyph name="uni00B2" format="1">
  <advance width="1126"/>
  <unicode hex="00b2"/>
  <outline>
    <contour>
      <point x="576" y="1638" type="curve" smooth="yes"/>
      <point x="771" y="1638"/>
      <point x="919" y="1543"/>
      <point x="919" y="1357" type="curve" smooth="yes"/>
      <point x="919" y="1169"/>
      <point x="786" y="1075"/>
      <point x="676" y="982" type="curve" smooth="yes"/>
      <point x="485" y="820" type="line" smooth="no"/>
      <point x="891" y="820" type="line" smooth="no"/>
      <point x="891" y="668" type="line" smooth="no"/>
      <point x="253" y="668" type="line" smooth="no"/>
      <point x="253" y="805" type="line" smooth="no"/>
      <point x="524" y="1045" type="line" smooth="yes"/>
      <point x="618" y="1128"/>
      <point x="747" y="1199"/>
      <point x="747" y="1354" type="curve" smooth="yes"/>
      <point x="747" y="1454"/>
      <point x="670" y="1500"/>
      <point x="566" y="1500" type="curve" smooth="yes"/>
      <point x="456" y="1500"/>
      <point x="357" y="1474"/>
      <point x="270" y="1448" type="curve" smooth="no"/>
      <point x="270" y="1586" type="line" smooth="no"/>
      <point x="351" y="1620"/>
      <point x="458" y="1638"/>
    </contour>
  </outline>
</glyph>
<glyph name="uni00B3" format="1">
  <advance width="1208"/>
  <unicode hex="00b3"/>
  <outline>
    <contour>
      <point x="1017" y="835" type="curve" smooth="yes"/>
      <point x="1017" y="632"/>
      <point x="830" y="540"/>
      <point x="628" y="540" type="curve" smooth="yes"/>
      <point x="495" y="540"/>
      <point x="391" y="569"/>
      <point x="300" y="618" type="curve" smooth="no"/>
      <point x="351" y="745" type="line" smooth="no"/>
      <point x="428" y="708"/>
      <point x="517" y="672"/>
      <point x="631" y="672" type="curve" smooth="yes"/>
      <point x="753" y="672"/>
      <point x="851" y="733"/>
      <point x="851" y="853" type="curve" smooth="yes"/>
      <point x="851" y="1002"/>
      <point x="740" y="1055"/>
      <point x="589" y="1072" type="curve" smooth="no"/>
      <point x="589" y="1207" type="line" smooth="no"/>
      <point x="715" y="1207"/>
      <point x="832" y="1258"/>
      <point x="832" y="1383" type="curve" smooth="yes"/>
      <point x="832" y="1500"/>
      <point x="738" y="1541"/>
      <point x="608" y="1541" type="curve" smooth="yes"/>
      <point x="517" y="1541"/>
      <point x="438" y="1513"/>
      <point x="374" y="1484" type="curve" smooth="no"/>
      <point x="327" y="1611" type="line" smooth="no"/>
      <point x="398" y="1647"/>
      <point x="503" y="1677"/>
      <point x="613" y="1677" type="curve" smooth="yes"/>
      <point x="812" y="1677"/>
      <point x="986" y="1595"/>
      <point x="986" y="1394" type="curve" smooth="yes"/>
      <point x="986" y="1250"/>
      <point x="878" y="1142"/>
      <point x="741" y="1142" type="curve" smooth="no"/>
      <point x="895" y="1111"/>
      <point x="1017" y="1021"/>
    </contour>
  </outline>
</glyph>
<glyph name="acute" format="1">
  <advance width="1117"/>
  <unicode hex="00b4"/>
  <outline>
    <contour>
      <point x="449" y="269" type="line" smooth="no"/>
      <point x="638" y="892" type="line" smooth="no"/>
      <point x="924" y="766" type="line" smooth="no"/>
      <point x="569" y="213" type="line" smooth="no"/>
    </contour>
  </outline>
</glyph>
<glyph name="paragraph" format="1">
  <advance width="1417"/>
  <unicode hex="00b6"/>
  <outline>
    <contour>
      <point x="100" y="1214" type="curve" smooth="yes"/>
      <point x="100" y="1535"/>
      <point x="366" y="1606"/>
      <point x="686" y="1606" type="curve" smooth="yes"/>
      <point x="1247" y="1606" type="line" smooth="no"/>
      <point x="1247" y="0" type="line" smooth="no"/>
      <point x="1015" y="0" type="line" smooth="no"/>
      <point x="1015" y="1457" type="line" smooth="no"/>
      <point x="877" y="1457" type="line" smooth="no"/>
      <point x="877" y="0" type="line" smooth="no"/>
      <point x="641" y="0" type="line" smooth="no"/>
      <point x="641" y="801" type="line" smooth="no"/>
      <point x="332" y="801"/>
      <point x="100" y="905"/>
    </contour>
  </outline>
</glyph>
<glyph name="periodcentered" format="1">
  <advance width="591"/>
  <unicode hex="00b7"/>
  <outline>
    <contour>
      <point x="289" y="519" type="curve" smooth="yes"/>
      <point x="188" y="519"/>
      <point x="115" y="595"/>
      <point x="115" y="696" type="curve" smooth="yes"/>
      <point x="115" y="796"/>
      <point x="189" y="872"/>
      <point x="289" y="872" type="curve" smooth="yes"/>
      <point x="390" y="872"/>
      <point x="466" y="797"/>
      <point x="466" y="696" type="curve" smooth="yes"/>
      <point x="466" y="595"/>
      <point x="391" y="519"/>
    </contour>
  </outline>
</glyph>
<glyph name="guillemotright" format="1">
  <advance width="1780"/>
  <unicode hex="00bb"/>
  <outline>
    <contour>
      <point x="172" y="1161" type="line" smooth="no"/>
      <point x="913" y="697" type="line" smooth="no"/>
      <point x="913" y="473" type="line" smooth="no"/>
      <point x="172" y="8" type="line" smooth="no"/>
      <point x="172" y="299" type="line" smooth="no"/>
      <point x="648" y="588" type="line" smooth="no"/>
      <point x="172" y="870" type="line" smooth="no"/>
    </contour>
    <contour>
      <point x="911" y="1161" type="line" smooth="no"/>
      <point x="1653" y="697" type="line" smooth="no"/>
      <point x="1653" y="473" type="line" smooth="no"/>
      <point x="911" y="8" type="line" smooth="no"/>
      <point x="911" y="299" type="line" smooth="no"/>
      <point x="1388" y="588" type="line" smooth="no"/>
      <point x="911" y="870" type="line" smooth="no"/>
    </contour>
  </outline>
</glyph>
<glyph name="onehalf" format="1">
  <advance width="2119"/>
  <unicode hex="00bd"/>
  <outline>
    <contour>
      <point x="1613" y="967" type="curve" smooth="yes"/>
      <point x="1814" y="967"/>
      <point x="1980" y="875"/>
      <point x="1980" y="678" type="curve" smooth="yes"/>
      <point x="1980" y="495"/>
      <point x="1861" y="403"/>
      <point x="1755" y="312" type="curve" smooth="no"/>
      <point x="1607" y="183" type="line" smooth="no"/>
      <point x="1954" y="183" type="line" smooth="no"/>
      <point x="1954" y="-9" type="line" smooth="no"/>
      <point x="1274" y="-9" type="line" smooth="no"/>
      <point x="1274" y="153" type="line" smooth="no"/>
      <point x="1411" y="272"/>
      <point x="1570" y="385"/>
      <point x="1688" y="521" type="curve" smooth="yes"/>
      <point x="1718" y="556"/>
      <point x="1747" y="596"/>
      <point x="1747" y="654" type="curve" smooth="yes"/>
      <point x="1747" y="744"/>
      <point x="1687" y="781"/>
      <point x="1594" y="781" type="curve" smooth="yes"/>
      <point x="1493" y="781"/>
      <point x="1387" y="742"/>
      <point x="1312" y="709" type="curve" smooth="no"/>
      <point x="1267" y="884" type="line" smooth="no"/>
      <point x="1368" y="925"/>
      <point x="1473" y="967"/>
    </contour>
    <contour>
      <point x="320" y="1261" type="line" smooth="no"/>
      <point x="175" y="1198" type="line" smooth="no"/>
      <point x="113" y="1353" type="line" smooth="no"/>
      <point x="385" y="1460" type="line" smooth="no"/>
      <point x="547" y="1425" type="line" smooth="no"/>
      <point x="547" y="481" type="line" smooth="no"/>
      <point x="320" y="481" type="line" smooth="no"/>
    </contour>
    <contour>
      <point x="1234" y="1498" type="line" smooth="no"/>
      <point x="1422" y="1410" type="line" smooth="no"/>
      <point x="565" y="-115" type="line" smooth="no"/>
      <point x="381" y="-30" type="line" smooth="no"/>
    </contour>
  </outline>
</glyph>
<glyph name="threequarters" format="1">
  <advance width="2178"/>
  <unicode hex="00be"/>
  <outline>
    <contour>
      <point x="1714" y="244" type="line" smooth="no"/>
      <point x="1714" y="654" type="line" smooth="no"/>
      <point x="1428" y="244" type="line" smooth="no"/>
    </contour>
    <contour>
      <point x="1907" y="965" type="line" smooth="no"/>
      <point x="1907" y="244" type="line" smooth="no"/>
      <point x="2053" y="244" type="line" smooth="no"/>
      <point x="2053" y="73" type="line" smooth="no"/>
      <point x="1907" y="73" type="line" smooth="no"/>
      <point x="1907" y="-168" type="line" smooth="no"/>
      <point x="1710" y="-177" type="line" smooth="no"/>
      <point x="1710" y="73" type="line" smooth="no"/>
      <point x="1210" y="73" type="line" smooth="no"/>
      <point x="1181" y="217" type="line" smooth="no"/>
      <point x="1728" y="1011" type="line" smooth="no"/>
    </contour>
    <contour>
      <point x="1441" y="1498" type="line" smooth="no"/>
      <point x="1633" y="1410" type="line" smooth="no"/>
      <point x="777" y="-115" type="line" smooth="no"/>
      <point x="593" y="-30" type="line" smooth="no"/>
    </contour>
    <contour>
      <point x="386" y="1154" type="line" smooth="no"/>
      <point x="503" y="1154"/>
      <point x="616" y="1190"/>
      <point x="619" y="1303" type="curve" smooth="no"/>
      <point x="619" y="1391"/>
      <point x="543" y="1421"/>
      <point x="447" y="1421" type="curve" smooth="yes"/>
      <point x="358" y="1421"/>
      <point x="278" y="1391"/>
      <point x="213" y="1363" type="curve" smooth="no"/>
      <point x="138" y="1528" type="line" smooth="no"/>
      <point x="209" y="1572"/>
      <point x="321" y="1604"/>
      <point x="437" y="1604" type="curve" smooth="yes"/>
      <point x="659" y="1604"/>
      <point x="834" y="1527"/>
      <point x="834" y="1304" type="curve" smooth="yes"/>
      <point x="834" y="1175"/>
      <point x="744" y="1086"/>
      <point x="636" y="1067" type="curve" smooth="no"/>
      <point x="758" y="1040"/>
      <point x="864" y="942"/>
      <point x="864" y="792" type="curve" smooth="yes"/>
      <point x="864" y="558"/>
      <point x="671" y="469"/>
      <point x="437" y="469" type="curve" smooth="yes"/>
      <point x="323" y="469"/>
      <point x="216" y="496"/>
      <point x="136" y="533" type="curve" smooth="no"/>
      <point x="198" y="709" type="line" smooth="no"/>
      <point x="260" y="675"/>
      <point x="354" y="649"/>
      <point x="449" y="649" type="curve" smooth="yes"/>
      <point x="559" y="649"/>
      <point x="638" y="691"/>
      <point x="638" y="797" type="curve" smooth="yes"/>
      <point x="638" y="926"/>
      <point x="512" y="971"/>
      <point x="386" y="978" type="curve" smooth="no"/>
    </contour>
  </outline>
</glyph>
<glyph name="AE" format="1">
  <advance width="1989"/>
  <unicode hex="00c6"/>
  <outline>
    <contour>
      <point x="932" y="1413" type="line" smooth="no"/>
      <point x="554" y="519" type="line" smooth="no"/>
      <point x="932" y="519" type="line" smooth="no"/>
    </contour>
    <contour>
      <point x="1893" y="1408" type="line" smooth="no"/>
      <point x="1220" y="1408" type="line" smooth="no"/>
      <point x="1220" y="937" type="line" smooth="no"/>
      <point x="1821" y="937" type="line" smooth="no"/>
      <point x="1821" y="764" type="line" smooth="no"/>
      <point x="1221" y="764" type="line" smooth="no"/>
      <point x="1221" y="199" type="line" smooth="no"/>
      <point x="1911" y="199" type="line" smooth="no"/>
      <point x="1911" y="0" type="line" smooth="no"/>
      <point x="933" y="0" type="line" smooth="no"/>
      <point x="933" y="364" type="line" smooth="no"/>
      <point x="501" y="364" type="line" smooth="no"/>
      <point x="349" y="0" type="line" smooth="no"/>
      <point x="43" y="0" type="line" smooth="no"/>
      <point x="756" y="1607" type="line" smooth="no"/>
      <point x="1893" y="1607" type="line" smooth="no"/>
    </contour>
  </outline>
</glyph>
<glyph name="Eth" format="1">
  <advance width="1559"/>
  <unicode hex="00d0"/>
  <outline>
    <contour>
      <point x="619" y="199" type="line" smooth="yes"/>
      <point x="1032" y="199"/>
      <point x="1145" y="392"/>
      <point x="1145" y="800" type="curve" smooth="yes"/>
      <point x="1145" y="1211"/>
      <point x="1034" y="1414"/>
      <point x="619" y="1414" type="curve" smooth="yes"/>
      <point x="466" y="1414" type="line" smooth="no"/>
      <point x="466" y="924" type="line" smooth="no"/>
      <point x="723" y="924" type="line" smooth="no"/>
      <point x="723" y="729" type="line" smooth="no"/>
      <point x="466" y="729" type="line" smooth="no"/>
      <point x="466" y="199" type="line" smooth="no"/>
    </contour>
    <contour>
      <point x="691" y="1607" type="line" smooth="yes"/>
      <point x="1212" y="1607"/>
      <point x="1454" y="1319"/>
      <point x="1454" y="798" type="curve" smooth="yes"/>
      <point x="1454" y="289"/>
      <point x="1203" y="0"/>
      <point x="691" y="0" type="curve" smooth="yes"/>
      <point x="161" y="0" type="line" smooth="no"/>
      <point x="161" y="729" type="line" smooth="no"/>
      <point x="-2" y="729" type="line" smooth="no"/>
      <point x="-2" y="924" type="line" smooth="no"/>
      <point x="161" y="924" type="line" smooth="no"/>
      <point x="161" y="1607" type="line" smooth="no"/>
    </contour>
  </outline>
</glyph>
<glyph name="multiply" format="1">
  <advance width="1361"/>
  <unicode hex="00d7"/>
  <outline>
    <contour>
      <point x="393" y="1011" type="line" smooth="no"/>
      <point x="699" y="715" type="line" smooth="no"/>
      <point x="1005" y="1011" type="line" smooth="no"/>
      <point x="1159" y="847" type="line" smooth="no"/>
      <point x="861" y="560" type="line" smooth="no"/>
      <point x="1159" y="272" type="line" smooth="no"/>
      <point x="1005" y="108" type="line" smooth="no"/>
      <point x="699" y="404" type="line" smooth="no"/>
      <point x="393" y="108" type="line" smooth="no"/>
      <point x="240" y="272" type="line" smooth="no"/>
      <point x="537" y="560" type="line" smooth="no"/>
      <point x="240" y="847" type="line" smooth="no"/>
    </contour>
  </outline>
</glyph>
<glyph name="ae" format="1">
  <advance width="1899"/>
  <unicode hex="00e6"/>
  <outline>
    <contour>
      <point x="1573" y="690" type="line" smooth="no"/>
      <point x="1573" y="869"/>
      <point x="1519" y="1010"/>
      <point x="1346" y="1010" type="curve" smooth="yes"/>
      <point x="1171" y="1010"/>
      <point x="1096" y="866"/>
      <point x="1092" y="690" type="curve" smooth="no"/>
    </contour>
    <contour>
      <point x="1384" y="188" type="curve" smooth="yes"/>
      <point x="1504" y="188"/>
      <point x="1628" y="228"/>
      <point x="1693" y="284" type="curve" smooth="no"/>
      <point x="1758" y="89" type="line" smooth="no"/>
      <point x="1674" y="28"/>
      <point x="1511" y="-19"/>
      <point x="1369" y="-19" type="curve" smooth="yes"/>
      <point x="1149" y="-19"/>
      <point x="1025" y="60"/>
      <point x="942" y="199" type="curve" smooth="no"/>
      <point x="857" y="67"/>
      <point x="706" y="-21"/>
      <point x="494" y="-21" type="curve" smooth="yes"/>
      <point x="235" y="-21"/>
      <point x="91" y="108"/>
      <point x="91" y="366" type="curve" smooth="yes"/>
      <point x="91" y="639"/>
      <point x="300" y="736"/>
      <point x="574" y="736" type="curve" smooth="yes"/>
      <point x="662" y="736"/>
      <point x="746" y="727"/>
      <point x="814" y="709" type="curve" smooth="no"/>
      <point x="814" y="891"/>
      <point x="797" y="997"/>
      <point x="614" y="997" type="curve" smooth="yes"/>
      <point x="482" y="997"/>
      <point x="299" y="961"/>
      <point x="221" y="902" type="curve" smooth="no"/>
      <point x="165" y="1091" type="line" smooth="no"/>
      <point x="252" y="1167"/>
      <point x="463" y="1209"/>
      <point x="618" y="1209" type="curve" smooth="yes"/>
      <point x="806" y="1209"/>
      <point x="924" y="1158"/>
      <point x="982" y="1029" type="curve" smooth="no"/>
      <point x="1046" y="1142"/>
      <point x="1174" y="1209"/>
      <point x="1349" y="1209" type="curve" smooth="yes"/>
      <point x="1658" y="1209"/>
      <point x="1816" y="992"/>
      <point x="1816" y="682" type="curve" smooth="yes"/>
      <point x="1816" y="635"/>
      <point x="1815" y="587"/>
      <point x="1813" y="537" type="curve" smooth="no"/>
      <point x="1092" y="537" type="line" smooth="no"/>
      <point x="1095" y="329"/>
      <point x="1174" y="188"/>
    </contour>
    <contour>
      <point x="661.736" y="574.097" type="curve" smooth="yes"/>
      <point x="496.552" y="574.097"/>
      <point x="370" y="544.611"/>
      <point x="370" y="381" type="curve" smooth="yes"/>
      <point x="370" y="248"/>
      <point x="435" y="182"/>
      <point x="566" y="182" type="curve" smooth="yes"/>
      <point x="674" y="182"/>
      <point x="748" y="240"/>
      <point x="814" y="300" type="curve" smooth="no"/>
      <point x="814" y="561" type="line" smooth="no"/>
      <point x="765.25" y="567.548"/>
      <point x="713.854" y="574.097"/>
    </contour>
  </outline>
</glyph>
<glyph name="iacute" format="1">
  <advance width="667"/>
  <unicode hex="00ed"/>
  <outline>
    <contour>
      <point x="155" y="1387" type="line" smooth="no"/>
      <point x="344" y="2010" type="line" smooth="no"/>
      <point x="630" y="1885" type="line" smooth="no"/>
      <point x="275" y="1331" type="line" smooth="no"/>
    </contour>
    <contour>
      <point x="203" y="0" type="line" smooth="no"/>
      <point x="203" y="1185" type="line" smooth="no"/>
      <point x="493" y="1185" type="line" smooth="no"/>
      <point x="493" y="0" type="line" smooth="no"/>
    </contour>
  </outline>
</glyph>
<glyph name="icircumflex" format="1">
  <advance width="667"/>
  <unicode hex="00ee"/>
  <outline>
    <contour>
      <point x="433" y="1954" type="line" smooth="no"/>
      <point x="708" y="1372" type="line" smooth="no"/>
      <point x="488" y="1341" type="line" smooth="no"/>
      <point x="334" y="1728" type="line" smooth="no"/>
      <point x="180" y="1341" type="line" smooth="no"/>
      <point x="-39" y="1372" type="line" smooth="no"/>
      <point x="237" y="1954" type="line" smooth="no"/>
    </contour>
    <contour>
      <point x="203" y="0" type="line" smooth="no"/>
      <point x="203" y="1185" type="line" smooth="no"/>
      <point x="493" y="1185" type="line" smooth="no"/>
      <point x="493" y="0" type="line" smooth="no"/>
    </contour>
  </outline>
</glyph>
<glyph name="idieresis" format="1">
  <advance width="667"/>
  <unicode hex="00ef"/>
  <outline>
    <contour>
      <point x="14" y="1325" type="curve" smooth="yes"/>
      <point x="-83" y="1325"/>
      <point x="-150" y="1394"/>
      <point x="-150" y="1491" type="curve" smooth="yes"/>
      <point x="-150" y="1587"/>
      <point x="-82" y="1657"/>
      <point x="14" y="1657" type="curve" smooth="yes"/>
      <point x="110" y="1657"/>
      <point x="180" y="1587"/>
      <point x="180" y="1491" type="curve" smooth="yes"/>
      <point x="180" y="1395"/>
      <point x="110" y="1325"/>
    </contour>
    <contour>
      <point x="624" y="1325" type="curve" smooth="yes"/>
      <point x="527" y="1325"/>
      <point x="460" y="1394"/>
      <point x="460" y="1491" type="curve" smooth="yes"/>
      <point x="460" y="1587"/>
      <point x="528" y="1657"/>
      <point x="624" y="1657" type="curve" smooth="yes"/>
      <point x="719" y="1657"/>
      <point x="790" y="1586"/>
      <point x="790" y="1491" type="curve" smooth="yes"/>
      <point x="790" y="1396"/>
      <point x="719" y="1325"/>
    </contour>
    <contour>
      <point x="203" y="0" type="line" smooth="no"/>
      <point x="203" y="1185" type="line" smooth="no"/>
      <point x="493" y="1185" type="line" smooth="no"/>
      <point x="493" y="0" type="line" smooth="no"/>
    </contour>
  </outline>
</glyph>
<glyph name="divide" format="1">
  <advance width="1163"/>
  <unicode hex="00f7"/>
  <outline>
    <contour>
      <point x="595" y="875" type="curve" smooth="yes"/>
      <point x="498" y="875"/>
      <point x="433" y="945"/>
      <point x="433" y="1041" type="curve" smooth="yes"/>
      <point x="433" y="1137"/>
      <point x="499" y="1207"/>
      <point x="595" y="1207" type="curve" smooth="yes"/>
      <point x="691" y="1207"/>
      <point x="755" y="1136"/>
      <point x="755" y="1041" type="curve" smooth="yes"/>
      <point x="755" y="946"/>
      <point x="691" y="875"/>
    </contour>
    <contour>
      <point x="596" y="143" type="curve" smooth="yes"/>
      <point x="499" y="143"/>
      <point x="434" y="213"/>
      <point x="434" y="309" type="curve" smooth="yes"/>
      <point x="434" y="405"/>
      <point x="500" y="475"/>
      <point x="596" y="475" type="curve" smooth="yes"/>
      <point x="692" y="475"/>
      <point x="756" y="404"/>
      <point x="756" y="309" type="curve" smooth="yes"/>
      <point x="756" y="214"/>
      <point x="692" y="143"/>
    </contour>
    <contour>
      <point x="148" y="570" type="line" smooth="no"/>
      <point x="148" y="784" type="line" smooth="no"/>
      <point x="1041" y="784" type="line" smooth="no"/>
      <point x="1041" y="570" type="line" smooth="no"/>
    </contour>
  </outline>
</glyph>
<glyph name="oslash" format="1">
  <advance width="1299"/>
  <unicode hex="00f8"/>
  <outline>
    <contour>
      <point x="649" y="1026" type="curve" smooth="yes"/>
      <point x="423" y="1026"/>
      <point x="344" y="841"/>
      <point x="344" y="607" type="curve" smooth="yes"/>
      <point x="344" y="450"/>
      <point x="376" y="290"/>
      <point x="468" y="229" type="curve" smooth="no"/>
      <point x="736" y="1015" type="line" smooth="no"/>
      <point x="712" y="1024"/>
      <point x="683" y="1026"/>
    </contour>
    <contour>
      <point x="1213" y="592" type="curve" smooth="yes"/>
      <point x="1213" y="221"/>
      <point x="1020" y="-18"/>
      <point x="649" y="-18" type="curve" smooth="yes"/>
      <point x="596" y="-18"/>
      <point x="548" y="-13"/>
      <point x="503" y="-3" type="curve" smooth="no"/>
      <point x="440" y="-188" type="line" smooth="no"/>
      <point x="340" y="-154" type="line" smooth="no"/>
      <point x="402" y="27" type="line" smooth="no"/>
      <point x="197" y="113"/>
      <point x="85" y="306"/>
      <point x="85" y="592" type="curve" smooth="yes"/>
      <point x="85" y="963"/>
      <point x="277" y="1209"/>
      <point x="649" y="1209" type="curve" smooth="yes"/>
      <point x="702" y="1209"/>
      <point x="749" y="1203"/>
      <point x="794" y="1194" type="curve" smooth="no"/>
      <point x="860" y="1389" type="line" smooth="no"/>
      <point x="957" y="1355" type="line" smooth="no"/>
      <point x="892" y="1164" type="line" smooth="no"/>
      <point x="1097" y="1078"/>
      <point x="1213" y="882"/>
    </contour>
    <contour>
      <point x="649" y="163" type="curve" smooth="yes"/>
      <point x="879" y="163"/>
      <point x="960" y="360"/>
      <point x="960" y="594" type="curve" smooth="yes"/>
      <point x="960" y="763"/>
      <point x="920" y="891"/>
      <point x="826" y="960" type="curve" smooth="no"/>
      <point x="562" y="173" type="line" smooth="no"/>
      <point x="582" y="166"/>
      <point x="611" y="163"/>
    </contour>
  </outline>
</glyph>
<glyph name="scaron" format="1">
  <advance width="1092"/>
  <unicode hex="0161"/>
  <outline>
    <contour>
      <point x="450" y="1393" type="line" smooth="no"/>
      <point x="174" y="1976" type="line" smooth="no"/>
      <point x="394" y="2007" type="line" smooth="no"/>
      <point x="549" y="1619" type="line" smooth="no"/>
      <point x="702" y="2007" type="line" smooth="no"/>
      <point x="922" y="1976" type="line" smooth="no"/>
      <point x="645" y="1393" type="line" smooth="no"/>
    </contour>
    <contour>
      <point x="534" y="177" type="curve" smooth="yes"/>
      <point x="650" y="177"/>
      <point x="733" y="216"/>
      <point x="733" y="332" type="curve" smooth="yes"/>
      <point x="733" y="411"/>
      <point x="657" y="445"/>
      <point x="590" y="470" type="curve" smooth="yes"/>
      <point x="357" y="560" type="line" smooth="no"/>
      <point x="216" y="611"/>
      <point x="103" y="693"/>
      <point x="103" y="886" type="curve" smooth="yes"/>
      <point x="103" y="1118"/>
      <point x="310" y="1215"/>
      <point x="546" y="1215" type="curve" smooth="yes"/>
      <point x="698" y="1215"/>
      <point x="880" y="1176"/>
      <point x="969" y="1109" type="curve" smooth="no"/>
      <point x="903" y="921" type="line" smooth="no"/>
      <point x="831" y="975"/>
      <point x="678" y="1016"/>
      <point x="557" y="1016" type="curve" smooth="yes"/>
      <point x="445" y="1016"/>
      <point x="362" y="982"/>
      <point x="362" y="886" type="curve" smooth="yes"/>
      <point x="362" y="811"/>
      <point x="427" y="791"/>
      <point x="483" y="769" type="curve" smooth="no"/>
      <point x="675" y="698" type="line" smooth="yes"/>
      <point x="835" y="638"/>
      <point x="1004" y="558"/>
      <point x="1004" y="345" type="curve" smooth="yes"/>
      <point x="1004" y="90"/>
      <point x="805" y="-24"/>
      <point x="548" y="-24" type="curve" smooth="yes"/>
      <point x="381" y="-24"/>
      <point x="204" y="19"/>
      <point x="109" y="90" type="curve" smooth="no"/>
      <point x="175" y="281" type="line" smooth="no"/>
      <point x="247" y="225"/>
      <point x="412" y="177"/>
    </contour>
  </outline>
</glyph>
<glyph name="circumflex" format="1">
  <advance width="1331"/>
  <unicode hex="02c6"/>
  <outline>
    <contour>
      <point x="787" y="837" type="line" smooth="no"/>
      <point x="1064" y="254" type="line" smooth="no"/>
      <point x="843" y="223" type="line" smooth="no"/>
      <point x="689" y="611" type="line" smooth="no"/>
      <point x="535" y="223" type="line" smooth="no"/>
      <point x="316" y="254" type="line" smooth="no"/>
      <point x="592" y="837" type="line" smooth="no"/>
    </contour>
  </outline>
</glyph>
<glyph name="ring" format="1">
  <advance width="1256"/>
  <unicode hex="02da"/>
  <outline>
    <contour>
      <point x="628" y="688" type="curve" smooth="yes"/>
      <point x="530" y="688"/>
      <point x="459" y="617"/>
      <point x="459" y="519" type="curve" smooth="yes"/>
      <point x="459" y="421"/>
      <point x="530" y="351"/>
      <point x="628" y="351" type="curve" smooth="yes"/>
      <point x="726" y="351"/>
      <point x="797" y="421"/>
      <point x="797" y="519" type="curve" smooth="yes"/>
      <point x="797" y="616"/>
      <point x="725" y="688"/>
    </contour>
    <contour>
      <point x="306" y="522" type="curve" smooth="yes"/>
      <point x="306" y="701"/>
      <point x="450" y="825"/>
      <point x="629" y="825" type="curve" smooth="yes"/>
      <point x="812" y="825"/>
      <point x="951" y="699"/>
      <point x="951" y="516" type="curve" smooth="yes"/>
      <point x="951" y="334"/>
      <point x="804" y="213"/>
      <point x="622" y="213" type="curve" smooth="yes"/>
      <point x="443" y="213"/>
      <point x="306" y="343"/>
    </contour>
  </outline>
</glyph>
<glyph name="uni0306" format="1">
  <advance width="1103"/>
  <unicode hex="0306"/>
  <outline>
    <contour>
      <point x="549" y="1505" type="curve" smooth="yes"/>
      <point x="652" y="1505"/>
      <point x="687" y="1561"/>
      <point x="687" y="1668" type="curve" smooth="no"/>
      <point x="863" y="1668" type="line" smooth="no"/>
      <point x="863" y="1463"/>
      <point x="758" y="1367"/>
      <point x="549" y="1367" type="curve" smooth="yes"/>
      <point x="341" y="1367"/>
      <point x="233" y="1465"/>
      <point x="233" y="1668" type="curve" smooth="no"/>
      <point x="410" y="1668" type="line" smooth="no"/>
      <point x="410" y="1561"/>
      <point x="446" y="1505"/>
    </contour>
  </outline>
</glyph>
<glyph name="uni0E81" format="1">
  <advance width="1429"/>
  <unicode hex="0e81"/>
  <outline>
    <contour>
      <point x="1077" y="705" type="line" smooth="yes"/>
      <point x="1077" y="864"/>
      <point x="1036" y="936"/>
      <point x="880" y="936" type="curve" smooth="no"/>
      <point x="822" y="935"/>
      <point x="737" y="897"/>
      <point x="624" y="822" type="curve" smooth="no"/>
      <point x="625" y="805"/>
      <point x="626" y="794"/>
      <point x="626" y="782" type="curve" smooth="yes"/>
      <point x="626" y="333" type="line" smooth="yes"/>
      <point x="626" y="134"/>
      <point x="529" y="0"/>
      <point x="332" y="0" type="curve" smooth="yes"/>
      <point x="157" y="0"/>
      <point x="70" y="71"/>
      <point x="70" y="213" type="curve" smooth="yes"/>
      <point x="70" y="320"/>
      <point x="151" y="408"/>
      <point x="258" y="408" type="curve" smooth="no"/>
      <point x="275" y="406"/>
      <point x="292" y="407"/>
      <point x="306" y="402" type="curve" smooth="yes"/>
      <point x="359" y="385" type="line" smooth="no"/>
      <point x="359" y="702" type="line" smooth="no"/>
      <point x="342" y="700"/>
      <point x="326" y="698"/>
      <point x="308" y="698" type="curve" smooth="yes"/>
      <point x="172" y="698"/>
      <point x="66" y="767"/>
      <point x="66" y="902" type="curve" smooth="yes"/>
      <point x="66" y="1046"/>
      <point x="174" y="1104"/>
      <point x="331" y="1104" type="curve" smooth="yes"/>
      <point x="444" y="1104"/>
      <point x="527" y="1059"/>
      <point x="581" y="970" type="curve" smooth="no"/>
      <point x="687" y="1040"/>
      <point x="784" y="1104"/>
      <point x="923" y="1104" type="curve" smooth="yes"/>
      <point x="1204" y="1104"/>
      <point x="1345" y="955"/>
      <point x="1345" y="658" type="curve" smooth="yes"/>
      <point x="1345" y="0" type="line" smooth="no"/>
      <point x="1077" y="0" type="line" smooth="no"/>
    </contour>
    <contour>
      <point x="235" y="903" type="curve" smooth="no"/>
      <point x="241" y="855"/>
      <point x="265" y="829"/>
      <point x="306" y="826" type="curve" smooth="no"/>
      <point x="325" y="826"/>
      <point x="343" y="829"/>
      <point x="359" y="835" type="curve" smooth="no"/>
      <point x="359" y="878" type="line" smooth="no"/>
      <point x="354" y="933"/>
      <point x="334" y="963"/>
      <point x="298" y="968" type="curve" smooth="no"/>
      <point x="257" y="968"/>
      <point x="235" y="945"/>
    </contour>
    <contour>
      <point x="306" y="284" type="line" smooth="yes"/>
      <point x="262" y="284"/>
      <point x="237" y="260"/>
      <point x="237" y="215" type="curve" smooth="yes"/>
      <point x="237" y="165"/>
      <point x="257" y="140"/>
      <point x="297" y="139" type="curve" smooth="no"/>
      <point x="338" y="140"/>
      <point x="359" y="170"/>
      <point x="359" y="227" type="curve" smooth="yes"/>
      <point x="359" y="284" type="line" smooth="no"/>
    </contour>
  </outline>
</glyph>
<glyph name="uni0E82" format="1">
  <advance width="1317"/>
  <unicode hex="0e82"/>
  <outline>
    <contour>
      <point x="686.454" y="1170" type="curve" smooth="yes"/>
      <point x="1001.45" y="1170"/>
      <point x="1256.45" y="1109"/>
      <point x="1256.45" y="829" type="curve" smooth="yes"/>
      <point x="1256.45" y="570"/>
      <point x="1010.45" y="491"/>
      <point x="813.454" y="430" type="curve" smooth="yes"/>
      <point x="675.454" y="387" type="line" smooth="yes"/>
      <point x="600.454" y="364"/>
      <point x="431.454" y="343"/>
      <point x="431.454" y="266" type="curve" smooth="yes"/>
      <point x="431.454" y="231"/>
      <point x="451.454" y="224"/>
      <point x="487.454" y="224" type="curve" smooth="yes"/>
      <point x="654.454" y="224"/>
      <point x="782.454" y="351"/>
      <point x="971.454" y="351" type="curve" smooth="yes"/>
      <point x="1154.45" y="351"/>
      <point x="1253.45" y="223"/>
      <point x="1341.45" y="88" type="curve" smooth="no"/>
      <point x="1178.45" y="-55" type="line" smooth="no"/>
      <point x="1121.45" y="30"/>
      <point x="1080.45" y="127"/>
      <point x="953.454" y="127" type="curve" smooth="yes"/>
      <point x="751.454" y="127"/>
      <point x="642.454" y="0"/>
      <point x="437.454" y="0" type="curve" smooth="yes"/>
      <point x="243.454" y="0"/>
      <point x="147.454" y="81"/>
      <point x="147.454" y="241" type="curve" smooth="yes"/>
      <point x="147.454" y="453"/>
      <point x="378.454" y="509"/>
      <point x="549.454" y="566" type="curve" smooth="yes"/>
      <point x="647.454" y="599" type="line" smooth="no"/>
      <point x="793.454" y="646"/>
      <point x="976.454" y="668"/>
      <point x="976.454" y="860" type="curve" smooth="yes"/>
      <point x="976.454" y="983"/>
      <point x="834.454" y="1007"/>
      <point x="693.454" y="1007" type="curve" smooth="yes"/>
      <point x="591.454" y="1007"/>
      <point x="498.454" y="1007"/>
      <point x="431.454" y="982" type="curve" smooth="no"/>
      <point x="442.454" y="984"/>
      <point x="452.454" y="985"/>
      <point x="464.454" y="985" type="curve" smooth="yes"/>
      <point x="562.454" y="985"/>
      <point x="638.454" y="896"/>
      <point x="638.454" y="797" type="curve" smooth="yes"/>
      <point x="638.454" y="663"/>
      <point x="534.454" y="583"/>
      <point x="399.454" y="583" type="curve" smooth="yes"/>
      <point x="226.454" y="583"/>
      <point x="140.454" y="666"/>
      <point x="140.454" y="835" type="curve" smooth="yes"/>
      <point x="140.454" y="1096"/>
      <point x="416.454" y="1170"/>
    </contour>
    <contour>
      <point x="399.454" y="721" type="curve" smooth="yes"/>
      <point x="434.454" y="721"/>
      <point x="459.454" y="767"/>
      <point x="461.454" y="812" type="curve" smooth="no"/>
      <point x="461.454" y="860"/>
      <point x="434.454" y="884"/>
      <point x="381.454" y="884" type="curve" smooth="yes"/>
      <point x="329.454" y="884" type="line" smooth="no"/>
      <point x="327.454" y="874"/>
      <point x="326.454" y="864"/>
      <point x="326.454" y="853" type="curve" smooth="yes"/>
      <point x="327.454" y="797"/>
      <point x="358.454" y="721"/>
    </contour>
  </outline>
</glyph>
<glyph name="uni0E84" format="1">
  <advance width="1345"/>
  <unicode hex="0e84"/>
  <outline>
    <contour>
      <point x="685.525" y="1170" type="curve" smooth="yes"/>
      <point x="1045.53" y="1170"/>
      <point x="1258.53" y="1054"/>
      <point x="1258.53" y="697" type="curve" smooth="yes"/>
      <point x="1258.53" y="0" type="line" smooth="no"/>
      <point x="975.525" y="0" type="line" smooth="no"/>
      <point x="975.525" y="693" type="line" smooth="yes"/>
      <point x="975.525" y="912"/>
      <point x="903.525" y="991"/>
      <point x="685.525" y="991" type="curve" smooth="yes"/>
      <point x="538.525" y="991"/>
      <point x="399.525" y="979"/>
      <point x="399.525" y="862" type="curve" smooth="yes"/>
      <point x="399.525" y="768"/>
      <point x="454.525" y="719"/>
      <point x="549.525" y="719" type="curve" smooth="yes"/>
      <point x="706.525" y="719" type="line" smooth="no"/>
      <point x="706.525" y="552" type="line" smooth="no"/>
      <point x="549.525" y="552" type="line" smooth="yes"/>
      <point x="447.525" y="552"/>
      <point x="399.525" y="513"/>
      <point x="399.525" y="414" type="curve" smooth="yes"/>
      <point x="399.525" y="409" type="line" smooth="no"/>
      <point x="423.525" y="416" type="line" smooth="yes"/>
      <point x="455.525" y="424"/>
      <point x="470.525" y="430"/>
      <point x="501.525" y="430" type="curve" smooth="yes"/>
      <point x="622.525" y="430"/>
      <point x="707.525" y="350"/>
      <point x="707.525" y="229" type="curve" smooth="yes"/>
      <point x="707.525" y="65"/>
      <point x="602.525" y="0"/>
      <point x="427.525" y="0" type="curve" smooth="yes"/>
      <point x="223.525" y="0"/>
      <point x="116.525" y="148"/>
      <point x="116.525" y="353" type="curve" smooth="yes"/>
      <point x="116.525" y="520"/>
      <point x="233.525" y="619"/>
      <point x="385.525" y="638" type="curve" smooth="no"/>
      <point x="239.525" y="638"/>
      <point x="116.525" y="718"/>
      <point x="116.525" y="862" type="curve" smooth="yes"/>
      <point x="116.525" y="1122"/>
      <point x="425.525" y="1170"/>
    </contour>
    <contour>
      <point x="464.525" y="147" type="curve" smooth="yes"/>
      <point x="510.525" y="147"/>
      <point x="530.525" y="180"/>
      <point x="530.525" y="229" type="curve" smooth="yes"/>
      <point x="530.525" y="272"/>
      <point x="499.525" y="301"/>
      <point x="453.525" y="301" type="curve" smooth="yes"/>
      <point x="399.525" y="301" type="line" smooth="no"/>
      <point x="399.525" y="252" type="line" smooth="yes"/>
      <point x="399.525" y="192"/>
      <point x="410.525" y="147"/>
    </contour>
  </outline>
</glyph>
<glyph name="uni0E87" format="1">
  <advance width="1051"/>
  <unicode hex="0e87"/>
  <outline>
    <contour>
      <point x="995.383" y="21" type="line" smooth="yes"/>
      <point x="995.383" y="-338"/>
      <point x="856.383" y="-520"/>
      <point x="500.383" y="-520" type="curve" smooth="yes"/>
      <point x="246.383" y="-520"/>
      <point x="84.3828" y="-428"/>
      <point x="83.3828" y="-190" type="curve" smooth="no"/>
      <point x="273.383" y="-190" type="line" smooth="no"/>
      <point x="273.383" y="-324"/>
      <point x="352.383" y="-363"/>
      <point x="490.383" y="-363" type="curve" smooth="yes"/>
      <point x="691.383" y="-363"/>
      <point x="711.383" y="-224"/>
      <point x="711.383" y="-18" type="curve" smooth="yes"/>
      <point x="711.383" y="619" type="line" smooth="yes"/>
      <point x="711.383" y="824"/>
      <point x="688.383" y="1016"/>
      <point x="497.383" y="1023" type="curve" smooth="no"/>
      <point x="510.383" y="988"/>
      <point x="516.383" y="959"/>
      <point x="516.383" y="937" type="curve" smooth="yes"/>
      <point x="516.383" y="799"/>
      <point x="427.383" y="739"/>
      <point x="284.383" y="739" type="curve" smooth="yes"/>
      <point x="149.383" y="739"/>
      <point x="61.3828" y="815"/>
      <point x="61.3828" y="950" type="curve" smooth="yes"/>
      <point x="61.3828" y="1115"/>
      <point x="256.383" y="1169"/>
      <point x="428.383" y="1169" type="curve" smooth="yes"/>
      <point x="806.383" y="1169"/>
      <point x="995.383" y="988"/>
      <point x="995.383" y="625" type="curve" smooth="yes"/>
    </contour>
    <contour>
      <point x="296.383" y="870" type="curve" smooth="yes"/>
      <point x="347.383" y="870"/>
      <point x="366.383" y="905"/>
      <point x="366.383" y="956" type="curve" smooth="yes"/>
      <point x="366.383" y="1022" type="line" smooth="no"/>
      <point x="281.383" y="1015"/>
      <point x="238.383" y="986"/>
      <point x="238.383" y="937" type="curve" smooth="yes"/>
      <point x="238.383" y="897"/>
      <point x="256.383" y="870"/>
    </contour>
  </outline>
</glyph>
<glyph name="uni0E88" format="1">
  <advance width="1421"/>
  <unicode hex="0e88"/>
  <outline>
    <contour>
      <point x="642.495" y="840" type="curve" smooth="yes"/>
      <point x="1055.5" y="840"/>
      <point x="866.495" y="342"/>
      <point x="1068.5" y="140" type="curve" smooth="no"/>
      <point x="1068.5" y="676" type="line" smooth="yes"/>
      <point x="1068.5" y="910"/>
      <point x="935.495" y="991"/>
      <point x="694.495" y="991" type="curve" smooth="yes"/>
      <point x="480.495" y="991"/>
      <point x="290.495" y="929"/>
      <point x="290.495" y="719" type="curve" smooth="no"/>
      <point x="38.4951" y="719" type="line" smooth="no"/>
      <point x="41.4951" y="1062"/>
      <point x="346.495" y="1170"/>
      <point x="700.495" y="1170" type="curve" smooth="yes"/>
      <point x="1098.5" y="1170"/>
      <point x="1331.5" y="1018"/>
      <point x="1331.5" y="625" type="curve" smooth="yes"/>
      <point x="1331.5" y="18" type="line" smooth="no"/>
      <point x="1055.5" y="-82" type="line" smooth="no"/>
      <point x="1010.5" y="-56" type="line" smooth="yes"/>
      <point x="837.495" y="42"/>
      <point x="736.495" y="206"/>
      <point x="694.495" y="431" type="curve" smooth="no"/>
      <point x="644.495" y="416" type="line" smooth="yes"/>
      <point x="623.495" y="410"/>
      <point x="598.495" y="405"/>
      <point x="574.495" y="405" type="curve" smooth="yes"/>
      <point x="454.495" y="405"/>
      <point x="375.495" y="493"/>
      <point x="375.495" y="613" type="curve" smooth="yes"/>
      <point x="375.495" y="765"/>
      <point x="487.495" y="840"/>
    </contour>
    <contour>
      <point x="683.495" y="573" type="line" smooth="yes"/>
      <point x="683.495" y="642"/>
      <point x="673.495" y="695"/>
      <point x="618.495" y="695" type="curve" smooth="yes"/>
      <point x="576.495" y="695"/>
      <point x="552.495" y="659"/>
      <point x="552.495" y="613" type="curve" smooth="yes"/>
      <point x="552.495" y="561"/>
      <point x="589.495" y="537"/>
      <point x="643.495" y="537" type="curve" smooth="yes"/>
      <point x="684.495" y="537" type="line" smooth="no"/>
      <point x="683.495" y="540"/>
      <point x="683.495" y="545"/>
      <point x="683.495" y="551" type="curve" smooth="yes"/>
    </contour>
  </outline>
</glyph>
<glyph name="uni0E8A" format="1">
  <advance width="1232"/>
  <unicode hex="0e8a"/>
  <outline>
    <contour>
      <point x="307" y="834" type="line" smooth="no"/>
      <point x="305" y="821"/>
      <point x="303" y="811"/>
      <point x="303" y="801" type="curve" smooth="yes"/>
      <point x="305" y="725"/>
      <point x="325" y="687"/>
      <point x="363" y="686" type="curve" smooth="no"/>
      <point x="408" y="686"/>
      <point x="430" y="713"/>
      <point x="430" y="766" type="curve" smooth="no"/>
      <point x="427" y="810"/>
      <point x="399" y="834"/>
      <point x="350" y="834" type="curve" smooth="yes"/>
    </contour>
    <contour>
      <point x="597" y="753" type="curve" smooth="yes"/>
      <point x="597" y="629"/>
      <point x="499" y="547"/>
      <point x="373" y="547" type="curve" smooth="yes"/>
      <point x="212" y="547"/>
      <point x="127" y="627"/>
      <point x="127" y="788" type="curve" smooth="yes"/>
      <point x="127" y="1033"/>
      <point x="388" y="1104"/>
      <point x="642" y="1104" type="curve" smooth="yes"/>
      <point x="1002" y="1104"/>
      <point x="1182" y="993"/>
      <point x="1182" y="771" type="curve" smooth="yes"/>
      <point x="1182" y="561"/>
      <point x="1018" y="491"/>
      <point x="855" y="437" type="curve" smooth="yes"/>
      <point x="638" y="365" type="line" smooth="yes"/>
      <point x="563" y="340"/>
      <point x="406" y="322"/>
      <point x="399" y="249" type="curve" smooth="no"/>
      <point x="400" y="224"/>
      <point x="416" y="210"/>
      <point x="443" y="210" type="curve" smooth="yes"/>
      <point x="586" y="210"/>
      <point x="787" y="342"/>
      <point x="964" y="342" type="curve" smooth="yes"/>
      <point x="1119" y="342"/>
      <point x="1196" y="257"/>
      <point x="1196" y="86" type="curve" smooth="yes"/>
      <point x="1196" y="-190" type="line" smooth="no"/>
      <point x="961" y="-190" type="line" smooth="no"/>
      <point x="961" y="68" type="line" smooth="yes"/>
      <point x="961" y="121"/>
      <point x="943" y="137"/>
      <point x="894" y="137" type="curve" smooth="yes"/>
      <point x="756" y="137"/>
      <point x="576" y="0"/>
      <point x="403" y="0" type="curve" smooth="yes"/>
      <point x="238" y="0"/>
      <point x="134" y="70"/>
      <point x="134" y="227" type="curve" smooth="yes"/>
      <point x="134" y="572"/>
      <point x="738" y="506"/>
      <point x="893" y="700" type="curve" smooth="yes"/>
      <point x="910" y="722"/>
      <point x="919" y="751"/>
      <point x="919" y="786" type="curve" smooth="yes"/>
      <point x="919" y="925"/>
      <point x="795" y="950"/>
      <point x="637" y="950" type="curve" smooth="yes"/>
      <point x="526" y="950"/>
      <point x="447" y="942"/>
      <point x="399" y="926" type="curve" smooth="no"/>
      <point x="402" y="927"/>
      <point x="407" y="928"/>
      <point x="410" y="928" type="curve" smooth="yes"/>
      <point x="519" y="928"/>
      <point x="597" y="862"/>
    </contour>
  </outline>
</glyph>
<glyph name="uni0E8D" format="1">
  <advance width="1334"/>
  <unicode hex="0e8d"/>
  <outline>
    <contour>
      <point x="695.969" y="178" type="curve" smooth="yes"/>
      <point x="914.969" y="178"/>
      <point x="986.969" y="258"/>
      <point x="986.969" y="477" type="curve" smooth="yes"/>
      <point x="986.969" y="1170" type="line" smooth="no"/>
      <point x="1269.97" y="1170" type="line" smooth="no"/>
      <point x="1269.97" y="473" type="line" smooth="yes"/>
      <point x="1269.97" y="102"/>
      <point x="1045.97" y="0"/>
      <point x="669.969" y="0" type="curve" smooth="yes"/>
      <point x="389.969" y="0"/>
      <point x="127.969" y="63"/>
      <point x="127.969" y="307" type="curve" smooth="yes"/>
      <point x="127.969" y="454"/>
      <point x="261.969" y="518"/>
      <point x="427.969" y="531" type="curve" smooth="no"/>
      <point x="259.969" y="549"/>
      <point x="127.969" y="651"/>
      <point x="127.969" y="817" type="curve" smooth="yes"/>
      <point x="127.969" y="1021"/>
      <point x="237.969" y="1170"/>
      <point x="438.969" y="1170" type="curve" smooth="yes"/>
      <point x="613.969" y="1170"/>
      <point x="717.969" y="1104"/>
      <point x="717.969" y="940" type="curve" smooth="yes"/>
      <point x="717.969" y="824"/>
      <point x="634.969" y="739"/>
      <point x="518.969" y="739" type="curve" smooth="yes"/>
      <point x="470.969" y="739"/>
      <point x="426.969" y="749"/>
      <point x="389.969" y="793" type="curve" smooth="no"/>
      <point x="389.969" y="669"/>
      <point x="438.969" y="617"/>
      <point x="559.969" y="617" type="curve" smooth="yes"/>
      <point x="716.969" y="617" type="line" smooth="no"/>
      <point x="716.969" y="450" type="line" smooth="no"/>
      <point x="559.969" y="450" type="line" smooth="yes"/>
      <point x="464.969" y="450"/>
      <point x="410.969" y="401"/>
      <point x="410.969" y="307" type="curve" smooth="yes"/>
      <point x="410.969" y="190"/>
      <point x="548.969" y="178"/>
    </contour>
    <contour>
      <point x="464.969" y="869" type="line" smooth="yes"/>
      <point x="520.969" y="869"/>
      <point x="551.969" y="893"/>
      <point x="551.969" y="941" type="curve" smooth="yes"/>
      <point x="551.969" y="996"/>
      <point x="528.969" y="1034"/>
      <point x="475.969" y="1034" type="curve" smooth="yes"/>
      <point x="406.969" y="1034"/>
      <point x="389.969" y="983"/>
      <point x="389.969" y="918" type="curve" smooth="yes"/>
      <point x="389.969" y="869" type="line" smooth="no"/>
    </contour>
  </outline>
</glyph>
<glyph name="uni0E94" format="1">
  <advance width="1283"/>
  <unicode hex="0e94"/>
  <outline>
    <contour>
      <point x="929" y="654" type="line" smooth="yes"/>
      <point x="929" y="862"/>
      <point x="862" y="935"/>
      <point x="655" y="935" type="curve" smooth="yes"/>
      <point x="454" y="935"/>
      <point x="382" y="865"/>
      <point x="382" y="664" type="curve" smooth="yes"/>
      <point x="382" y="385" type="line" smooth="no"/>
      <point x="419" y="397" type="line" smooth="yes"/>
      <point x="437" y="403"/>
      <point x="460" y="406"/>
      <point x="482" y="406" type="curve" smooth="yes"/>
      <point x="597" y="406"/>
      <point x="671" y="323"/>
      <point x="671" y="207" type="curve" smooth="yes"/>
      <point x="671" y="52"/>
      <point x="567" y="0"/>
      <point x="399" y="0" type="curve" smooth="yes"/>
      <point x="213" y="0"/>
      <point x="116" y="147"/>
      <point x="116" y="335" type="curve" smooth="yes"/>
      <point x="116" y="658" type="line" smooth="yes"/>
      <point x="116" y="994"/>
      <point x="316" y="1104"/>
      <point x="655" y="1104" type="curve" smooth="yes"/>
      <point x="994" y="1104"/>
      <point x="1198" y="993"/>
      <point x="1198" y="658" type="curve" smooth="yes"/>
      <point x="1198" y="0" type="line" smooth="no"/>
      <point x="929" y="0" type="line" smooth="no"/>
    </contour>
    <contour>
      <point x="447" y="139" type="curve" smooth="yes"/>
      <point x="487" y="139"/>
      <point x="505" y="169"/>
      <point x="505" y="212" type="curve" smooth="yes"/>
      <point x="505" y="256"/>
      <point x="477" y="283"/>
      <point x="432" y="283" type="curve" smooth="yes"/>
      <point x="382" y="283" type="line" smooth="no"/>
      <point x="382" y="227" type="line" smooth="yes"/>
      <point x="382" y="173"/>
      <point x="397" y="139"/>
    </contour>
  </outline>
</glyph>
<glyph name="uni0E95" format="1">
  <advance width="1660"/>
  <unicode hex="0e95"/>
  <outline>
    <contour>
      <point x="854.969" y="994" type="curve" smooth="no"/>
      <point x="896.969" y="1104"/>
      <point x="1009.97" y="1170"/>
      <point x="1163.97" y="1170" type="curve" smooth="yes"/>
      <point x="1438.97" y="1170"/>
      <point x="1575.97" y="1011"/>
      <point x="1575.97" y="693" type="curve" smooth="yes"/>
      <point x="1575.97" y="0" type="line" smooth="no"/>
      <point x="1291.97" y="0" type="line" smooth="no"/>
      <point x="1291.97" y="713" type="line" smooth="yes"/>
      <point x="1291.97" y="862"/>
      <point x="1280.97" y="991"/>
      <point x="1129.97" y="991" type="curve" smooth="yes"/>
      <point x="1010.97" y="991"/>
      <point x="996.969" y="867"/>
      <point x="996.969" y="748" type="curve" smooth="yes"/>
      <point x="996.969" y="558" type="line" smooth="no"/>
      <point x="712.969" y="558" type="line" smooth="no"/>
      <point x="712.969" y="709" type="line" smooth="yes"/>
      <point x="712.969" y="844"/>
      <point x="708.969" y="991"/>
      <point x="573.969" y="991" type="curve" smooth="yes"/>
      <point x="425.969" y="991"/>
      <point x="410.969" y="900"/>
      <point x="410.969" y="748" type="curve" smooth="yes"/>
      <point x="410.969" y="410" type="line" smooth="no"/>
      <point x="450.969" y="423" type="line" smooth="yes"/>
      <point x="473.969" y="430"/>
      <point x="487.969" y="434"/>
      <point x="518.969" y="434" type="curve" smooth="yes"/>
      <point x="637.969" y="434"/>
      <point x="717.969" y="339"/>
      <point x="717.969" y="219" type="curve" smooth="yes"/>
      <point x="717.969" y="60"/>
      <point x="607.969" y="0"/>
      <point x="436.969" y="0" type="curve" smooth="yes"/>
      <point x="239.969" y="0"/>
      <point x="127.969" y="139"/>
      <point x="127.969" y="337" type="curve" smooth="yes"/>
      <point x="127.969" y="697" type="line" smooth="yes"/>
      <point x="127.969" y="1008"/>
      <point x="249.969" y="1170"/>
      <point x="548.969" y="1170" type="curve" smooth="yes"/>
      <point x="703.969" y="1170"/>
      <point x="814.969" y="1108"/>
    </contour>
    <contour>
      <point x="479.969" y="147" type="curve" smooth="yes"/>
      <point x="520.969" y="147"/>
      <point x="540.969" y="180"/>
      <point x="540.969" y="225" type="curve" smooth="yes"/>
      <point x="539.969" y="275"/>
      <point x="514.969" y="299"/>
      <point x="462.969" y="299" type="curve" smooth="yes"/>
      <point x="410.969" y="299" type="line" smooth="no"/>
      <point x="410.969" y="235" type="line" smooth="yes"/>
      <point x="410.969" y="182"/>
      <point x="430.969" y="147"/>
    </contour>
  </outline>
</glyph>
<glyph name="uni0E96" format="1">
  <advance width="1434"/>
  <unicode hex="0e96"/>
  <outline>
    <contour>
      <point x="848.799" y="1170" type="curve" smooth="yes"/>
      <point x="1163.8" y="1170"/>
      <point x="1376.8" y="1015"/>
      <point x="1376.8" y="702" type="curve" smooth="yes"/>
      <point x="1376.8" y="-330" type="line" smooth="no"/>
      <point x="1092.8" y="-330" type="line" smooth="no"/>
      <point x="1092.8" y="701" type="line" smooth="yes"/>
      <point x="1092.8" y="895"/>
      <point x="1016.8" y="991"/>
      <point x="825.799" y="991" type="curve" smooth="yes"/>
      <point x="720.799" y="991"/>
      <point x="655.799" y="956"/>
      <point x="577.799" y="907" type="curve" smooth="no"/>
      <point x="577.799" y="409" type="line" smooth="no"/>
      <point x="614.799" y="422" type="line" smooth="yes"/>
      <point x="632.799" y="428"/>
      <point x="654.799" y="429"/>
      <point x="677.799" y="429" type="curve" smooth="yes"/>
      <point x="798.799" y="429"/>
      <point x="882.799" y="340"/>
      <point x="882.799" y="219" type="curve" smooth="yes"/>
      <point x="882.799" y="73"/>
      <point x="786.799" y="0"/>
      <point x="592.799" y="0" type="curve" smooth="yes"/>
      <point x="392.799" y="0"/>
      <point x="293.799" y="157"/>
      <point x="293.799" y="359" type="curve" smooth="yes"/>
      <point x="293.799" y="767" type="line" smooth="no"/>
      <point x="271.799" y="763"/>
      <point x="243.799" y="761"/>
      <point x="212.799" y="761" type="curve" smooth="yes"/>
      <point x="86.7988" y="761"/>
      <point x="-5.20117" y="839"/>
      <point x="-5.20117" y="965" type="curve" smooth="yes"/>
      <point x="-5.20117" y="1111"/>
      <point x="93.7988" y="1170"/>
      <point x="248.799" y="1170" type="curve" smooth="yes"/>
      <point x="352.799" y="1170"/>
      <point x="439.799" y="1137"/>
      <point x="508.799" y="1070" type="curve" smooth="no"/>
      <point x="619.799" y="1137"/>
      <point x="732.799" y="1170"/>
    </contour>
    <contour>
      <point x="641.799" y="147" type="curve" smooth="no"/>
      <point x="681.799" y="147"/>
      <point x="706.799" y="177"/>
      <point x="706.799" y="220" type="curve" smooth="no"/>
      <point x="702.799" y="271"/>
      <point x="675.799" y="298"/>
      <point x="625.799" y="300" type="curve" smooth="no"/>
      <point x="577.799" y="300" type="line" smooth="no"/>
      <point x="577.799" y="240" type="line" smooth="no"/>
      <point x="584.799" y="184"/>
      <point x="606.799" y="152"/>
    </contour>
    <contour>
      <point x="229.799" y="1040" type="curve" smooth="yes"/>
      <point x="190.799" y="1040"/>
      <point x="172.799" y="1015"/>
      <point x="171.799" y="978" type="curve" smooth="no"/>
      <point x="172.799" y="936"/>
      <point x="189.799" y="915"/>
      <point x="224.799" y="915" type="curve" smooth="yes"/>
      <point x="244.799" y="915"/>
      <point x="268.799" y="920"/>
      <point x="293.799" y="931" type="curve" smooth="no"/>
      <point x="290.799" y="1004"/>
      <point x="268.799" y="1040"/>
    </contour>
  </outline>
</glyph>
<glyph name="uni0E97" format="1">
  <advance width="1455"/>
  <unicode hex="0e97"/>
  <outline>
    <contour>
      <point x="919" y="463" type="line" smooth="yes"/>
      <point x="919" y="171"/>
      <point x="807" y="0"/>
      <point x="528" y="0" type="curve" smooth="yes"/>
      <point x="308" y="0"/>
      <point x="162" y="85"/>
      <point x="162" y="295" type="curve" smooth="yes"/>
      <point x="162" y="333"/>
      <point x="172" y="363"/>
      <point x="181" y="398" type="curve" smooth="yes"/>
      <point x="266" y="705" type="line" smooth="no"/>
      <point x="243" y="698"/>
      <point x="227" y="697"/>
      <point x="201" y="697" type="curve" smooth="yes"/>
      <point x="88" y="697"/>
      <point x="15" y="787"/>
      <point x="15" y="901" type="curve" smooth="yes"/>
      <point x="15" y="1045"/>
      <point x="127" y="1104"/>
      <point x="284" y="1104" type="curve" smooth="yes"/>
      <point x="421" y="1104"/>
      <point x="552" y="1037"/>
      <point x="552" y="902" type="curve" smooth="yes"/>
      <point x="552" y="879"/>
      <point x="549" y="858"/>
      <point x="543" y="839" type="curve" smooth="no"/>
      <point x="419" y="346" type="line" smooth="no"/>
      <point x="417" y="331"/>
      <point x="414" y="315"/>
      <point x="414" y="299" type="curve" smooth="yes"/>
      <point x="414" y="288" type="line" smooth="no"/>
      <point x="419" y="207"/>
      <point x="456" y="167"/>
      <point x="525" y="167" type="curve" smooth="yes"/>
      <point x="644" y="167"/>
      <point x="652" y="310"/>
      <point x="652" y="457" type="curve" smooth="yes"/>
      <point x="652" y="737" type="line" smooth="yes"/>
      <point x="652" y="991"/>
      <point x="776" y="1104"/>
      <point x="1029" y="1104" type="curve" smooth="yes"/>
      <point x="1289" y="1104"/>
      <point x="1380" y="952"/>
      <point x="1380" y="683" type="curve" smooth="yes"/>
      <point x="1380" y="0" type="line" smooth="no"/>
      <point x="1112" y="0" type="line" smooth="no"/>
      <point x="1112" y="685" type="line" smooth="yes"/>
      <point x="1112" y="701.627"/>
      <point x="1112.21" y="718.999"/>
      <point x="1112.21" y="736.501" type="curve" smooth="yes"/>
      <point x="1112.21" y="833.736"/>
      <point x="1105.75" y="935"/>
      <point x="1021" y="935" type="curve" smooth="yes"/>
      <point x="928" y="935"/>
      <point x="919" y="856"/>
      <point x="919" y="760" type="curve" smooth="yes"/>
    </contour>
    <contour>
      <point x="248" y="965" type="curve" smooth="yes"/>
      <point x="204" y="965"/>
      <point x="182" y="938"/>
      <point x="182" y="892" type="curve" smooth="yes"/>
      <point x="183" y="845"/>
      <point x="212" y="821"/>
      <point x="268" y="821" type="curve" smooth="yes"/>
      <point x="297" y="821" type="line" smooth="no"/>
      <point x="314" y="879" type="line" smooth="no"/>
      <point x="317" y="884"/>
      <point x="318" y="891"/>
      <point x="318" y="901" type="curve" smooth="yes"/>
      <point x="318" y="941"/>
      <point x="290" y="965"/>
    </contour>
  </outline>
</glyph>
<glyph name="uni0E99" format="1">
  <advance width="1420"/>
  <unicode hex="0e99"/>
  <outline>
    <contour>
      <point x="66" y="899" type="curve" smooth="yes"/>
      <point x="66" y="1047"/>
      <point x="174" y="1104"/>
      <point x="336" y="1104" type="curve" smooth="yes"/>
      <point x="522" y="1104"/>
      <point x="622" y="965"/>
      <point x="622" y="777" type="curve" smooth="yes"/>
      <point x="622" y="467" type="line" smooth="yes"/>
      <point x="622" y="273"/>
      <point x="666" y="167"/>
      <point x="857" y="167" type="curve" smooth="yes"/>
      <point x="1039" y="167"/>
      <point x="1088" y="253"/>
      <point x="1088" y="436" type="curve" smooth="yes"/>
      <point x="1088" y="1104" type="line" smooth="no"/>
      <point x="1355" y="1104" type="line" smooth="no"/>
      <point x="1355" y="470" type="line" smooth="yes"/>
      <point x="1355" y="153"/>
      <point x="1184" y="0"/>
      <point x="864" y="0" type="curve" smooth="yes"/>
      <point x="663" y="0"/>
      <point x="520" y="76"/>
      <point x="480" y="235" type="curve" smooth="no"/>
      <point x="444" y="79"/>
      <point x="321" y="0"/>
      <point x="124" y="0" type="curve" smooth="no"/>
      <point x="124" y="170" type="line" smooth="no"/>
      <point x="278" y="171"/>
      <point x="355" y="269"/>
      <point x="355" y="465" type="curve" smooth="yes"/>
      <point x="355" y="719" type="line" smooth="no"/>
      <point x="313" y="705"/>
      <point x="282" y="698"/>
      <point x="261" y="698" type="curve" smooth="yes"/>
      <point x="142" y="698"/>
      <point x="66" y="779"/>
    </contour>
    <contour>
      <point x="233" y="892" type="curve" smooth="yes"/>
      <point x="233" y="845"/>
      <point x="264" y="821"/>
      <point x="312" y="821" type="curve" smooth="yes"/>
      <point x="355" y="821" type="line" smooth="no"/>
      <point x="355" y="877" type="line" smooth="yes"/>
      <point x="355" y="933"/>
      <point x="334" y="962"/>
      <point x="291" y="965" type="curve" smooth="no"/>
      <point x="252" y="965"/>
      <point x="233" y="941"/>
    </contour>
  </outline>
</glyph>
<glyph name="uni0E9A" format="1">
  <advance width="1425"/>
  <unicode hex="0e9a"/>
  <outline>
    <contour>
      <point x="16.6465" y="950" type="curve" smooth="yes"/>
      <point x="16.6465" y="1104"/>
      <point x="124.646" y="1170"/>
      <point x="290.646" y="1170" type="curve" smooth="yes"/>
      <point x="447.646" y="1170"/>
      <point x="575.646" y="1079"/>
      <point x="575.646" y="923" type="curve" smooth="yes"/>
      <point x="575.646" y="843"/>
      <point x="547.646" y="771"/>
      <point x="523.646" y="672" type="curve" smooth="yes"/>
      <point x="473.646" y="475" type="line" smooth="yes"/>
      <point x="459.646" y="423"/>
      <point x="453.646" y="379"/>
      <point x="453.646" y="344" type="curve" smooth="yes"/>
      <point x="453.646" y="219"/>
      <point x="597.646" y="177"/>
      <point x="728.646" y="177" type="curve" smooth="yes"/>
      <point x="951.646" y="177"/>
      <point x="1061.65" y="234"/>
      <point x="1061.65" y="454" type="curve" smooth="yes"/>
      <point x="1061.65" y="1170" type="line" smooth="no"/>
      <point x="1345.65" y="1170" type="line" smooth="no"/>
      <point x="1345.65" y="507" type="line" smooth="yes"/>
      <point x="1345.65" y="133"/>
      <point x="1121.65" y="0"/>
      <point x="732.646" y="0" type="curve" smooth="yes"/>
      <point x="451.646" y="0"/>
      <point x="187.646" y="88"/>
      <point x="187.646" y="360" type="curve" smooth="yes"/>
      <point x="187.646" y="399"/>
      <point x="196.646" y="437"/>
      <point x="206.646" y="472" type="curve" smooth="yes"/>
      <point x="282.646" y="748" type="line" smooth="no"/>
      <point x="261.646" y="742"/>
      <point x="238.646" y="739"/>
      <point x="216.646" y="739" type="curve" smooth="yes"/>
      <point x="98.6465" y="739"/>
      <point x="16.6465" y="832"/>
    </contour>
    <contour>
      <point x="336.646" y="951" type="line" smooth="no"/>
      <point x="336.646" y="998"/>
      <point x="307.646" y="1023"/>
      <point x="258.646" y="1023" type="curve" smooth="yes"/>
      <point x="215.646" y="1023"/>
      <point x="193.646" y="996"/>
      <point x="193.646" y="942" type="curve" smooth="yes"/>
      <point x="193.646" y="893"/>
      <point x="224.646" y="869"/>
      <point x="288.646" y="868" type="curve" smooth="no"/>
      <point x="295.646" y="868" type="line" smooth="no"/>
      <point x="296.646" y="869"/>
      <point x="299.646" y="869"/>
      <point x="305.646" y="869" type="curve" smooth="yes"/>
      <point x="314.646" y="869" type="line" smooth="no"/>
      <point x="323.646" y="898" type="line" smooth="yes"/>
      <point x="326.646" y="908"/>
      <point x="335.646" y="935"/>
      <point x="335.646" y="948" type="curve" smooth="no"/>
    </contour>
  </outline>
</glyph>
<glyph name="uni0E9B" format="1">
  <advance width="1353"/>
  <unicode hex="0e9b"/>
  <outline>
    <contour>
      <point x="15" y="896" type="curve" smooth="yes"/>
      <point x="15" y="1039"/>
      <point x="135" y="1104"/>
      <point x="281" y="1104" type="curve" smooth="yes"/>
      <point x="428" y="1104"/>
      <point x="542" y="1016"/>
      <point x="542" y="870" type="curve" smooth="yes"/>
      <point x="542" y="821"/>
      <point x="530" y="781"/>
      <point x="516" y="725" type="curve" smooth="yes"/>
      <point x="446" y="448" type="line" smooth="yes"/>
      <point x="433" y="399"/>
      <point x="427" y="359"/>
      <point x="427" y="326" type="curve" smooth="yes"/>
      <point x="427" y="202"/>
      <point x="560" y="167"/>
      <point x="706" y="167" type="curve" smooth="yes"/>
      <point x="914" y="167"/>
      <point x="1009" y="244"/>
      <point x="1009" y="451" type="curve" smooth="yes"/>
      <point x="1009" y="1427" type="line" smooth="no"/>
      <point x="1277" y="1427" type="line" smooth="no"/>
      <point x="1277" y="483" type="line" smooth="yes"/>
      <point x="1277" y="124"/>
      <point x="1056" y="0"/>
      <point x="694" y="0" type="curve" smooth="yes"/>
      <point x="430" y="0"/>
      <point x="176" y="82"/>
      <point x="176" y="339" type="curve" smooth="yes"/>
      <point x="176" y="390"/>
      <point x="192" y="435"/>
      <point x="204" y="481" type="curve" smooth="yes"/>
      <point x="267" y="705" type="line" smooth="no"/>
      <point x="247" y="700"/>
      <point x="226" y="697"/>
      <point x="203" y="697" type="curve" smooth="yes"/>
      <point x="93" y="697"/>
      <point x="15" y="785"/>
    </contour>
    <contour>
      <point x="317" y="902" type="curve" smooth="no"/>
      <point x="317" y="942"/>
      <point x="294" y="965"/>
      <point x="253" y="965" type="curve" smooth="yes"/>
      <point x="206" y="964"/>
      <point x="182" y="938"/>
      <point x="182" y="889" type="curve" smooth="yes"/>
      <point x="182" y="842"/>
      <point x="210" y="819"/>
      <point x="266" y="819" type="curve" smooth="yes"/>
      <point x="297" y="819" type="line" smooth="no"/>
      <point x="308" y="857" type="line" smooth="yes"/>
      <point x="313" y="874"/>
      <point x="314" y="887"/>
    </contour>
  </outline>
</glyph>
<glyph name="uni0E9C" format="1">
  <advance width="1671"/>
  <unicode hex="0e9c"/>
  <outline>
    <contour>
      <point x="1245.86" y="930" type="line" smooth="yes"/>
      <point x="1245.86" y="985"/>
      <point x="1227.86" y="1021"/>
      <point x="1178.86" y="1023" type="curve" smooth="no"/>
      <point x="1139.86" y="1023"/>
      <point x="1115.86" y="990"/>
      <point x="1115.86" y="948" type="curve" smooth="yes"/>
      <point x="1115.86" y="896"/>
      <point x="1145.86" y="870"/>
      <point x="1205.86" y="870" type="curve" smooth="yes"/>
      <point x="1226.86" y="870" type="line" smooth="yes"/>
      <point x="1232.86" y="870"/>
      <point x="1240.86" y="870"/>
      <point x="1245.86" y="871" type="curve" smooth="no"/>
    </contour>
    <contour>
      <point x="564.858" y="950" type="curve" smooth="yes"/>
      <point x="564.858" y="993"/>
      <point x="544.858" y="1023"/>
      <point x="501.858" y="1023" type="curve" smooth="no"/>
      <point x="455.858" y="1020"/>
      <point x="433.858" y="989"/>
      <point x="433.858" y="930" type="curve" smooth="yes"/>
      <point x="433.858" y="870" type="line" smooth="no"/>
      <point x="478.858" y="870" type="line" smooth="no"/>
      <point x="530.858" y="873"/>
      <point x="564.858" y="897"/>
    </contour>
    <contour>
      <point x="1245.86" y="747" type="line" smooth="no"/>
      <point x="1216.86" y="741"/>
      <point x="1184.86" y="740"/>
      <point x="1148.86" y="740" type="curve" smooth="yes"/>
      <point x="1021.86" y="740"/>
      <point x="939.858" y="826"/>
      <point x="939.858" y="954" type="curve" smooth="yes"/>
      <point x="939.858" y="1112"/>
      <point x="1053.86" y="1170"/>
      <point x="1223.86" y="1170" type="curve" smooth="yes"/>
      <point x="1347.86" y="1170"/>
      <point x="1426.86" y="1118"/>
      <point x="1473.86" y="1035" type="curve" smooth="no"/>
      <point x="1483.86" y="1060"/>
      <point x="1487.86" y="1096"/>
      <point x="1487.86" y="1142" type="curve" smooth="yes"/>
      <point x="1487.86" y="1305" type="line" smooth="no"/>
      <point x="1662.86" y="1305" type="line" smooth="no"/>
      <point x="1662.86" y="1142" type="line" smooth="yes"/>
      <point x="1662.86" y="1014"/>
      <point x="1600.86" y="931"/>
      <point x="1523.86" y="866" type="curve" smooth="no"/>
      <point x="1525.86" y="835"/>
      <point x="1528.86" y="808"/>
      <point x="1528.86" y="778" type="curve" smooth="yes"/>
      <point x="1528.86" y="511" type="line" smooth="yes"/>
      <point x="1528.86" y="171"/>
      <point x="1403.86" y="0"/>
      <point x="1153.86" y="0" type="curve" smooth="yes"/>
      <point x="971.858" y="0"/>
      <point x="864.858" y="76"/>
      <point x="835.858" y="228" type="curve" smooth="no"/>
      <point x="807.858" y="76"/>
      <point x="702.858" y="0"/>
      <point x="519.858" y="0" type="curve" smooth="yes"/>
      <point x="240.858" y="0"/>
      <point x="150.858" y="213"/>
      <point x="150.858" y="511" type="curve" smooth="yes"/>
      <point x="150.858" y="810" type="line" smooth="yes"/>
      <point x="150.858" y="1019"/>
      <point x="245.858" y="1170"/>
      <point x="452.858" y="1170" type="curve" smooth="yes"/>
      <point x="627.858" y="1170"/>
      <point x="741.858" y="1114"/>
      <point x="741.858" y="953" type="curve" smooth="yes"/>
      <point x="741.858" y="829"/>
      <point x="658.858" y="740"/>
      <point x="533.858" y="740" type="curve" smooth="yes"/>
      <point x="498.858" y="740"/>
      <point x="465.858" y="746"/>
      <point x="433.858" y="760" type="curve" smooth="no"/>
      <point x="433.858" y="429" type="line" smooth="yes"/>
      <point x="433.858" y="304"/>
      <point x="440.858" y="177"/>
      <point x="559.858" y="177" type="curve" smooth="yes"/>
      <point x="670.858" y="177"/>
      <point x="696.858" y="298"/>
      <point x="696.858" y="429" type="curve" smooth="yes"/>
      <point x="696.858" y="588" type="line" smooth="no"/>
      <point x="980.858" y="588" type="line" smooth="no"/>
      <point x="980.858" y="431" type="line" smooth="yes"/>
      <point x="980.858" y="297"/>
      <point x="1002.86" y="177"/>
      <point x="1116.86" y="177" type="curve" smooth="yes"/>
      <point x="1229.86" y="177"/>
      <point x="1245.86" y="293"/>
      <point x="1245.86" y="427" type="curve" smooth="yes"/>
    </contour>
  </outline>
</glyph>
<glyph name="uni0E9D" format="1">
  <advance width="1649"/>
  <unicode hex="0e9d"/>
  <outline>
    <contour>
      <point x="432.817" y="429" type="line" smooth="yes"/>
      <point x="432.817" y="289"/>
      <point x="445.817" y="177"/>
      <point x="581.817" y="177" type="curve" smooth="yes"/>
      <point x="711.817" y="177"/>
      <point x="732.817" y="283"/>
      <point x="732.817" y="429" type="curve" smooth="yes"/>
      <point x="732.817" y="588" type="line" smooth="no"/>
      <point x="1016.82" y="588" type="line" smooth="no"/>
      <point x="1016.82" y="429" type="line" smooth="yes"/>
      <point x="1016.82" y="288"/>
      <point x="1039.82" y="177"/>
      <point x="1159.82" y="177" type="curve" smooth="yes"/>
      <point x="1288.82" y="177"/>
      <point x="1311.82" y="284"/>
      <point x="1311.82" y="429" type="curve" smooth="yes"/>
      <point x="1311.82" y="1513" type="line" smooth="no"/>
      <point x="1595.82" y="1513" type="line" smooth="no"/>
      <point x="1595.82" y="511" type="line" smooth="yes"/>
      <point x="1595.82" y="200"/>
      <point x="1491.82" y="0"/>
      <point x="1201.82" y="0" type="curve" smooth="yes"/>
      <point x="1002.82" y="0"/>
      <point x="910.817" y="77"/>
      <point x="872.817" y="228" type="curve" smooth="no"/>
      <point x="846.817" y="82"/>
      <point x="745.817" y="0"/>
      <point x="575.817" y="0" type="curve" smooth="yes"/>
      <point x="259.817" y="0"/>
      <point x="149.817" y="193"/>
      <point x="149.817" y="511" type="curve" smooth="yes"/>
      <point x="149.817" y="820" type="line" smooth="yes"/>
      <point x="149.817" y="1015"/>
      <point x="253.817" y="1170"/>
      <point x="446.817" y="1170" type="curve" smooth="yes"/>
      <point x="641.817" y="1170"/>
      <point x="739.817" y="1099"/>
      <point x="739.817" y="956" type="curve" smooth="yes"/>
      <point x="739.817" y="828"/>
      <point x="661.817" y="740"/>
      <point x="533.817" y="740" type="curve" smooth="yes"/>
      <point x="515.817" y="740"/>
      <point x="481.817" y="747"/>
      <point x="432.817" y="761" type="curve" smooth="no"/>
    </contour>
    <contour>
      <point x="563.817" y="953" type="curve" smooth="no"/>
      <point x="563.817" y="991"/>
      <point x="540.817" y="1023"/>
      <point x="501.817" y="1023" type="curve" smooth="yes"/>
      <point x="455.817" y="1023"/>
      <point x="432.817" y="993"/>
      <point x="432.817" y="930" type="curve" smooth="yes"/>
      <point x="432.817" y="870" type="line" smooth="no"/>
      <point x="476.817" y="870" type="line" smooth="no"/>
      <point x="531.817" y="877"/>
      <point x="560.817" y="905"/>
    </contour>
  </outline>
</glyph>
<glyph name="uni0E9E" format="1">
  <advance width="1607"/>
  <unicode hex="0e9e"/>
  <outline>
    <contour>
      <point x="285.646" y="1170" type="curve" smooth="yes"/>
      <point x="440.646" y="1170"/>
      <point x="575.646" y="1087"/>
      <point x="575.646" y="934" type="curve" smooth="yes"/>
      <point x="575.646" y="915"/>
      <point x="570.646" y="883"/>
      <point x="562.646" y="837" type="curve" smooth="no"/>
      <point x="467.646" y="457" type="line" smooth="no"/>
      <point x="460.646" y="410"/>
      <point x="453.646" y="371"/>
      <point x="453.646" y="326" type="curve" smooth="yes"/>
      <point x="453.646" y="227"/>
      <point x="489.646" y="178"/>
      <point x="562.646" y="177" type="curve" smooth="no"/>
      <point x="689.646" y="177"/>
      <point x="703.646" y="278"/>
      <point x="703.646" y="407" type="curve" smooth="yes"/>
      <point x="703.646" y="1169" type="line" smooth="no"/>
      <point x="987.646" y="1169" type="line" smooth="no"/>
      <point x="987.646" y="407" type="line" smooth="yes"/>
      <point x="987.646" y="273"/>
      <point x="1012.65" y="177"/>
      <point x="1126.65" y="177" type="curve" smooth="yes"/>
      <point x="1240.65" y="177"/>
      <point x="1255.65" y="276"/>
      <point x="1255.65" y="406" type="curve" smooth="yes"/>
      <point x="1255.65" y="1170" type="line" smooth="no"/>
      <point x="1538.65" y="1170" type="line" smooth="no"/>
      <point x="1538.65" y="512" type="line" smooth="yes"/>
      <point x="1538.65" y="207"/>
      <point x="1445.65" y="0"/>
      <point x="1163.65" y="0" type="curve" smooth="yes"/>
      <point x="985.646" y="0"/>
      <point x="879.646" y="82"/>
      <point x="844.646" y="245" type="curve" smooth="no"/>
      <point x="819.646" y="88"/>
      <point x="712.646" y="0"/>
      <point x="526.646" y="0" type="curve" smooth="yes"/>
      <point x="312.646" y="0"/>
      <point x="186.646" y="116"/>
      <point x="186.646" y="330" type="curve" smooth="yes"/>
      <point x="186.646" y="382"/>
      <point x="192.646" y="427"/>
      <point x="205.646" y="470" type="curve" smooth="yes"/>
      <point x="281.646" y="747" type="line" smooth="no"/>
      <point x="260.646" y="742"/>
      <point x="240.646" y="739"/>
      <point x="215.646" y="739" type="curve" smooth="yes"/>
      <point x="96.6465" y="739"/>
      <point x="16.6465" y="830"/>
      <point x="16.6465" y="950" type="curve" smooth="yes"/>
      <point x="16.6465" y="1104"/>
      <point x="121.646" y="1170"/>
    </contour>
    <contour>
      <point x="335.646" y="955" type="curve" smooth="yes"/>
      <point x="335.646" y="1003"/>
      <point x="309.646" y="1023"/>
      <point x="262.646" y="1023" type="curve" smooth="no"/>
      <point x="220.646" y="1019"/>
      <point x="196.646" y="994"/>
      <point x="193.646" y="948" type="curve" smooth="no"/>
      <point x="193.646" y="890"/>
      <point x="223.646" y="869"/>
      <point x="283.646" y="869" type="curve" smooth="yes"/>
      <point x="314.646" y="869" type="line" smooth="no"/>
      <point x="326.646" y="915" type="line" smooth="yes"/>
      <point x="328.646" y="925"/>
      <point x="335.646" y="943"/>
    </contour>
  </outline>
</glyph>
<glyph name="uni0E9F" format="1">
  <advance width="1603"/>
  <unicode hex="0e9f"/>
  <outline>
    <contour>
      <point x="189.646" y="765" type="curve" smooth="yes"/>
      <point x="77.6465" y="765"/>
      <point x="16.6465" y="845"/>
      <point x="16.6465" y="962" type="curve" smooth="yes"/>
      <point x="16.6465" y="1111"/>
      <point x="133.646" y="1170"/>
      <point x="297.646" y="1170" type="curve" smooth="yes"/>
      <point x="435.646" y="1170"/>
      <point x="568.646" y="1106"/>
      <point x="568.646" y="971" type="curve" smooth="yes"/>
      <point x="568.646" y="942"/>
      <point x="561.646" y="897"/>
      <point x="546.646" y="834" type="curve" smooth="yes"/>
      <point x="459.646" y="478" type="line" smooth="yes"/>
      <point x="446.646" y="426"/>
      <point x="437.646" y="389"/>
      <point x="437.646" y="344" type="curve" smooth="yes"/>
      <point x="437.646" y="233"/>
      <point x="475.646" y="177"/>
      <point x="550.646" y="177" type="curve" smooth="yes"/>
      <point x="674.646" y="177"/>
      <point x="688.646" y="281"/>
      <point x="688.646" y="407" type="curve" smooth="yes"/>
      <point x="688.646" y="1169" type="line" smooth="no"/>
      <point x="971.646" y="1169" type="line" smooth="no"/>
      <point x="971.646" y="406" type="line" smooth="yes"/>
      <point x="971.646" y="272"/>
      <point x="994.646" y="177"/>
      <point x="1111.65" y="177" type="curve" smooth="yes"/>
      <point x="1230.65" y="177"/>
      <point x="1239.65" y="285"/>
      <point x="1239.65" y="407" type="curve" smooth="yes"/>
      <point x="1239.65" y="1514" type="line" smooth="no"/>
      <point x="1522.65" y="1514" type="line" smooth="no"/>
      <point x="1522.65" y="512" type="line" smooth="yes"/>
      <point x="1522.65" y="171"/>
      <point x="1397.65" y="0"/>
      <point x="1148.65" y="0" type="curve" smooth="yes"/>
      <point x="970.646" y="0"/>
      <point x="860.646" y="82"/>
      <point x="827.646" y="245" type="curve" smooth="no"/>
      <point x="796.646" y="87"/>
      <point x="693.646" y="5"/>
      <point x="520.646" y="0" type="curve" smooth="no"/>
      <point x="510.646" y="0" type="line" smooth="no"/>
      <point x="284.646" y="1"/>
      <point x="171.646" y="109"/>
      <point x="171.646" y="336" type="curve" smooth="yes"/>
      <point x="171.646" y="386"/>
      <point x="179.646" y="430"/>
      <point x="193.646" y="479" type="curve" smooth="yes"/>
      <point x="275.646" y="779" type="line" smooth="no"/>
      <point x="254.646" y="769"/>
      <point x="225.646" y="765"/>
    </contour>
    <contour>
      <point x="252.646" y="1037" type="curve" smooth="no"/>
      <point x="205.646" y="1030"/>
      <point x="181.646" y="1003"/>
      <point x="178.646" y="962" type="curve" smooth="no"/>
      <point x="178.646" y="887"/>
      <point x="221.646" y="880"/>
      <point x="303.646" y="880" type="curve" smooth="no"/>
      <point x="311.646" y="904" type="line" smooth="no"/>
      <point x="325.646" y="968" type="line" smooth="no"/>
      <point x="325.646" y="974" type="line" smooth="no"/>
      <point x="324.646" y="1014"/>
      <point x="300.646" y="1036"/>
    </contour>
  </outline>
</glyph>
<glyph name="uni0EA1" format="1">
  <advance width="1664"/>
  <unicode hex="0ea1"/>
  <outline>
    <contour>
      <point x="839" y="477" type="line" smooth="yes"/>
      <point x="839" y="285"/>
      <point x="893" y="167"/>
      <point x="1069" y="167" type="curve" smooth="yes"/>
      <point x="1248" y="167"/>
      <point x="1311" y="257"/>
      <point x="1311" y="438" type="curve" smooth="yes"/>
      <point x="1311" y="1104" type="line" smooth="no"/>
      <point x="1578" y="1104" type="line" smooth="no"/>
      <point x="1578" y="478" type="line" smooth="yes"/>
      <point x="1578" y="159"/>
      <point x="1414" y="0"/>
      <point x="1087" y="0" type="curve" smooth="yes"/>
      <point x="890" y="0"/>
      <point x="742" y="79"/>
      <point x="703" y="236" type="curve" smooth="no"/>
      <point x="666" y="83"/>
      <point x="506" y="0"/>
      <point x="315" y="0" type="curve" smooth="yes"/>
      <point x="158" y="0"/>
      <point x="35" y="61"/>
      <point x="35" y="215" type="curve" smooth="yes"/>
      <point x="35" y="333"/>
      <point x="122" y="407"/>
      <point x="241" y="407" type="curve" smooth="yes"/>
      <point x="374" y="407"/>
      <point x="464" y="352"/>
      <point x="464" y="225" type="curve" smooth="yes"/>
      <point x="464" y="198"/>
      <point x="461" y="179"/>
      <point x="454" y="166" type="curve" smooth="no"/>
      <point x="532" y="215"/>
      <point x="571" y="316"/>
      <point x="571" y="470" type="curve" smooth="yes"/>
      <point x="571" y="1104" type="line" smooth="no"/>
      <point x="839" y="1104" type="line" smooth="no"/>
    </contour>
    <contour>
      <point x="261" y="283" type="curve" smooth="yes"/>
      <point x="223" y="283"/>
      <point x="203" y="255"/>
      <point x="203" y="218" type="curve" smooth="yes"/>
      <point x="203" y="154"/>
      <point x="255" y="144"/>
      <point x="323" y="140" type="curve" smooth="no"/>
      <point x="323" y="212" type="line" smooth="no"/>
      <point x="318" y="252"/>
      <point x="303" y="283"/>
    </contour>
  </outline>
</glyph>
<glyph name="uni0EA2" format="1">
  <advance width="1353"/>
  <unicode hex="0ea2"/>
  <outline>
    <contour>
      <point x="423.454" y="311" type="curve" smooth="yes"/>
      <point x="423.454" y="185"/>
      <point x="574.454" y="178"/>
      <point x="708.454" y="178" type="curve" smooth="yes"/>
      <point x="915.454" y="178"/>
      <point x="998.454" y="241"/>
      <point x="998.454" y="448" type="curve" smooth="yes"/>
      <point x="998.454" y="1137" type="line" smooth="yes"/>
      <point x="998.454" y="1318"/>
      <point x="1020.45" y="1466"/>
      <point x="1066.45" y="1578" type="curve" smooth="no"/>
      <point x="1333.45" y="1578" type="line" smooth="no"/>
      <point x="1299.45" y="1439"/>
      <point x="1281.45" y="1291"/>
      <point x="1281.45" y="1113" type="curve" smooth="yes"/>
      <point x="1281.45" y="473" type="line" smooth="yes"/>
      <point x="1281.45" y="116"/>
      <point x="1067.45" y="0"/>
      <point x="708.454" y="0" type="curve" smooth="yes"/>
      <point x="414.454" y="0"/>
      <point x="140.454" y="54"/>
      <point x="140.454" y="307" type="curve" smooth="yes"/>
      <point x="140.454" y="454"/>
      <point x="259.454" y="531"/>
      <point x="408.454" y="531" type="curve" smooth="no"/>
      <point x="255.454" y="547"/>
      <point x="140.454" y="648"/>
      <point x="140.454" y="817" type="curve" smooth="yes"/>
      <point x="140.454" y="1022"/>
      <point x="248.454" y="1170"/>
      <point x="450.454" y="1170" type="curve" smooth="yes"/>
      <point x="637.454" y="1170"/>
      <point x="730.454" y="1094"/>
      <point x="730.454" y="940" type="curve" smooth="yes"/>
      <point x="730.454" y="819"/>
      <point x="641.454" y="738"/>
      <point x="520.454" y="738" type="curve" smooth="yes"/>
      <point x="482.454" y="738"/>
      <point x="463.454" y="748"/>
      <point x="423.454" y="761" type="curve" smooth="no"/>
      <point x="423.454" y="755" type="line" smooth="yes"/>
      <point x="423.454" y="657"/>
      <point x="473.454" y="617"/>
      <point x="572.454" y="617" type="curve" smooth="yes"/>
      <point x="729.454" y="617" type="line" smooth="no"/>
      <point x="729.454" y="450" type="line" smooth="no"/>
      <point x="572.454" y="450" type="line" smooth="yes"/>
      <point x="477.454" y="450"/>
      <point x="423.454" y="405"/>
    </contour>
    <contour>
      <point x="477.454" y="869" type="line" smooth="yes"/>
      <point x="522.454" y="869"/>
      <point x="553.454" y="895"/>
      <point x="553.454" y="941" type="curve" smooth="yes"/>
      <point x="553.454" y="995"/>
      <point x="530.454" y="1023"/>
      <point x="487.454" y="1023" type="curve" smooth="yes"/>
      <point x="444.454" y="1022"/>
      <point x="423.454" y="987"/>
      <point x="423.454" y="918" type="curve" smooth="yes"/>
      <point x="423.454" y="869" type="line" smooth="no"/>
    </contour>
  </outline>
</glyph>
<glyph name="uni0EA3" format="1">
  <advance width="1348"/>
  <unicode hex="0ea3"/>
  <outline>
    <contour>
      <point x="94.6768" y="348" type="curve" smooth="yes"/>
      <point x="94.6768" y="513"/>
      <point x="182.677" y="600"/>
      <point x="349.677" y="600" type="curve" smooth="yes"/>
      <point x="485.677" y="600"/>
      <point x="591.677" y="521"/>
      <point x="591.677" y="386" type="curve" smooth="yes"/>
      <point x="591.677" y="284"/>
      <point x="514.677" y="201"/>
      <point x="412.677" y="201" type="curve" smooth="no"/>
      <point x="378.677" y="207" type="line" smooth="no"/>
      <point x="428.677" y="185"/>
      <point x="528.677" y="174"/>
      <point x="676.677" y="174" type="curve" smooth="yes"/>
      <point x="834.677" y="174"/>
      <point x="1017.68" y="215"/>
      <point x="1017.68" y="366" type="curve" smooth="yes"/>
      <point x="1017.68" y="614"/>
      <point x="422.677" y="605"/>
      <point x="253.677" y="693" type="curve" smooth="yes"/>
      <point x="169.677" y="736"/>
      <point x="109.677" y="802"/>
      <point x="109.677" y="925" type="curve" smooth="yes"/>
      <point x="109.677" y="1139"/>
      <point x="390.677" y="1170"/>
      <point x="653.677" y="1170" type="curve" smooth="yes"/>
      <point x="968.677" y="1170"/>
      <point x="1244.68" y="1136"/>
      <point x="1244.68" y="832" type="curve" smooth="yes"/>
      <point x="1244.68" y="810" type="line" smooth="no"/>
      <point x="988.677" y="810" type="line" smooth="no"/>
      <point x="988.677" y="836" type="line" smooth="yes"/>
      <point x="988.677" y="990"/>
      <point x="825.677" y="991"/>
      <point x="665.677" y="991" type="curve" smooth="yes"/>
      <point x="658.677" y="991" type="line" smooth="yes"/>
      <point x="597.677" y="991" type="line" smooth="yes"/>
      <point x="505.677" y="991"/>
      <point x="393.677" y="985"/>
      <point x="393.677" y="921" type="curve" smooth="no"/>
      <point x="397.677" y="827"/>
      <point x="610.677" y="818"/>
      <point x="712.677" y="799" type="curve" smooth="yes"/>
      <point x="990.677" y="749"/>
      <point x="1280.68" y="698"/>
      <point x="1280.68" y="383" type="curve" smooth="yes"/>
      <point x="1280.68" y="95"/>
      <point x="983.677" y="0"/>
      <point x="686.677" y="0" type="curve" smooth="yes"/>
      <point x="408.677" y="0"/>
      <point x="94.6768" y="81"/>
    </contour>
    <contour>
      <point x="415.677" y="373" type="curve" smooth="yes"/>
      <point x="415.677" y="422"/>
      <point x="395.677" y="454"/>
      <point x="350.677" y="455" type="curve" smooth="no"/>
      <point x="304.677" y="454"/>
      <point x="281.677" y="415"/>
      <point x="280.677" y="335" type="curve" smooth="yes"/>
      <point x="280.677" y="323"/>
      <point x="283.677" y="312"/>
      <point x="285.677" y="299" type="curve" smooth="no"/>
      <point x="323.677" y="299" type="line" smooth="no"/>
      <point x="376.677" y="301"/>
      <point x="415.677" y="320"/>
    </contour>
  </outline>
</glyph>
<glyph name="uni0EA5" format="1">
  <advance width="1373"/>
  <unicode hex="0ea5"/>
  <outline>
    <contour>
      <point x="385.525" y="137" type="curve" smooth="yes"/>
      <point x="446.525" y="137"/>
      <point x="473.525" y="174"/>
      <point x="474.525" y="225" type="curve" smooth="yes"/>
      <point x="474.525" y="271"/>
      <point x="444.525" y="296"/>
      <point x="386.525" y="300" type="curve" smooth="no"/>
      <point x="325.525" y="300" type="line" smooth="no"/>
      <point x="325.525" y="295" type="line" smooth="yes"/>
      <point x="325.525" y="276" type="line" smooth="yes"/>
      <point x="325.525" y="209"/>
      <point x="328.525" y="137"/>
    </contour>
    <contour>
      <point x="1035.53" y="660" type="line" smooth="yes"/>
      <point x="1035.53" y="910"/>
      <point x="958.525" y="980"/>
      <point x="717.525" y="991" type="curve" smooth="no"/>
      <point x="527.525" y="991"/>
      <point x="407.525" y="937"/>
      <point x="387.525" y="780" type="curve" smooth="no"/>
      <point x="158.525" y="780" type="line" smooth="no"/>
      <point x="158.525" y="1076"/>
      <point x="420.525" y="1170"/>
      <point x="723.525" y="1170" type="curve" smooth="yes"/>
      <point x="1097.53" y="1170"/>
      <point x="1319.53" y="1044"/>
      <point x="1319.53" y="674" type="curve" smooth="yes"/>
      <point x="1319.53" y="448" type="line" smooth="yes"/>
      <point x="1319.53" y="179"/>
      <point x="1253.53" y="0"/>
      <point x="1019.53" y="0" type="curve" smooth="yes"/>
      <point x="711.525" y="0"/>
      <point x="760.525" y="477"/>
      <point x="471.525" y="477" type="curve" smooth="yes"/>
      <point x="404.525" y="477"/>
      <point x="364.525" y="446"/>
      <point x="341.525" y="392" type="curve" smooth="no"/>
      <point x="377.525" y="408"/>
      <point x="397.525" y="409"/>
      <point x="436.525" y="409" type="curve" smooth="no"/>
      <point x="550.525" y="399"/>
      <point x="629.525" y="326"/>
      <point x="629.525" y="218" type="curve" smooth="yes"/>
      <point x="629.525" y="75"/>
      <point x="525.525" y="0"/>
      <point x="369.525" y="0" type="curve" smooth="yes"/>
      <point x="216.525" y="0"/>
      <point x="116.525" y="116"/>
      <point x="116.525" y="307" type="curve" smooth="yes"/>
      <point x="116.525" y="480"/>
      <point x="262.525" y="600"/>
      <point x="471.525" y="600" type="curve" smooth="yes"/>
      <point x="828.525" y="600"/>
      <point x="932.525" y="220"/>
      <point x="982.525" y="220" type="curve" smooth="yes"/>
      <point x="1051.53" y="220"/>
      <point x="1035.53" y="319"/>
      <point x="1035.53" y="387" type="curve" smooth="yes"/>
    </contour>
  </outline>
</glyph>
<glyph name="uni0EA7" format="1">
  <advance width="1310"/>
  <unicode hex="0ea7"/>
  <outline>
    <contour>
      <point x="349.677" y="587" type="curve" smooth="yes"/>
      <point x="489.677" y="587"/>
      <point x="599.677" y="512"/>
      <point x="599.677" y="373" type="curve" smooth="yes"/>
      <point x="599.677" y="267"/>
      <point x="525.677" y="189"/>
      <point x="420.677" y="189" type="curve" smooth="no"/>
      <point x="364.677" y="198" type="line" smooth="no"/>
      <point x="428.677" y="174"/>
      <point x="521.677" y="161"/>
      <point x="645.677" y="161" type="curve" smooth="yes"/>
      <point x="876.677" y="161"/>
      <point x="981.677" y="257"/>
      <point x="981.677" y="483" type="curve" smooth="yes"/>
      <point x="981.677" y="660" type="line" smooth="yes"/>
      <point x="981.677" y="904"/>
      <point x="914.677" y="991"/>
      <point x="668.677" y="991" type="curve" smooth="yes"/>
      <point x="485.677" y="991"/>
      <point x="384.677" y="939"/>
      <point x="360.677" y="782" type="curve" smooth="no"/>
      <point x="130.677" y="782" type="line" smooth="no"/>
      <point x="130.677" y="1070"/>
      <point x="377.677" y="1170"/>
      <point x="673.677" y="1170" type="curve" smooth="yes"/>
      <point x="1050.68" y="1170"/>
      <point x="1265.68" y="1048"/>
      <point x="1265.68" y="674" type="curve" smooth="yes"/>
      <point x="1265.68" y="477" type="line" smooth="yes"/>
      <point x="1265.68" y="143"/>
      <point x="1025.68" y="0"/>
      <point x="673.677" y="0" type="curve" smooth="yes"/>
      <point x="406.677" y="0"/>
      <point x="94.6768" y="73"/>
      <point x="94.6768" y="330" type="curve" smooth="yes"/>
      <point x="94.6768" y="496"/>
      <point x="183.677" y="587"/>
    </contour>
    <contour>
      <point x="422.677" y="359" type="curve" smooth="yes"/>
      <point x="422.677" y="407"/>
      <point x="401.677" y="442"/>
      <point x="354.677" y="442" type="curve" smooth="no"/>
      <point x="301.677" y="440"/>
      <point x="286.677" y="386"/>
      <point x="286.677" y="322" type="curve" smooth="yes"/>
      <point x="286.677" y="303"/>
      <point x="287.677" y="291"/>
      <point x="290.677" y="286" type="curve" smooth="no"/>
      <point x="320.677" y="286" type="line" smooth="yes"/>
      <point x="378.677" y="286"/>
      <point x="422.677" y="306"/>
    </contour>
  </outline>
</glyph>
<glyph name="uni0EAA" format="1">
  <advance width="1423"/>
  <unicode hex="0eaa"/>
  <outline>
    <contour>
      <point x="1035.53" y="0" type="curve" smooth="yes"/>
      <point x="692.525" y="0"/>
      <point x="771.525" y="472"/>
      <point x="482.525" y="472" type="curve" smooth="yes"/>
      <point x="418.525" y="472"/>
      <point x="362.525" y="441"/>
      <point x="337.525" y="393" type="curve" smooth="no"/>
      <point x="378.525" y="404"/>
      <point x="407.525" y="409"/>
      <point x="425.525" y="409" type="curve" smooth="yes"/>
      <point x="548.525" y="409"/>
      <point x="630.525" y="328"/>
      <point x="630.525" y="218" type="curve" smooth="yes"/>
      <point x="630.525" y="72"/>
      <point x="513.525" y="0"/>
      <point x="365.525" y="0" type="curve" smooth="yes"/>
      <point x="203.525" y="0"/>
      <point x="116.525" y="134"/>
      <point x="116.525" y="298" type="curve" smooth="yes"/>
      <point x="116.525" y="485"/>
      <point x="264.525" y="589"/>
      <point x="464.525" y="589" type="curve" smooth="yes"/>
      <point x="712.525" y="589"/>
      <point x="808.525" y="449"/>
      <point x="906.525" y="302" type="curve" smooth="yes"/>
      <point x="931.525" y="261"/>
      <point x="952.525" y="216"/>
      <point x="991.525" y="216" type="curve" smooth="yes"/>
      <point x="1028.53" y="216"/>
      <point x="1035.53" y="267"/>
      <point x="1035.53" y="314" type="curve" smooth="yes"/>
      <point x="1035.53" y="700" type="line" smooth="no"/>
      <point x="972.525" y="674"/>
      <point x="788.525" y="658"/>
      <point x="707.525" y="658" type="curve" smooth="yes"/>
      <point x="427.525" y="658"/>
      <point x="129.525" y="690"/>
      <point x="129.525" y="895" type="curve" smooth="yes"/>
      <point x="129.525" y="1078"/>
      <point x="322.525" y="1170"/>
      <point x="707.525" y="1170" type="curve" smooth="yes"/>
      <point x="962.525" y="1170"/>
      <point x="1123.53" y="1118"/>
      <point x="1189.53" y="1015" type="curve" smooth="no"/>
      <point x="1204.53" y="1065"/>
      <point x="1211.53" y="1113"/>
      <point x="1211.53" y="1159" type="curve" smooth="yes"/>
      <point x="1211.53" y="1242" type="line" smooth="no"/>
      <point x="1416.53" y="1242" type="line" smooth="no"/>
      <point x="1416.53" y="1167" type="line" smooth="yes"/>
      <point x="1416.53" y="1028"/>
      <point x="1382.53" y="916"/>
      <point x="1312.53" y="852" type="curve" smooth="no"/>
      <point x="1317.53" y="814"/>
      <point x="1319.53" y="736"/>
      <point x="1319.53" y="616" type="curve" smooth="yes"/>
      <point x="1319.53" y="425" type="line" smooth="yes"/>
      <point x="1319.53" y="202"/>
      <point x="1251.53" y="0"/>
    </contour>
    <contour>
      <point x="385.525" y="137" type="curve" smooth="yes"/>
      <point x="447.525" y="137"/>
      <point x="475.525" y="173"/>
      <point x="476.525" y="226" type="curve" smooth="no"/>
      <point x="473.525" y="274"/>
      <point x="435.525" y="299"/>
      <point x="363.525" y="300" type="curve" smooth="no"/>
      <point x="325.525" y="300" type="line" smooth="no"/>
      <point x="325.525" y="280" type="line" smooth="yes"/>
      <point x="325.525" y="211"/>
      <point x="327.525" y="137"/>
    </contour>
    <contour>
      <point x="707.525" y="819" type="curve" smooth="yes"/>
      <point x="849.525" y="819"/>
      <point x="959.525" y="831"/>
      <point x="1051.53" y="878" type="curve" smooth="no"/>
      <point x="1045.53" y="979"/>
      <point x="854.525" y="991"/>
      <point x="707.525" y="991" type="curve" smooth="yes"/>
      <point x="577.525" y="991"/>
      <point x="413.525" y="988"/>
      <point x="413.525" y="895" type="curve" smooth="yes"/>
      <point x="413.525" y="811"/>
      <point x="598.525" y="819"/>
    </contour>
  </outline>
</glyph>
<glyph name="uni0EAB" format="1">
  <advance width="1966"/>
  <unicode hex="0eab"/>
  <outline>
    <contour>
      <point x="219.646" y="740" type="curve" smooth="no"/>
      <point x="94.6465" y="740"/>
      <point x="16.6465" y="829"/>
      <point x="16.6465" y="955" type="curve" smooth="yes"/>
      <point x="16.6465" y="1112"/>
      <point x="130.646" y="1170"/>
      <point x="302.646" y="1170" type="curve" smooth="yes"/>
      <point x="448.646" y="1170"/>
      <point x="584.646" y="1098"/>
      <point x="584.646" y="955" type="curve" smooth="yes"/>
      <point x="584.646" y="917"/>
      <point x="576.646" y="873"/>
      <point x="559.646" y="822" type="curve" smooth="no"/>
      <point x="458.646" y="426" type="line" smooth="yes"/>
      <point x="451.646" y="400"/>
      <point x="447.646" y="376"/>
      <point x="447.646" y="354" type="curve" smooth="yes"/>
      <point x="447.646" y="229"/>
      <point x="556.646" y="177"/>
      <point x="691.646" y="177" type="curve" smooth="yes"/>
      <point x="871.646" y="177"/>
      <point x="942.646" y="259"/>
      <point x="942.646" y="439" type="curve" smooth="yes"/>
      <point x="942.646" y="754" type="line" smooth="no"/>
      <point x="921.646" y="744"/>
      <point x="894.646" y="740"/>
      <point x="861.646" y="740" type="curve" smooth="yes"/>
      <point x="721.646" y="740"/>
      <point x="641.646" y="818"/>
      <point x="641.646" y="960" type="curve" smooth="yes"/>
      <point x="641.646" y="1107"/>
      <point x="752.646" y="1170"/>
      <point x="912.646" y="1170" type="curve" smooth="yes"/>
      <point x="1036.65" y="1170"/>
      <point x="1127.65" y="1129"/>
      <point x="1183.65" y="1047" type="curve" smooth="no"/>
      <point x="1277.65" y="1111"/>
      <point x="1358.65" y="1170"/>
      <point x="1474.65" y="1170" type="curve" smooth="yes"/>
      <point x="1755.65" y="1170"/>
      <point x="1896.65" y="1015"/>
      <point x="1896.65" y="702" type="curve" smooth="yes"/>
      <point x="1896.65" y="0" type="line" smooth="no"/>
      <point x="1612.65" y="0" type="line" smooth="no"/>
      <point x="1612.65" y="697" type="line" smooth="yes"/>
      <point x="1612.65" y="872"/>
      <point x="1610.65" y="991"/>
      <point x="1439.65" y="991" type="curve" smooth="yes"/>
      <point x="1359.65" y="991"/>
      <point x="1292.65" y="949"/>
      <point x="1226.65" y="911" type="curve" smooth="no"/>
      <point x="1226.65" y="443" type="line" smooth="yes"/>
      <point x="1226.65" y="119"/>
      <point x="1005.65" y="0"/>
      <point x="664.646" y="0" type="curve" smooth="yes"/>
      <point x="427.646" y="0"/>
      <point x="200.646" y="103"/>
      <point x="181.646" y="317" type="curve" smooth="yes"/>
      <point x="181.646" y="320"/>
      <point x="181.646" y="322"/>
      <point x="180.646" y="323" type="curve" smooth="no"/>
      <point x="180.646" y="339" type="line" smooth="yes"/>
      <point x="180.646" y="365"/>
      <point x="185.646" y="395"/>
      <point x="193.646" y="426" type="curve" smooth="yes"/>
      <point x="283.646" y="752" type="line" smooth="no"/>
      <point x="260.646" y="748"/>
      <point x="240.646" y="744"/>
    </contour>
    <contour>
      <point x="336.646" y="956" type="curve" smooth="no"/>
      <point x="336.646" y="995"/>
      <point x="302.646" y="1023"/>
      <point x="261.646" y="1023" type="curve" smooth="yes"/>
      <point x="218.646" y="1022"/>
      <point x="194.646" y="997"/>
      <point x="193.646" y="946" type="curve" smooth="no"/>
      <point x="196.646" y="896"/>
      <point x="228.646" y="870"/>
      <point x="286.646" y="870" type="curve" smooth="yes"/>
      <point x="315.646" y="870" type="line" smooth="no"/>
      <point x="328.646" y="927"/>
      <point x="335.646" y="956"/>
    </contour>
    <contour>
      <point x="883.646" y="1032" type="curve" smooth="yes"/>
      <point x="842.646" y="1032"/>
      <point x="819.646" y="1005"/>
      <point x="818.646" y="965" type="curve" smooth="no"/>
      <point x="819.646" y="917"/>
      <point x="841.646" y="894"/>
      <point x="882.646" y="894" type="curve" smooth="yes"/>
      <point x="908.646" y="894"/>
      <point x="928.646" y="897"/>
      <point x="942.646" y="904" type="curve" smooth="no"/>
      <point x="942.646" y="937" type="line" smooth="yes"/>
      <point x="942.646" y="993"/>
      <point x="932.646" y="1032"/>
    </contour>
  </outline>
</glyph>
<glyph name="uni0EAD" format="1">
  <advance width="1239"/>
  <unicode hex="0ead"/>
  <outline>
    <contour>
      <point x="353" y="844" type="curve" smooth="yes"/>
      <point x="353" y="769.754"/>
      <point x="456.553" y="762.59"/>
      <point x="550.131" y="762.59" type="curve" smooth="yes"/>
      <point x="572.509" y="762.59"/>
      <point x="594.316" y="763"/>
      <point x="614" y="763" type="curve" smooth="yes"/>
      <point x="830" y="763"/>
      <point x="939" y="790"/>
      <point x="941" y="844" type="curve" smooth="no"/>
      <point x="941" y="926"/>
      <point x="741" y="935"/>
      <point x="614" y="935" type="curve" smooth="yes"/>
      <point x="492" y="935"/>
      <point x="353" y="931"/>
    </contour>
    <contour>
      <point x="335" y="554" type="curve" smooth="yes"/>
      <point x="467" y="554"/>
      <point x="574" y="486"/>
      <point x="574" y="356" type="curve" smooth="yes"/>
      <point x="574" y="256"/>
      <point x="509" y="181"/>
      <point x="412" y="178" type="curve" smooth="no"/>
      <point x="407" y="178" type="line" smooth="yes"/>
      <point x="383" y="178"/>
      <point x="371" y="178"/>
      <point x="370" y="179" type="curve" smooth="no"/>
      <point x="418" y="161"/>
      <point x="498" y="152"/>
      <point x="609" y="152" type="curve" smooth="yes"/>
      <point x="918" y="152"/>
      <point x="945" y="308"/>
      <point x="945" y="618" type="curve" smooth="yes"/>
      <point x="945" y="626" type="line" smooth="no"/>
      <point x="928" y="582"/>
      <point x="694" y="576"/>
      <point x="627" y="576" type="curve" smooth="yes"/>
      <point x="266" y="576"/>
      <point x="86" y="665"/>
      <point x="86" y="844" type="curve" smooth="yes"/>
      <point x="86" y="1017"/>
      <point x="262" y="1104"/>
      <point x="614" y="1104" type="curve" smooth="yes"/>
      <point x="959" y="1104"/>
      <point x="1214" y="1020"/>
      <point x="1214" y="682" type="curve" smooth="yes"/>
      <point x="1214" y="486" type="line" smooth="yes"/>
      <point x="1214" y="162"/>
      <point x="1024" y="0"/>
      <point x="644" y="0" type="curve" smooth="yes"/>
      <point x="392" y="0"/>
      <point x="99" y="69"/>
      <point x="99" y="311" type="curve" smooth="yes"/>
      <point x="99" y="464"/>
      <point x="182" y="554"/>
    </contour>
    <contour>
      <point x="350" y="417" type="curve" smooth="yes"/>
      <point x="300" y="417"/>
      <point x="281" y="370"/>
      <point x="281" y="315" type="curve" smooth="yes"/>
      <point x="281" y="300"/>
      <point x="284" y="285"/>
      <point x="286" y="271" type="curve" smooth="no"/>
      <point x="314" y="270" type="line" smooth="no"/>
      <point x="373" y="275"/>
      <point x="404" y="298"/>
      <point x="407" y="338" type="curve" smooth="no"/>
      <point x="407" y="391"/>
      <point x="388" y="417"/>
    </contour>
  </outline>
</glyph>
<glyph name="uni0EAE" format="1">
  <advance width="1285"/>
  <unicode hex="0eae"/>
  <outline>
    <contour>
      <point x="422.677" y="358" type="curve" smooth="yes"/>
      <point x="422.677" y="405"/>
      <point x="402.677" y="441"/>
      <point x="357.677" y="441" type="curve" smooth="yes"/>
      <point x="310.677" y="440"/>
      <point x="287.677" y="399"/>
      <point x="287.677" y="322" type="curve" smooth="yes"/>
      <point x="287.677" y="310"/>
      <point x="288.677" y="299"/>
      <point x="290.677" y="288" type="curve" smooth="no"/>
      <point x="334.677" y="288" type="line" smooth="yes"/>
      <point x="387.677" y="288"/>
      <point x="422.677" y="308"/>
    </contour>
    <contour>
      <point x="958.677" y="1049" type="curve" smooth="yes"/>
      <point x="992.677" y="1049"/>
      <point x="1021.68" y="1070"/>
      <point x="1021.68" y="1105" type="curve" smooth="yes"/>
      <point x="1021.68" y="1170" type="line" smooth="no"/>
      <point x="1224.68" y="1170" type="line" smooth="no"/>
      <point x="1224.68" y="1105" type="line" smooth="yes"/>
      <point x="1224.68" y="941"/>
      <point x="1153.68" y="858"/>
      <point x="1011.68" y="858" type="curve" smooth="yes"/>
      <point x="848.677" y="858"/>
      <point x="550.677" y="982"/>
      <point x="423.677" y="982" type="curve" smooth="yes"/>
      <point x="397.677" y="982"/>
      <point x="376.677" y="970"/>
      <point x="376.677" y="946" type="curve" smooth="yes"/>
      <point x="376.677" y="874"/>
      <point x="542.677" y="831"/>
      <point x="637.677" y="800" type="curve" smooth="yes"/>
      <point x="831.677" y="738" type="line" smooth="yes"/>
      <point x="1021.68" y="678"/>
      <point x="1224.68" y="595"/>
      <point x="1224.68" y="359" type="curve" smooth="yes"/>
      <point x="1224.68" y="75"/>
      <point x="964.677" y="0"/>
      <point x="645.677" y="0" type="curve" smooth="yes"/>
      <point x="372.677" y="0"/>
      <point x="94.6768" y="72"/>
      <point x="94.6768" y="335" type="curve" smooth="yes"/>
      <point x="94.6768" y="498"/>
      <point x="186.677" y="587"/>
      <point x="352.677" y="587" type="curve" smooth="yes"/>
      <point x="488.677" y="587"/>
      <point x="599.677" y="509"/>
      <point x="599.677" y="374" type="curve" smooth="yes"/>
      <point x="599.677" y="263"/>
      <point x="518.677" y="190"/>
      <point x="407.677" y="190" type="curve" smooth="no"/>
      <point x="360.677" y="198" type="line" smooth="no"/>
      <point x="421.677" y="174"/>
      <point x="519.677" y="161"/>
      <point x="653.677" y="161" type="curve" smooth="yes"/>
      <point x="811.677" y="161"/>
      <point x="934.677" y="205"/>
      <point x="940.677" y="340" type="curve" smooth="no"/>
      <point x="936.677" y="503"/>
      <point x="737.677" y="543"/>
      <point x="599.677" y="590" type="curve" smooth="yes"/>
      <point x="539.677" y="611" type="line" smooth="yes"/>
      <point x="355.677" y="674"/>
      <point x="124.677" y="721"/>
      <point x="124.677" y="950" type="curve" smooth="yes"/>
      <point x="124.677" y="1081"/>
      <point x="234.677" y="1170"/>
      <point x="366.677" y="1170" type="curve" smooth="yes"/>
      <point x="583.677" y="1170"/>
      <point x="761.677" y="1049"/>
    </contour>
  </outline>
</glyph>
<glyph name="uni0EAF" format="1">
  <advance width="1426"/>
  <unicode hex="0eaf"/>
  <outline>
    <contour>
      <point x="781.939" y="977" type="curve" smooth="yes"/>
      <point x="781.939" y="837"/>
      <point x="692.939" y="710"/>
      <point x="552.939" y="710" type="curve" smooth="yes"/>
      <point x="446.939" y="710"/>
      <point x="373.939" y="773"/>
      <point x="373.939" y="880" type="curve" smooth="no"/>
      <point x="379.939" y="915"/>
      <point x="384.939" y="949"/>
      <point x="394.939" y="1004" type="curve" smooth="no"/>
      <point x="340.939" y="976"/>
      <point x="313.939" y="913"/>
      <point x="313.939" y="812" type="curve" smooth="yes"/>
      <point x="313.939" y="677"/>
      <point x="400.939" y="596"/>
      <point x="537.939" y="596" type="curve" smooth="yes"/>
      <point x="798.939" y="596"/>
      <point x="991.939" y="883"/>
      <point x="1094.94" y="1058" type="curve" smooth="no"/>
      <point x="1144.94" y="1144" type="line" smooth="no"/>
      <point x="1445.94" y="1021" type="line" smooth="no"/>
      <point x="826.939" y="-432" type="line" smooth="no"/>
      <point x="592.939" y="-334" type="line" smooth="no"/>
      <point x="1048.94" y="744" type="line" smooth="no"/>
      <point x="1014.94" y="691" type="line" smooth="yes"/>
      <point x="911.939" y="530"/>
      <point x="768.939" y="401"/>
      <point x="532.939" y="401" type="curve" smooth="yes"/>
      <point x="266.939" y="401"/>
      <point x="49.9395" y="533"/>
      <point x="49.9395" y="796" type="curve" smooth="yes"/>
      <point x="49.9395" y="1043"/>
      <point x="226.939" y="1222"/>
      <point x="472.939" y="1222" type="curve" smooth="yes"/>
      <point x="636.939" y="1222"/>
      <point x="781.939" y="1139"/>
    </contour>
    <contour>
      <point x="500.939" y="916" type="line" smooth="yes"/>
      <point x="500.939" y="879"/>
      <point x="522.939" y="859"/>
      <point x="561.939" y="859" type="curve" smooth="no"/>
      <point x="597.939" y="862"/>
      <point x="615.939" y="886"/>
      <point x="616.939" y="932" type="curve" smooth="no"/>
      <point x="614.939" y="982"/>
      <point x="575.939" y="1012"/>
      <point x="502.939" y="1019" type="curve" smooth="no"/>
      <point x="501.939" y="981"/>
      <point x="500.939" y="959"/>
      <point x="500.939" y="930" type="curve" smooth="yes"/>
    </contour>
  </outline>
</glyph>
<glyph name="uni0EB1" format="1">
  <advance width="2"/>
  <unicode hex="0eb1"/>
  <outline>
    <contour>
      <point x="-998.914" y="1567" type="curve" smooth="yes"/>
      <point x="-1041.91" y="1567"/>
      <point x="-1072.91" y="1545"/>
      <point x="-1072.91" y="1503" type="curve" smooth="yes"/>
      <point x="-1071.91" y="1455"/>
      <point x="-1035.91" y="1436"/>
      <point x="-982.914" y="1436" type="curve" smooth="yes"/>
      <point x="-917.914" y="1436" type="line" smooth="no"/>
      <point x="-917.914" y="1502" type="line" smooth="yes"/>
      <point x="-917.914" y="1545"/>
      <point x="-950.914" y="1567"/>
    </contour>
    <contour>
      <point x="-1001.91" y="1724" type="curve" smooth="yes"/>
      <point x="-895.914" y="1724"/>
      <point x="-801.914" y="1667"/>
      <point x="-801.914" y="1562" type="curve" smooth="yes"/>
      <point x="-801.914" y="1538"/>
      <point x="-804.914" y="1515"/>
      <point x="-814.914" y="1494" type="curve" smooth="yes"/>
      <point x="-840.914" y="1436" type="line" smooth="no"/>
      <point x="-620.914" y="1436" type="line" smooth="yes"/>
      <point x="-430.914" y="1436"/>
      <point x="-365.914" y="1461"/>
      <point x="-360.914" y="1649" type="curve" smooth="no"/>
      <point x="-147.914" y="1649" type="line" smooth="no"/>
      <point x="-147.914" y="1353"/>
      <point x="-349.914" y="1247"/>
      <point x="-644.914" y="1247" type="curve" smooth="yes"/>
      <point x="-817.914" y="1247" type="line" smooth="yes"/>
      <point x="-1024.91" y="1247"/>
      <point x="-1233.91" y="1274"/>
      <point x="-1233.91" y="1472" type="curve" smooth="yes"/>
      <point x="-1233.91" y="1639"/>
      <point x="-1156.91" y="1724"/>
    </contour>
  </outline>
</glyph>
<glyph name="uni0EB2" format="1">
  <advance width="957"/>
  <unicode hex="0eb2"/>
  <outline>
    <contour>
      <point x="303.263" y="708" type="curve" smooth="yes"/>
      <point x="161.263" y="708"/>
      <point x="58.2627" y="777"/>
      <point x="58.2627" y="918" type="curve" smooth="yes"/>
      <point x="58.2627" y="1100"/>
      <point x="204.263" y="1172"/>
      <point x="403.263" y="1172" type="curve" smooth="yes"/>
      <point x="702.263" y="1172"/>
      <point x="873.263" y="1057"/>
      <point x="873.263" y="768" type="curve" smooth="yes"/>
      <point x="873.263" y="0" type="line" smooth="no"/>
      <point x="590.263" y="0" type="line" smooth="no"/>
      <point x="590.263" y="818" type="line" smooth="yes"/>
      <point x="590.263" y="929"/>
      <point x="570.263" y="991"/>
      <point x="483.263" y="1013" type="curve" smooth="no"/>
      <point x="500.263" y="899" type="line" smooth="no"/>
      <point x="500.263" y="772"/>
      <point x="434.263" y="708"/>
    </contour>
    <contour>
      <point x="318.263" y="858" type="curve" smooth="yes"/>
      <point x="371.263" y="858"/>
      <point x="388.263" y="912"/>
      <point x="388.263" y="971" type="curve" smooth="yes"/>
      <point x="388.263" y="1021" type="line" smooth="no"/>
      <point x="304.263" y="1021"/>
      <point x="234.263" y="1017"/>
      <point x="234.263" y="937" type="curve" smooth="yes"/>
      <point x="234.263" y="885"/>
      <point x="265.263" y="858"/>
    </contour>
  </outline>
</glyph>
<glyph name="uni0EB3" format="1">
  <advance width="1020"/>
  <unicode hex="0eb3"/>
  <outline>
    <contour>
      <point x="327.508" y="728" type="curve" smooth="yes"/>
      <point x="184.508" y="728"/>
      <point x="82.5078" y="796"/>
      <point x="82.5078" y="938" type="curve" smooth="yes"/>
      <point x="82.5078" y="1120"/>
      <point x="227.508" y="1192"/>
      <point x="426.508" y="1192" type="curve" smooth="yes"/>
      <point x="725.508" y="1192"/>
      <point x="896.508" y="1079"/>
      <point x="896.508" y="791" type="curve" smooth="yes"/>
      <point x="896.508" y="0" type="line" smooth="no"/>
      <point x="613.508" y="0" type="line" smooth="no"/>
      <point x="613.508" y="838" type="line" smooth="yes"/>
      <point x="613.508" y="949"/>
      <point x="593.508" y="1012"/>
      <point x="506.508" y="1034" type="curve" smooth="no"/>
      <point x="524.508" y="921" type="line" smooth="no"/>
      <point x="524.508" y="793"/>
      <point x="458.508" y="728"/>
    </contour>
    <contour>
      <point x="342.508" y="880" type="curve" smooth="yes"/>
      <point x="395.508" y="880"/>
      <point x="409.508" y="935"/>
      <point x="411.508" y="992" type="curve" smooth="no"/>
      <point x="410.508" y="1042" type="line" smooth="no"/>
      <point x="326.508" y="1042"/>
      <point x="257.508" y="1039"/>
      <point x="257.508" y="958" type="curve" smooth="yes"/>
      <point x="257.508" y="906"/>
      <point x="290.508" y="880"/>
    </contour>
    <contour>
      <point x="-183.492" y="1518" type="curve" smooth="yes"/>
      <point x="-183.492" y="1386"/>
      <point x="-285.492" y="1289"/>
      <point x="-419.492" y="1289" type="curve" smooth="yes"/>
      <point x="-550.492" y="1289"/>
      <point x="-656.492" y="1387"/>
      <point x="-656.492" y="1518" type="curve" smooth="yes"/>
      <point x="-656.492" y="1649"/>
      <point x="-551.492" y="1748"/>
      <point x="-419.492" y="1748" type="curve" smooth="yes"/>
      <point x="-284.492" y="1748"/>
      <point x="-183.492" y="1653"/>
    </contour>
    <contour>
      <point x="-419.492" y="1428" type="curve" smooth="yes"/>
      <point x="-364.492" y="1428"/>
      <point x="-324.492" y="1464"/>
      <point x="-324.492" y="1520" type="curve" smooth="yes"/>
      <point x="-324.492" y="1573"/>
      <point x="-365.492" y="1613"/>
      <point x="-419.492" y="1613" type="curve" smooth="yes"/>
      <point x="-473.492" y="1613"/>
      <point x="-513.492" y="1574"/>
      <point x="-513.492" y="1520" type="curve" smooth="yes"/>
      <point x="-513.492" y="1469"/>
      <point x="-472.492" y="1428"/>
    </contour>
  </outline>
</glyph>
<glyph name="uni0EB4" format="1">
  <advance width="3"/>
  <unicode hex="0eb4"/>
  <outline>
    <contour>
      <point x="-665.683" y="1782" type="curve" smooth="yes"/>
      <point x="-434.683" y="1782"/>
      <point x="-181.683" y="1717"/>
      <point x="-181.683" y="1494" type="curve" smooth="yes"/>
      <point x="-181.683" y="1314"/>
      <point x="-333.683" y="1247"/>
      <point x="-532.683" y="1247" type="curve" smooth="yes"/>
      <point x="-575.683" y="1247" type="line" smooth="no"/>
      <point x="-575.683" y="1404" type="line" smooth="no"/>
      <point x="-529.683" y="1404" type="line" smooth="no"/>
      <point x="-443.683" y="1409"/>
      <point x="-399.683" y="1440"/>
      <point x="-395.683" y="1494" type="curve" smooth="no"/>
      <point x="-395.683" y="1610"/>
      <point x="-525.683" y="1619"/>
      <point x="-665.683" y="1619" type="curve" smooth="yes"/>
      <point x="-809.683" y="1619"/>
      <point x="-934.683" y="1606"/>
      <point x="-937.683" y="1494" type="curve" smooth="no"/>
      <point x="-936.683" y="1435"/>
      <point x="-890.683" y="1404"/>
      <point x="-800.683" y="1404" type="curve" smooth="yes"/>
      <point x="-752.683" y="1404" type="line" smooth="no"/>
      <point x="-752.683" y="1247" type="line" smooth="no"/>
      <point x="-798.683" y="1247" type="line" smooth="yes"/>
      <point x="-987.683" y="1247"/>
      <point x="-1150.68" y="1310"/>
      <point x="-1150.68" y="1494" type="curve" smooth="yes"/>
      <point x="-1150.68" y="1713"/>
      <point x="-890.683" y="1782"/>
    </contour>
  </outline>
</glyph>
<glyph name="uni0EB5" format="1">
  <advance width="3"/>
  <unicode hex="0eb5"/>
  <outline>
    <contour>
      <point x="-832.187" y="1782" type="curve" smooth="yes"/>
      <point x="-607.187" y="1782"/>
      <point x="-352.187" y="1715"/>
      <point x="-349.187" y="1503" type="curve" smooth="no"/>
      <point x="-350.187" y="1462"/>
      <point x="-369.187" y="1428"/>
      <point x="-404.187" y="1404" type="curve" smooth="no"/>
      <point x="-189.187" y="1404" type="line" smooth="no"/>
      <point x="-189.187" y="1247" type="line" smooth="no"/>
      <point x="-742.187" y="1247" type="line" smooth="no"/>
      <point x="-742.187" y="1404" type="line" smooth="no"/>
      <point x="-698.187" y="1404" type="line" smooth="yes"/>
      <point x="-609.187" y="1404"/>
      <point x="-564.187" y="1435"/>
      <point x="-564.187" y="1494" type="curve" smooth="yes"/>
      <point x="-564.187" y="1578"/>
      <point x="-653.187" y="1619"/>
      <point x="-832.187" y="1619" type="curve" smooth="yes"/>
      <point x="-975.187" y="1619"/>
      <point x="-1105.19" y="1608"/>
      <point x="-1105.19" y="1494" type="curve" smooth="yes"/>
      <point x="-1105.19" y="1435"/>
      <point x="-1059.19" y="1404"/>
      <point x="-969.187" y="1404" type="curve" smooth="yes"/>
      <point x="-922.187" y="1404" type="line" smooth="no"/>
      <point x="-922.187" y="1247" type="line" smooth="no"/>
      <point x="-966.187" y="1247" type="line" smooth="yes"/>
      <point x="-1155.19" y="1247"/>
      <point x="-1318.19" y="1310"/>
      <point x="-1318.19" y="1494" type="curve" smooth="yes"/>
      <point x="-1318.19" y="1712"/>
      <point x="-1057.19" y="1782"/>
    </contour>
  </outline>
</glyph>
<glyph name="uni0EB6" format="1">
  <advance width="0"/>
  <unicode hex="0eb6"/>
  <outline>
    <contour>
      <point x="-586" y="1527" type="curve" smooth="yes"/>
      <point x="-722" y="1527"/>
      <point x="-839" y="1515"/>
      <point x="-842" y="1409" type="curve" smooth="no"/>
      <point x="-841" y="1354"/>
      <point x="-798" y="1325"/>
      <point x="-713" y="1324" type="curve" smooth="no"/>
      <point x="-702" y="1324" type="line" smooth="no"/>
      <point x="-702" y="1176" type="line" smooth="no"/>
      <point x="-711" y="1176" type="line" smooth="yes"/>
      <point x="-889" y="1176"/>
      <point x="-1043" y="1235"/>
      <point x="-1043" y="1409" type="curve" smooth="yes"/>
      <point x="-1043" y="1616"/>
      <point x="-798" y="1681"/>
      <point x="-586" y="1681" type="curve" smooth="yes"/>
      <point x="-368" y="1681"/>
      <point x="-129" y="1619"/>
      <point x="-129" y="1409" type="curve" smooth="yes"/>
      <point x="-129" y="1239"/>
      <point x="-272" y="1176"/>
      <point x="-460" y="1176" type="curve" smooth="yes"/>
      <point x="-467" y="1176" type="line" smooth="no"/>
      <point x="-467" y="1324" type="line" smooth="no"/>
      <point x="-458" y="1324" type="line" smooth="no"/>
      <point x="-376" y="1328"/>
      <point x="-334" y="1356"/>
      <point x="-331" y="1409" type="curve" smooth="no"/>
      <point x="-334" y="1517"/>
      <point x="-453" y="1527"/>
    </contour>
    <contour>
      <point x="-582" y="1315" type="curve" smooth="yes"/>
      <point x="-534" y="1315"/>
      <point x="-493" y="1343"/>
      <point x="-493" y="1390" type="curve" smooth="yes"/>
      <point x="-493" y="1433"/>
      <point x="-536" y="1459"/>
      <point x="-582" y="1459" type="curve" smooth="yes"/>
      <point x="-628" y="1459"/>
      <point x="-671" y="1435"/>
      <point x="-671" y="1390" type="curve" smooth="yes"/>
      <point x="-671" y="1344"/>
      <point x="-632" y="1315"/>
    </contour>
  </outline>
</glyph>
<glyph name="uni0EB7" format="1">
  <advance width="3"/>
  <unicode hex="0eb7"/>
  <outline>
    <contour>
      <point x="-832.187" y="1619" type="curve" smooth="yes"/>
      <point x="-960.187" y="1619"/>
      <point x="-1101.19" y="1612"/>
      <point x="-1105.19" y="1494" type="curve" smooth="no"/>
      <point x="-1105.19" y="1435"/>
      <point x="-1059.19" y="1404"/>
      <point x="-969.187" y="1404" type="curve" smooth="yes"/>
      <point x="-957.187" y="1404" type="line" smooth="no"/>
      <point x="-957.187" y="1247" type="line" smooth="no"/>
      <point x="-966.187" y="1247" type="line" smooth="yes"/>
      <point x="-1155.19" y="1247"/>
      <point x="-1318.19" y="1310"/>
      <point x="-1318.19" y="1494" type="curve" smooth="yes"/>
      <point x="-1318.19" y="1712"/>
      <point x="-1057.19" y="1782"/>
      <point x="-832.187" y="1782" type="curve" smooth="yes"/>
      <point x="-609.187" y="1782"/>
      <point x="-348.187" y="1715"/>
      <point x="-348.187" y="1503" type="curve" smooth="yes"/>
      <point x="-348.187" y="1460"/>
      <point x="-366.187" y="1425"/>
      <point x="-403.187" y="1403" type="curve" smooth="no"/>
      <point x="-188.187" y="1403" type="line" smooth="no"/>
      <point x="-188.187" y="1247" type="line" smooth="no"/>
      <point x="-707.187" y="1247" type="line" smooth="no"/>
      <point x="-707.187" y="1404" type="line" smooth="no"/>
      <point x="-698.187" y="1404" type="line" smooth="yes"/>
      <point x="-616.187" y="1404"/>
      <point x="-564.187" y="1423"/>
      <point x="-564.187" y="1494" type="curve" smooth="yes"/>
      <point x="-564.187" y="1578"/>
      <point x="-653.187" y="1619"/>
    </contour>
    <contour>
      <point x="-831.187" y="1394" type="curve" smooth="yes"/>
      <point x="-778.187" y="1394"/>
      <point x="-741.187" y="1422"/>
      <point x="-737.187" y="1473" type="curve" smooth="no"/>
      <point x="-737.187" y="1519"/>
      <point x="-781.187" y="1547"/>
      <point x="-831.187" y="1547" type="curve" smooth="yes"/>
      <point x="-883.187" y="1547"/>
      <point x="-920.187" y="1522"/>
      <point x="-924.187" y="1473" type="curve" smooth="no"/>
      <point x="-924.187" y="1425"/>
      <point x="-882.187" y="1394"/>
    </contour>
  </outline>
</glyph>
